<svg width="410" height="469" viewBox="0 0 410 469" fill="none" xmlns="http://www.w3.org/2000/svg">
<g clip-path="url(#clip0)">
<path d="M78 0.499971C-105.082 0.499955 -253.5 148.918 -253.5 332C-253.5 515.082 -105.082 663.5 78 663.5C261.082 663.5 409.5 515.082 409.5 332C409.5 148.918 261.082 0.499987 78 0.499971Z" stroke="#FBB216"/>
<path d="M78.0001 32.5C-87.4092 32.5 -221.5 166.591 -221.5 332C-221.5 497.409 -87.4093 631.5 78 631.5C243.409 631.5 377.5 497.409 377.5 332C377.5 166.591 243.409 32.5 78.0001 32.5Z" stroke="#FBB216"/>
<path d="M78 62.5C-70.8407 62.5 -191.5 183.159 -191.5 332C-191.5 480.841 -70.8408 601.5 78 601.5C226.841 601.5 347.5 480.841 347.5 332C347.5 183.159 226.841 62.5 78 62.5Z" stroke="#FBB216"/>
<path d="M78 92.5C-54.2722 92.5 -161.5 199.728 -161.5 332C-161.5 464.272 -54.2722 571.5 78 571.5C210.272 571.5 317.5 464.272 317.5 332C317.5 199.728 210.272 92.5 78 92.5Z" stroke="#FBB216"/>
<path d="M78 122.5C-37.7036 122.5 -131.5 216.296 -131.5 332C-131.5 447.704 -37.7036 541.5 78 541.5C193.704 541.5 287.5 447.704 287.5 332C287.5 216.296 193.704 122.5 78 122.5Z" stroke="#FBB216"/>
<path d="M78 152.5C-21.1351 152.5 -101.5 232.865 -101.5 332C-101.5 431.135 -21.1351 511.5 78 511.5C177.135 511.5 257.5 431.135 257.5 332C257.5 232.865 177.135 152.5 78 152.5Z" stroke="#FBB216"/>
</g>
<defs>
<clipPath id="clip0">
<rect width="410" height="469" fill="white" transform="translate(410 469) rotate(-180)"/>
</clipPath>
</defs>
</svg>
