<svg width="340" height="341" viewBox="0 0 340 341" fill="none" xmlns="http://www.w3.org/2000/svg">
<path d="M169.129 0L169.491 0.362926L169.853 2.17934e-05L216.109 46.324L210.496 51.8586H128.401L122.873 46.3231L169.129 0Z" fill="white"/>
<path d="M142.041 65.5189L155.653 79.1501L162.458 85.9657V112.536L169.853 119.941L177.247 112.536L177.416 85.9657L183.121 79.411L196.487 65.5189H142.041Z" fill="white"/>
<path d="M169.853 143.84L241.742 71.8464L229.809 59.8966L169.853 119.941L119.471 69.486L110.043 59.8966L98.1109 71.8464L107.686 81.4358L169.853 143.84Z" fill="white"/>
<path d="M55.6846 207.13L46.2565 216.572L0 170.395L46.2565 124.072L55.6846 133.513V207.13Z" fill="white"/>
<path d="M71.5944 242.242L143.336 170.396L81.1698 107.991L71.5944 98.4016L59.6621 110.351L69.2374 119.941V136.35H85.6976L99.338 150.01H69.2374V163.671H112.901L119.544 170.324L112.547 177.331H69.2374V190.991H98.9754L85.335 204.652H69.2374V220.703L59.6621 230.292L71.5944 242.242Z" fill="white"/>
<path d="M169.853 340.644L216.109 294.32L215.994 294.202L216.081 294.115L210.612 288.637H128.769L122.874 294.542L169.264 341L169.884 340.38L169.97 340.466L169.853 340.644Z" fill="white"/>
<path d="M169.691 247.656L196.972 274.977H142.41L169.691 247.656Z" fill="white"/>
<path d="M169.853 196.803L107.686 259.208L96.4905 271.158L107.686 282.665L119.471 271.158L169.853 220.703L229.809 280.747L241.742 268.797L169.853 196.803Z" fill="white"/>
<path d="M280.043 230.292L268.111 242.242L258.683 232.653L196.369 170.396L258.683 107.991L268.111 98.4016L280.043 110.351L270.615 119.941V220.703L270.611 220.698L270.537 220.772L280.043 230.292Z" fill="white"/>
<path d="M293.744 216.572L284.315 207.13V170.396V152.028V147.436V142.845H270.403V133.685L284.315 133.661L293.744 124.072L340 170.395L293.744 216.572Z" fill="white"/>
</svg>
