<svg width="1105" height="299" viewBox="0 0 1105 299" fill="none" xmlns="http://www.w3.org/2000/svg">
<path d="M148.237 0L148.554 0.317631L148.871 1.90735e-05L189.413 40.5425L184.494 45.3863H112.54L107.695 40.5417L148.237 0Z" fill="#202020"/>
<path d="M124.495 57.3417L148.355 81.2016L172.215 57.3417H124.495Z" fill="#202020"/>
<path d="M148.871 125.888L211.88 62.8796L201.421 52.4212L148.871 104.971L104.713 60.8137L96.4497 52.4212L85.9913 62.8796L94.3839 71.2721L148.871 125.888Z" fill="#202020"/>
<path d="M48.8059 181.279L40.5425 189.542L0 149.129L40.5425 108.587L48.8059 116.85V181.279Z" fill="#202020"/>
<path d="M62.7504 212.009L125.63 149.129L71.143 94.513L62.7504 86.1205L52.292 96.5789L60.6846 104.971V119.333H75.1114L87.0668 131.288H60.6846V143.244H98.9541L104.777 149.066L98.6443 155.199H60.6846V167.155H86.749L74.7936 179.11H60.6846V193.158L52.292 201.55L62.7504 212.009Z" fill="#202020"/>
<path d="M148.871 298.129L189.413 257.587L189.312 257.484L189.389 257.407L184.595 252.614H112.863L107.695 257.781L148.355 298.441L148.898 297.898L148.974 297.974L148.871 298.129Z" fill="#202020"/>
<path d="M148.729 216.747L172.64 240.658H124.818L148.729 216.747Z" fill="#202020"/>
<path d="M148.871 172.241L94.3839 226.857L84.5711 237.315L94.3839 247.387L104.713 237.315L148.871 193.158L201.421 245.708L211.88 235.25L148.871 172.241Z" fill="#202020"/>
<path d="M245.45 201.55L234.991 212.009L226.728 203.616L172.112 149.129L226.728 94.513L234.991 86.1205L245.45 96.5789L237.186 104.971V193.158L237.182 193.154L237.118 193.218L245.45 201.55Z" fill="#202020"/>
<path d="M257.458 189.542L249.194 181.279V116.979L257.458 108.587L298 149.129L257.458 189.542Z" fill="#202020"/>
<path d="M307.406 256.36L373.248 153.172L310.172 56.3457H344.2L393.996 132.7L439.366 56.3457H471.733L408.658 155.108L474.5 256.36H440.196L388.186 176.41L340.603 256.36H307.406ZM512.912 56.3457H642.936V82.0737H539.747V142.936H631.87V168.664H539.747V230.356H646.809V256.36H512.912V56.3457ZM678.988 56.3457H811.778V82.0737H758.109V256.36H731.274V82.0737H678.988V56.3457ZM854.667 56.3457H881.501V256.36H854.667V56.3457ZM919.039 256.36L1006.46 48.0464H1008.12L1095.54 256.36H1064.55L1043.81 203.798H966.898L945.597 256.36H919.039ZM976.304 180.56H1034.68L1006.18 107.802L976.304 180.56Z" fill="#202020"/>
</svg>
