<svg width="509" height="361" viewBox="0 0 509 361" fill="none" xmlns="http://www.w3.org/2000/svg">
<path d="M254.475 276.571C390.919 276.571 501.528 216.321 501.528 142C501.528 67.679 390.919 7.42969 254.475 7.42969C118.031 7.42969 7.42188 67.679 7.42188 142C7.42188 216.321 118.031 276.571 254.475 276.571Z" fill="#ED2326"/>
<path d="M254.475 223.178C238.189 223.178 222.268 218.344 208.727 209.285C195.187 200.227 184.634 187.352 178.403 172.29C172.173 157.227 170.545 140.654 173.726 124.665C176.907 108.677 184.754 93.9916 196.273 82.4674C207.793 70.9432 222.468 63.0977 238.443 59.9233C254.418 56.7488 270.974 58.388 286.018 64.6335C301.061 70.879 313.917 81.4502 322.958 95.0101C331.999 108.57 336.82 124.509 336.81 140.812C336.771 162.653 328.082 183.588 312.648 199.028C297.215 214.468 276.295 223.152 254.475 223.178ZM254.475 75.6809C241.618 75.6809 229.05 79.4966 218.359 86.6456C207.668 93.7947 199.335 103.956 194.412 115.845C189.49 127.734 188.2 140.817 190.704 153.44C193.209 166.064 199.396 177.66 208.484 186.764C217.572 195.868 229.152 202.07 241.761 204.587C254.37 207.103 267.441 205.822 279.322 200.903C291.203 195.985 301.36 187.651 308.511 176.955C315.661 166.259 319.482 153.681 319.492 140.812C319.479 123.555 312.625 107.009 300.434 94.8068C288.244 82.6045 271.715 75.7435 254.475 75.7304V75.6809Z" fill="white"/>
<path d="M256.554 6.19141L389.408 140.811L256.554 275.382L119.742 140.811L256.554 6.19141ZM256.554 248.29L361.204 140.811L256.554 35.7107L149.43 140.811L256.554 248.29Z" fill="white"/>
<path d="M37.7041 77.4146C37.7041 77.4146 71.6473 186.378 189.904 209.806L170.112 189.994C170.112 189.994 98.1686 164.189 44.5323 70.8271L37.7041 77.4146Z" fill="white"/>
<path d="M313.85 64.3877C350.242 71.7989 384.299 87.9253 413.105 111.387C441.912 134.849 464.612 164.947 479.261 199.107L470.503 208.022C470.503 208.022 414.542 104.011 336.462 87.1216L313.85 64.3877Z" fill="white"/>
<path d="M161.211 325.094C161.211 328.672 160.039 331.414 157.695 333.32C155.352 335.227 152.016 336.18 147.688 336.18H144.125V349H138.523V314.734H148.391C152.672 314.734 155.875 315.609 158 317.359C160.141 319.109 161.211 321.688 161.211 325.094ZM144.125 331.469H147.102C149.977 331.469 152.086 330.969 153.43 329.969C154.773 328.969 155.445 327.406 155.445 325.281C155.445 323.312 154.844 321.844 153.641 320.875C152.438 319.906 150.562 319.422 148.016 319.422H144.125V331.469ZM190.262 325.094C190.262 328.672 189.09 331.414 186.747 333.32C184.403 335.227 181.067 336.18 176.739 336.18H173.176V349H167.575V314.734H177.442C181.723 314.734 184.926 315.609 187.051 317.359C189.192 319.109 190.262 321.688 190.262 325.094ZM173.176 331.469H176.153C179.028 331.469 181.137 330.969 182.481 329.969C183.825 328.969 184.497 327.406 184.497 325.281C184.497 323.312 183.895 321.844 182.692 320.875C181.489 319.906 179.614 319.422 177.067 319.422H173.176V331.469ZM196.626 349V314.734H202.228V349H196.626ZM218.471 358.562C216.939 358.562 215.658 358.367 214.627 357.977V353.266C215.939 353.594 217.08 353.758 218.049 353.758C221.111 353.758 222.643 351.82 222.643 347.945V314.734H228.268V347.758C228.268 351.258 227.432 353.93 225.76 355.773C224.103 357.633 221.674 358.562 218.471 358.562ZM252.303 349L251.202 345.391H251.014C249.764 346.969 248.506 348.047 247.241 348.625C245.975 349.188 244.35 349.469 242.366 349.469C239.819 349.469 237.827 348.781 236.389 347.406C234.967 346.031 234.256 344.086 234.256 341.57C234.256 338.898 235.248 336.883 237.233 335.523C239.217 334.164 242.241 333.422 246.303 333.297L250.78 333.156V331.773C250.78 330.117 250.389 328.883 249.608 328.07C248.842 327.242 247.647 326.828 246.022 326.828C244.694 326.828 243.42 327.023 242.202 327.414C240.983 327.805 239.811 328.266 238.686 328.797L236.905 324.859C238.311 324.125 239.85 323.57 241.522 323.195C243.194 322.805 244.772 322.609 246.256 322.609C249.553 322.609 252.037 323.328 253.709 324.766C255.397 326.203 256.241 328.461 256.241 331.539V349H252.303ZM244.1 345.25C246.1 345.25 247.702 344.695 248.905 343.586C250.123 342.461 250.733 340.891 250.733 338.875V336.625L247.405 336.766C244.811 336.859 242.92 337.297 241.733 338.078C240.561 338.844 239.975 340.023 239.975 341.617C239.975 342.773 240.319 343.672 241.006 344.312C241.694 344.938 242.725 345.25 244.1 345.25ZM276.597 349.469C273.315 349.469 270.768 348.289 268.956 345.93H268.628C268.847 348.117 268.956 349.445 268.956 349.914V360.531H263.448V323.078H267.901C268.026 323.562 268.284 324.719 268.675 326.547H268.956C270.675 323.922 273.253 322.609 276.69 322.609C279.925 322.609 282.44 323.781 284.237 326.125C286.05 328.469 286.956 331.758 286.956 335.992C286.956 340.227 286.034 343.531 284.19 345.906C282.362 348.281 279.831 349.469 276.597 349.469ZM275.261 327.109C273.073 327.109 271.472 327.75 270.456 329.031C269.456 330.312 268.956 332.359 268.956 335.172V335.992C268.956 339.148 269.456 341.438 270.456 342.859C271.456 344.266 273.089 344.969 275.354 344.969C277.261 344.969 278.729 344.188 279.761 342.625C280.792 341.062 281.308 338.836 281.308 335.945C281.308 333.039 280.792 330.844 279.761 329.359C278.745 327.859 277.245 327.109 275.261 327.109ZM309.093 349L307.992 345.391H307.804C306.554 346.969 305.296 348.047 304.031 348.625C302.765 349.188 301.14 349.469 299.156 349.469C296.609 349.469 294.617 348.781 293.179 347.406C291.757 346.031 291.046 344.086 291.046 341.57C291.046 338.898 292.038 336.883 294.023 335.523C296.007 334.164 299.031 333.422 303.093 333.297L307.57 333.156V331.773C307.57 330.117 307.179 328.883 306.398 328.07C305.632 327.242 304.437 326.828 302.812 326.828C301.484 326.828 300.21 327.023 298.992 327.414C297.773 327.805 296.601 328.266 295.476 328.797L293.695 324.859C295.101 324.125 296.64 323.57 298.312 323.195C299.984 322.805 301.562 322.609 303.046 322.609C306.343 322.609 308.827 323.328 310.499 324.766C312.187 326.203 313.031 328.461 313.031 331.539V349H309.093ZM300.89 345.25C302.89 345.25 304.492 344.695 305.695 343.586C306.913 342.461 307.523 340.891 307.523 338.875V336.625L304.195 336.766C301.601 336.859 299.71 337.297 298.523 338.078C297.351 338.844 296.765 340.023 296.765 341.617C296.765 342.773 297.109 343.672 297.796 344.312C298.484 344.938 299.515 345.25 300.89 345.25ZM343.043 349H337.512V333.062C337.512 331.062 337.105 329.57 336.293 328.586C335.496 327.602 334.223 327.109 332.473 327.109C330.144 327.109 328.441 327.797 327.363 329.172C326.285 330.547 325.746 332.852 325.746 336.086V349H320.238V323.078H324.551L325.324 326.477H325.605C326.387 325.242 327.496 324.289 328.933 323.617C330.371 322.945 331.965 322.609 333.715 322.609C339.933 322.609 343.043 325.773 343.043 332.102V349Z" fill="white"/>
</svg>
