<svg width="24" height="24" viewBox="0 0 24 24" fill="none" xmlns="http://www.w3.org/2000/svg">
<g clip-path="url(#clip0)">
<path fill-rule="evenodd" clip-rule="evenodd" d="M18.2727 5.72729L18.2727 18.2727L5.72729 18.2727V5.72729H18.2727ZM5.72729 4.72729C5.17501 4.72729 4.72729 5.17501 4.72729 5.7273V18.2727C4.72729 18.825 5.17501 19.2727 5.7273 19.2727H18.2727C18.825 19.2727 19.2727 18.825 19.2727 18.2727V5.72729C19.2727 5.17501 18.825 4.72729 18.2727 4.72729H5.72729Z" fill="#343061"/>
<path fill-rule="evenodd" clip-rule="evenodd" d="M8.5 2C8.22386 2 8 2.22386 8 2.5V4.72729H9V2.5C9 2.22386 8.77614 2 8.5 2ZM11.5 4.72729H12.5V2.5C12.5 2.22386 12.2761 2 12 2C11.7239 2 11.5 2.22386 11.5 2.5V4.72729ZM15 4.72729H16V2.5C16 2.22386 15.7761 2 15.5 2C15.2239 2 15 2.22386 15 2.5V4.72729ZM19.2727 8V9H21.5C21.7761 9 22 8.77614 22 8.5C22 8.22386 21.7761 8 21.5 8H19.2727ZM19.2727 11.5V12.5H21.5C21.7761 12.5 22 12.2761 22 12C22 11.7239 21.7761 11.5 21.5 11.5H19.2727ZM19.2727 15V16H21.5C21.7761 16 22 15.7761 22 15.5C22 15.2239 21.7761 15 21.5 15H19.2727ZM16 19.2727H15V21.5C15 21.7761 15.2239 22 15.5 22C15.7761 22 16 21.7761 16 21.5V19.2727ZM12.5 19.2727H11.5V21.5C11.5 21.7761 11.7239 22 12 22C12.2761 22 12.5 21.7761 12.5 21.5V19.2727ZM9 19.2727H8V21.5C8 21.7761 8.22386 22 8.5 22C8.77614 22 9 21.7761 9 21.5V19.2727ZM4.72729 16V15H2.5C2.22386 15 2 15.2239 2 15.5C2 15.7761 2.22386 16 2.5 16H4.72729ZM4.72729 12.5V11.5H2.5C2.22386 11.5 2 11.7239 2 12C2 12.2761 2.22386 12.5 2.5 12.5H4.72729ZM4.72729 9V8H2.5C2.22386 8 2 8.22386 2 8.5C2 8.77614 2.22386 9 2.5 9H4.72729Z" fill="#343061"/>
<path d="M9.77778 12.2778C9.77778 11.8175 10.1509 11.4444 10.6111 11.4444C11.0713 11.4444 11.4444 11.8175 11.4444 12.2778V17.1144H9.77778V12.2778Z" fill="#343061"/>
<path d="M7 14.5C7 14.0398 7.3731 13.6667 7.83333 13.6667C8.29357 13.6667 8.66667 14.0398 8.66667 14.5V17.1067H7V14.5Z" fill="#343061"/>
<path d="M12.5556 12.8333C12.5556 12.3731 12.9287 12 13.3889 12C13.8491 12 14.2222 12.3731 14.2222 12.8333V17.11H12.5556V12.8333Z" fill="#343061"/>
<path d="M15.3333 10.6111C15.3333 10.1509 15.7064 9.77778 16.1667 9.77778C16.6269 9.77778 17 10.1509 17 10.6111V17.1078H15.3333V10.6111Z" fill="#343061"/>
<path fill-rule="evenodd" clip-rule="evenodd" d="M16.1667 8.66667C16.6269 8.66667 17 8.29357 17 7.83333C17 7.3731 16.6269 7 16.1667 7C15.7064 7 15.3333 7.3731 15.3333 7.83333C15.3333 7.94226 15.3542 8.04631 15.3922 8.14169L13.9142 9.4086C13.7708 9.29207 13.588 9.22222 13.3889 9.22222C13.065 9.22222 12.7842 9.40704 12.6463 9.67699L11.4109 9.26518C11.3095 8.91928 10.9898 8.66667 10.6111 8.66667C10.1509 8.66667 9.77778 9.03976 9.77778 9.5C9.77778 9.53871 9.78042 9.5768 9.78553 9.61411L8.19959 10.9735C8.08905 10.9193 7.96474 10.8889 7.83333 10.8889C7.3731 10.8889 7 11.262 7 11.7222C7 12.1825 7.3731 12.5556 7.83333 12.5556C8.29357 12.5556 8.66667 12.1825 8.66667 11.7222C8.66667 11.6133 8.64577 11.5092 8.60776 11.4139L10.0858 10.147C10.2292 10.2635 10.412 10.3333 10.6111 10.3333C10.935 10.3333 11.2158 10.1485 11.3537 9.87857L12.5891 10.2904C12.6905 10.6363 13.0102 10.8889 13.3889 10.8889C13.8491 10.8889 14.2222 10.5158 14.2222 10.0556C14.2222 10.0168 14.2196 9.97875 14.2145 9.94145L15.8004 8.58207C15.911 8.63625 16.0353 8.66667 16.1667 8.66667Z" fill="#343061"/>
</g>
<defs>
<clipPath id="clip0">
<rect width="24" height="24" fill="white"/>
</clipPath>
</defs>
</svg>
