<svg width="24" height="24" viewBox="0 0 24 24" fill="none" xmlns="http://www.w3.org/2000/svg">
<g clip-path="url(#clip0)">
<path fill-rule="evenodd" clip-rule="evenodd" d="M15.9413 15.1463C14.8508 17.0815 13.4446 18.9876 12 20.5556C10.5554 18.9876 9.14916 17.0815 8.05871 15.1463C6.77613 12.8702 6 10.6765 6 9C6 5.68629 8.68629 3 12 3C15.3137 3 18 5.68629 18 9C18 10.6765 17.2239 12.8702 15.9413 15.1463ZM12.6932 21.279C15.9475 17.7628 19 12.6104 19 9C19 5.13401 15.866 2 12 2C8.13401 2 5 5.13401 5 9C5 12.6104 8.05251 17.7628 11.3068 21.279C11.5372 21.5279 11.7686 21.7686 12 22C12.2314 21.7686 12.4628 21.5279 12.6932 21.279Z" fill="#343061"/>
<path fill-rule="evenodd" clip-rule="evenodd" d="M12 14C14.7614 14 17 11.7614 17 9C17 6.23858 14.7614 4 12 4C9.23858 4 7 6.23858 7 9C7 11.7614 9.23858 14 12 14ZM9.5 10.9167C8.58083 10.9167 7.83333 10.1692 7.83333 9.25001C7.83376 8.88051 7.95675 8.5216 8.18303 8.2295C8.4093 7.93739 8.72609 7.7286 9.08375 7.63584L9.08333 7.58334C9.08333 6.20459 10.2046 5.08334 11.5833 5.08334C12.101 5.08248 12.6061 5.2432 13.0281 5.54309C13.4501 5.84297 13.768 6.26707 13.9375 6.75626C15.1633 6.65376 16.1667 7.63667 16.1667 8.83334C16.1667 9.98209 15.2321 10.9167 14.0833 10.9167H9.5ZM8.66666 9.25001C8.66666 9.70959 9.04041 10.0833 9.5 10.0833H14.0833C14.7725 10.0833 15.3333 9.52251 15.3333 8.83334C15.3333 8.14417 14.7725 7.58334 14.0833 7.58334C13.9821 7.58334 13.875 7.60042 13.7458 7.63751L13.2979 7.76542L13.2204 7.30584C13.1567 6.9177 12.9571 6.56485 12.6572 6.31036C12.3573 6.05587 11.9767 5.91633 11.5833 5.91667C11.3359 5.91691 11.0915 5.9722 10.8681 6.07854C10.6446 6.18488 10.4476 6.3396 10.2913 6.5315C10.135 6.72339 10.0234 6.94765 9.96451 7.18802C9.90562 7.42839 9.90095 7.67886 9.95083 7.92126L10.0525 8.42084L9.46041 8.41417C9.04041 8.41667 8.66666 8.79042 8.66666 9.25001Z" fill="#343061"/>
</g>
<defs>
<clipPath id="clip0">
<rect width="24" height="24" fill="white"/>
</clipPath>
</defs>
</svg>
