<svg width="24" height="24" viewBox="0 0 24 24" fill="none" xmlns="http://www.w3.org/2000/svg">
<g clip-path="url(#clip0)">
<path d="M10 12C10 11.7239 10.2239 11.5 10.5 11.5H16.5C16.7761 11.5 17 11.7239 17 12C17 12.2761 16.7761 12.5 16.5 12.5H10.5C10.2239 12.5 10 12.2761 10 12Z" fill="#343061"/>
<path d="M9 12C9 12.5523 8.55228 13 8 13C7.44772 13 7 12.5523 7 12C7 11.4477 7.44772 11 8 11C8.55228 11 9 11.4477 9 12Z" fill="#343061"/>
<path d="M10 16C10 15.7239 10.2239 15.5 10.5 15.5H16.5C16.7761 15.5 17 15.7239 17 16C17 16.2761 16.7761 16.5 16.5 16.5H10.5C10.2239 16.5 10 16.2761 10 16Z" fill="#343061"/>
<path d="M9 16C9 16.5523 8.55228 17 8 17C7.44772 17 7 16.5523 7 16C7 15.4477 7.44772 15 8 15C8.55228 15 9 15.4477 9 16Z" fill="#343061"/>
<path d="M10 8C10 7.72386 10.2239 7.5 10.5 7.5H16.5C16.7761 7.5 17 7.72386 17 8C17 8.27614 16.7761 8.5 16.5 8.5H10.5C10.2239 8.5 10 8.27614 10 8Z" fill="#343061"/>
<path d="M9 8C9 8.55228 8.55228 9 8 9C7.44772 9 7 8.55228 7 8C7 7.44772 7.44772 7 8 7C8.55228 7 9 7.44772 9 8Z" fill="#343061"/>
<path fill-rule="evenodd" clip-rule="evenodd" d="M18.2727 5.72729L18.2727 18.2727L5.72729 18.2727V5.72729H18.2727ZM5.72729 4.72729C5.17501 4.72729 4.72729 5.17501 4.72729 5.7273V18.2727C4.72729 18.825 5.17501 19.2727 5.7273 19.2727H18.2727C18.825 19.2727 19.2727 18.825 19.2727 18.2727V5.72729C19.2727 5.17501 18.825 4.72729 18.2727 4.72729H5.72729Z" fill="#343061"/>
<path fill-rule="evenodd" clip-rule="evenodd" d="M8.5 2C8.22386 2 8 2.22386 8 2.5V4.72729H9V2.5C9 2.22386 8.77614 2 8.5 2ZM11.5 4.72729H12.5V2.5C12.5 2.22386 12.2761 2 12 2C11.7239 2 11.5 2.22386 11.5 2.5V4.72729ZM15 4.72729H16V2.5C16 2.22386 15.7761 2 15.5 2C15.2239 2 15 2.22386 15 2.5V4.72729ZM19.2727 8V9H21.5C21.7761 9 22 8.77614 22 8.5C22 8.22386 21.7761 8 21.5 8H19.2727ZM19.2727 11.5V12.5H21.5C21.7761 12.5 22 12.2761 22 12C22 11.7239 21.7761 11.5 21.5 11.5H19.2727ZM19.2727 15V16H21.5C21.7761 16 22 15.7761 22 15.5C22 15.2239 21.7761 15 21.5 15H19.2727ZM16 19.2727H15V21.5C15 21.7761 15.2239 22 15.5 22C15.7761 22 16 21.7761 16 21.5V19.2727ZM12.5 19.2727H11.5V21.5C11.5 21.7761 11.7239 22 12 22C12.2761 22 12.5 21.7761 12.5 21.5V19.2727ZM9 19.2727H8V21.5C8 21.7761 8.22386 22 8.5 22C8.77614 22 9 21.7761 9 21.5V19.2727ZM4.72729 16V15H2.5C2.22386 15 2 15.2239 2 15.5C2 15.7761 2.22386 16 2.5 16H4.72729ZM4.72729 12.5V11.5H2.5C2.22386 11.5 2 11.7239 2 12C2 12.2761 2.22386 12.5 2.5 12.5H4.72729ZM4.72729 9V8H2.5C2.22386 8 2 8.22386 2 8.5C2 8.77614 2.22386 9 2.5 9H4.72729Z" fill="#343061"/>
</g>
<defs>
<clipPath id="clip0">
<rect width="24" height="24" fill="white"/>
</clipPath>
</defs>
</svg>
