<svg width="24" height="24" viewBox="0 0 24 24" fill="none" xmlns="http://www.w3.org/2000/svg">
<g clip-path="url(#clip0)">
<path fill-rule="evenodd" clip-rule="evenodd" d="M7 16.5V7H8V16H17V17H7.5C7.22386 17 7 16.7761 7 16.5Z" fill="#343061"/>
<path d="M9.00002 14.25C9.00002 13.8358 9.33581 13.5 9.75002 13.5C10.1642 13.5 10.5 13.8358 10.5 14.25V15.5H9.00002V14.25Z" fill="#343061"/>
<path d="M12 13.25C12 12.8358 12.3358 12.5 12.75 12.5C13.1642 12.5 13.5 12.8358 13.5 13.25V15.5H12V13.25Z" fill="#343061"/>
<path d="M15 11.75C15 11.3358 15.3358 11 15.75 11C16.1642 11 16.5 11.3358 16.5 11.75V15.5H15V11.75Z" fill="#343061"/>
<path d="M15.5019 8.25781L15.9394 7.15625H16.5508L15.9219 8.55078H16.3476V8.89258H15.7851V9.11719H16.3476V9.45703H15.7851V10H15.1992V9.45703H14.6016V9.11719H15.1992V8.89258H14.6016V8.55078H15.0781L14.4473 7.15625H15.0625L15.5019 8.25781Z" fill="#343061"/>
<path fill-rule="evenodd" clip-rule="evenodd" d="M12.1383 9.24378C12.169 9.10915 12.303 9.02485 12.4376 9.05549L13.9002 9.38836C14.0348 9.419 14.1191 9.55297 14.0885 9.6876L13.7556 11.1502C13.725 11.2848 13.591 11.3691 13.4564 11.3385C13.3217 11.3079 13.2374 11.1739 13.2681 11.0392L13.4536 10.2241L9.38037 12.7133L9.11965 12.2867L13.2612 9.75573L12.3266 9.54303C12.192 9.51239 12.1077 9.37841 12.1383 9.24378Z" fill="#343061"/>
<path fill-rule="evenodd" clip-rule="evenodd" d="M18.2727 5.72729L18.2727 18.2727L5.72729 18.2727V5.72729H18.2727ZM5.72729 4.72729C5.17501 4.72729 4.72729 5.17501 4.72729 5.7273V18.2727C4.72729 18.825 5.17501 19.2727 5.7273 19.2727H18.2727C18.825 19.2727 19.2727 18.825 19.2727 18.2727V5.72729C19.2727 5.17501 18.825 4.72729 18.2727 4.72729H5.72729Z" fill="#343061"/>
<path fill-rule="evenodd" clip-rule="evenodd" d="M8.5 2C8.22386 2 8 2.22386 8 2.5V4.72729H9V2.5C9 2.22386 8.77614 2 8.5 2ZM11.5 4.72729H12.5V2.5C12.5 2.22386 12.2761 2 12 2C11.7239 2 11.5 2.22386 11.5 2.5V4.72729ZM15 4.72729H16V2.5C16 2.22386 15.7761 2 15.5 2C15.2239 2 15 2.22386 15 2.5V4.72729ZM19.2727 8V9H21.5C21.7761 9 22 8.77614 22 8.5C22 8.22386 21.7761 8 21.5 8H19.2727ZM19.2727 11.5V12.5H21.5C21.7761 12.5 22 12.2761 22 12C22 11.7239 21.7761 11.5 21.5 11.5H19.2727ZM19.2727 15V16H21.5C21.7761 16 22 15.7761 22 15.5C22 15.2239 21.7761 15 21.5 15H19.2727ZM16 19.2727H15V21.5C15 21.7761 15.2239 22 15.5 22C15.7761 22 16 21.7761 16 21.5V19.2727ZM12.5 19.2727H11.5V21.5C11.5 21.7761 11.7239 22 12 22C12.2761 22 12.5 21.7761 12.5 21.5V19.2727ZM9 19.2727H8V21.5C8 21.7761 8.22386 22 8.5 22C8.77614 22 9 21.7761 9 21.5V19.2727ZM4.72729 16V15H2.5C2.22386 15 2 15.2239 2 15.5C2 15.7761 2.22386 16 2.5 16H4.72729ZM4.72729 12.5V11.5H2.5C2.22386 11.5 2 11.7239 2 12C2 12.2761 2.22386 12.5 2.5 12.5H4.72729ZM4.72729 9V8H2.5C2.22386 8 2 8.22386 2 8.5C2 8.77614 2.22386 9 2.5 9H4.72729Z" fill="#343061"/>
</g>
<defs>
<clipPath id="clip0">
<rect width="24" height="24" fill="white"/>
</clipPath>
</defs>
</svg>
