<svg width="24" height="24" viewBox="0 0 24 24" fill="none" xmlns="http://www.w3.org/2000/svg">
<g clip-path="url(#clip0)">
<path fill-rule="evenodd" clip-rule="evenodd" d="M14.5438 8.88619L12.6408 16.4982C12.4742 17.1646 11.5475 17.2174 11.3063 16.5742L9.02773 10.4979L8.51993 12.0214C8.42465 12.3072 8.15715 12.5 7.85585 12.5H6.5V11.5H7.63962L8.34701 9.37782C8.55562 8.752 9.4349 8.73573 9.66652 9.35339L11.9044 15.321L13.8384 7.5847C14.011 6.89452 14.9836 6.87191 15.188 7.55333L16.372 11.5H17.5V12.5H16.1488C15.8397 12.5 15.5672 12.2972 15.4783 12.0011L14.5438 8.88619Z" fill="#343061"/>
<path fill-rule="evenodd" clip-rule="evenodd" d="M18.2727 5.72729L18.2727 18.2727L5.72729 18.2727V5.72729H18.2727ZM5.72729 4.72729C5.17501 4.72729 4.72729 5.17501 4.72729 5.7273V18.2727C4.72729 18.825 5.17501 19.2727 5.7273 19.2727H18.2727C18.825 19.2727 19.2727 18.825 19.2727 18.2727V5.72729C19.2727 5.17501 18.825 4.72729 18.2727 4.72729H5.72729Z" fill="#343061"/>
<path fill-rule="evenodd" clip-rule="evenodd" d="M8.5 2C8.22386 2 8 2.22386 8 2.5V4.72729H9V2.5C9 2.22386 8.77614 2 8.5 2ZM11.5 4.72729H12.5V2.5C12.5 2.22386 12.2761 2 12 2C11.7239 2 11.5 2.22386 11.5 2.5V4.72729ZM15 4.72729H16V2.5C16 2.22386 15.7761 2 15.5 2C15.2239 2 15 2.22386 15 2.5V4.72729ZM19.2727 8V9H21.5C21.7761 9 22 8.77614 22 8.5C22 8.22386 21.7761 8 21.5 8H19.2727ZM19.2727 11.5V12.5H21.5C21.7761 12.5 22 12.2761 22 12C22 11.7239 21.7761 11.5 21.5 11.5H19.2727ZM19.2727 15V16H21.5C21.7761 16 22 15.7761 22 15.5C22 15.2239 21.7761 15 21.5 15H19.2727ZM16 19.2727H15V21.5C15 21.7761 15.2239 22 15.5 22C15.7761 22 16 21.7761 16 21.5V19.2727ZM12.5 19.2727H11.5V21.5C11.5 21.7761 11.7239 22 12 22C12.2761 22 12.5 21.7761 12.5 21.5V19.2727ZM9 19.2727H8V21.5C8 21.7761 8.22386 22 8.5 22C8.77614 22 9 21.7761 9 21.5V19.2727ZM4.72729 16V15H2.5C2.22386 15 2 15.2239 2 15.5C2 15.7761 2.22386 16 2.5 16H4.72729ZM4.72729 12.5V11.5H2.5C2.22386 11.5 2 11.7239 2 12C2 12.2761 2.22386 12.5 2.5 12.5H4.72729ZM4.72729 9V8H2.5C2.22386 8 2 8.22386 2 8.5C2 8.77614 2.22386 9 2.5 9H4.72729Z" fill="#343061"/>
</g>
<defs>
<clipPath id="clip0">
<rect width="24" height="24" fill="white"/>
</clipPath>
</defs>
</svg>
