<svg width="24" height="24" viewBox="0 0 24 24" fill="none" xmlns="http://www.w3.org/2000/svg">
<g clip-path="url(#clip0)">
<path fill-rule="evenodd" clip-rule="evenodd" d="M7.46967 12.1768C7.76256 12.4697 8.23744 12.4697 8.53033 12.1768L9.85355 10.8536L9.14645 10.1464L8 11.2929L6.85355 10.1464L6.14645 10.8536L7.46967 12.1768Z" fill="#343061"/>
<path fill-rule="evenodd" clip-rule="evenodd" d="M15.4697 10.8232C15.7626 10.5303 16.2374 10.5303 16.5303 10.8232L17.8536 12.1464L17.1464 12.8536L16 11.7071L14.8536 12.8536L14.1464 12.1464L15.4697 10.8232Z" fill="#343061"/>
<path fill-rule="evenodd" clip-rule="evenodd" d="M18.2727 5.72729L18.2727 18.2727L5.72729 18.2727V5.72729H18.2727ZM5.72729 4.72729C5.17501 4.72729 4.72729 5.17501 4.72729 5.7273V18.2727C4.72729 18.825 5.17501 19.2727 5.7273 19.2727H18.2727C18.825 19.2727 19.2727 18.825 19.2727 18.2727V5.72729C19.2727 5.17501 18.825 4.72729 18.2727 4.72729H5.72729Z" fill="#343061"/>
<path fill-rule="evenodd" clip-rule="evenodd" d="M8.5 2C8.22386 2 8 2.22386 8 2.5V4.72729H9V2.5C9 2.22386 8.77614 2 8.5 2ZM11.5 4.72729H12.5V2.5C12.5 2.22386 12.2761 2 12 2C11.7239 2 11.5 2.22386 11.5 2.5V4.72729ZM15 4.72729H16V2.5C16 2.22386 15.7761 2 15.5 2C15.2239 2 15 2.22386 15 2.5V4.72729ZM19.2727 8V9H21.5C21.7761 9 22 8.77614 22 8.5C22 8.22386 21.7761 8 21.5 8H19.2727ZM19.2727 11.5V12.5H21.5C21.7761 12.5 22 12.2761 22 12C22 11.7239 21.7761 11.5 21.5 11.5H19.2727ZM19.2727 15V16H21.5C21.7761 16 22 15.7761 22 15.5C22 15.2239 21.7761 15 21.5 15H19.2727ZM16 19.2727H15V21.5C15 21.7761 15.2239 22 15.5 22C15.7761 22 16 21.7761 16 21.5V19.2727ZM12.5 19.2727H11.5V21.5C11.5 21.7761 11.7239 22 12 22C12.2761 22 12.5 21.7761 12.5 21.5V19.2727ZM9 19.2727H8V21.5C8 21.7761 8.22386 22 8.5 22C8.77614 22 9 21.7761 9 21.5V19.2727ZM4.72729 16V15H2.5C2.22386 15 2 15.2239 2 15.5C2 15.7761 2.22386 16 2.5 16H4.72729ZM4.72729 12.5V11.5H2.5C2.22386 11.5 2 11.7239 2 12C2 12.2761 2.22386 12.5 2.5 12.5H4.72729ZM4.72729 9V8H2.5C2.22386 8 2 8.22386 2 8.5C2 8.77614 2.22386 9 2.5 9H4.72729Z" fill="#343061"/>
<path fill-rule="evenodd" clip-rule="evenodd" d="M11.9996 15.189C13.9848 15.189 15.5941 13.5797 15.5941 11.5945C15.5941 11.5629 15.5937 11.5314 15.5929 11.5H16.5932C16.5938 11.5314 16.5941 11.5629 16.5941 11.5945C16.5941 14.132 14.5371 16.189 11.9996 16.189C9.95235 16.189 8.21783 14.85 7.62405 13H8.69026C9.23744 14.2868 10.5132 15.189 11.9996 15.189ZM16.3099 10C15.6617 8.24849 13.9765 7 11.9996 7C9.49371 7 7.45637 9.00615 7.40605 11.5H8.40632C8.45643 9.55849 10.046 8 11.9996 8C13.4122 8 14.6344 8.81478 15.222 10H16.3099Z" fill="#343061"/>
</g>
<defs>
<clipPath id="clip0">
<rect width="24" height="24" fill="white"/>
</clipPath>
</defs>
</svg>
