<svg width="24" height="24" viewBox="0 0 24 24" fill="none" xmlns="http://www.w3.org/2000/svg">
<g clip-path="url(#clip0)">
<path fill-rule="evenodd" clip-rule="evenodd" d="M16 9V14H15.4599C14.8761 14 14.3214 14.2551 13.9414 14.6984L13.5 15.2134L13.0586 14.6984C12.6786 14.2551 12.1239 14 11.5401 14H8V9H16ZM8 8C7.44772 8 7 8.44772 7 9V14C7 14.5523 7.44772 15 8 15H11.5401C11.832 15 12.1093 15.1276 12.2993 15.3492L12.7407 15.8642C13.1398 16.3298 13.8602 16.3298 14.2593 15.8642L14.7007 15.3492C14.8907 15.1276 15.168 15 15.4599 15H16C16.5523 15 17 14.5523 17 14V9C17 8.44772 16.5523 8 16 8H8Z" fill="#343061"/>
<path d="M10.5 11.5C10.5 11.7761 10.2761 12 10 12C9.72386 12 9.5 11.7761 9.5 11.5C9.5 11.2239 9.72386 11 10 11C10.2761 11 10.5 11.2239 10.5 11.5Z" fill="#343061"/>
<path d="M12.5 11.5C12.5 11.7761 12.2761 12 12 12C11.7239 12 11.5 11.7761 11.5 11.5C11.5 11.2239 11.7239 11 12 11C12.2761 11 12.5 11.2239 12.5 11.5Z" fill="#343061"/>
<path d="M14.5 11.5C14.5 11.7761 14.2761 12 14 12C13.7239 12 13.5 11.7761 13.5 11.5C13.5 11.2239 13.7239 11 14 11C14.2761 11 14.5 11.2239 14.5 11.5Z" fill="#343061"/>
<path fill-rule="evenodd" clip-rule="evenodd" d="M18.2727 5.72729L18.2727 18.2727L5.72729 18.2727V5.72729H18.2727ZM5.72729 4.72729C5.17501 4.72729 4.72729 5.17501 4.72729 5.7273V18.2727C4.72729 18.825 5.17501 19.2727 5.7273 19.2727H18.2727C18.825 19.2727 19.2727 18.825 19.2727 18.2727V5.72729C19.2727 5.17501 18.825 4.72729 18.2727 4.72729H5.72729Z" fill="#343061"/>
<path fill-rule="evenodd" clip-rule="evenodd" d="M8.5 2C8.22386 2 8 2.22386 8 2.5V4.72729H9V2.5C9 2.22386 8.77614 2 8.5 2ZM11.5 4.72729H12.5V2.5C12.5 2.22386 12.2761 2 12 2C11.7239 2 11.5 2.22386 11.5 2.5V4.72729ZM15 4.72729H16V2.5C16 2.22386 15.7761 2 15.5 2C15.2239 2 15 2.22386 15 2.5V4.72729ZM19.2727 8V9H21.5C21.7761 9 22 8.77614 22 8.5C22 8.22386 21.7761 8 21.5 8H19.2727ZM19.2727 11.5V12.5H21.5C21.7761 12.5 22 12.2761 22 12C22 11.7239 21.7761 11.5 21.5 11.5H19.2727ZM19.2727 15V16H21.5C21.7761 16 22 15.7761 22 15.5C22 15.2239 21.7761 15 21.5 15H19.2727ZM16 19.2727H15V21.5C15 21.7761 15.2239 22 15.5 22C15.7761 22 16 21.7761 16 21.5V19.2727ZM12.5 19.2727H11.5V21.5C11.5 21.7761 11.7239 22 12 22C12.2761 22 12.5 21.7761 12.5 21.5V19.2727ZM9 19.2727H8V21.5C8 21.7761 8.22386 22 8.5 22C8.77614 22 9 21.7761 9 21.5V19.2727ZM4.72729 16V15H2.5C2.22386 15 2 15.2239 2 15.5C2 15.7761 2.22386 16 2.5 16H4.72729ZM4.72729 12.5V11.5H2.5C2.22386 11.5 2 11.7239 2 12C2 12.2761 2.22386 12.5 2.5 12.5H4.72729ZM4.72729 9V8H2.5C2.22386 8 2 8.22386 2 8.5C2 8.77614 2.22386 9 2.5 9H4.72729Z" fill="#343061"/>
</g>
<defs>
<clipPath id="clip0">
<rect width="24" height="24" fill="white"/>
</clipPath>
</defs>
</svg>
