<svg width="24" height="24" viewBox="0 0 24 24" fill="none" xmlns="http://www.w3.org/2000/svg">
<g clip-path="url(#clip0)">
<path fill-rule="evenodd" clip-rule="evenodd" d="M18.2727 5.72729L18.2727 18.2727L5.72729 18.2727V5.72729H18.2727ZM5.72729 4.72729C5.17501 4.72729 4.72729 5.17501 4.72729 5.7273V18.2727C4.72729 18.825 5.17501 19.2727 5.7273 19.2727H18.2727C18.825 19.2727 19.2727 18.825 19.2727 18.2727V5.72729C19.2727 5.17501 18.825 4.72729 18.2727 4.72729H5.72729Z" fill="#343061"/>
<path fill-rule="evenodd" clip-rule="evenodd" d="M8.5 2C8.22386 2 8 2.22386 8 2.5V4.72729H9V2.5C9 2.22386 8.77614 2 8.5 2ZM11.5 4.72729H12.5V2.5C12.5 2.22386 12.2761 2 12 2C11.7239 2 11.5 2.22386 11.5 2.5V4.72729ZM15 4.72729H16V2.5C16 2.22386 15.7761 2 15.5 2C15.2239 2 15 2.22386 15 2.5V4.72729ZM19.2727 8V9H21.5C21.7761 9 22 8.77614 22 8.5C22 8.22386 21.7761 8 21.5 8H19.2727ZM19.2727 11.5V12.5H21.5C21.7761 12.5 22 12.2761 22 12C22 11.7239 21.7761 11.5 21.5 11.5H19.2727ZM19.2727 15V16H21.5C21.7761 16 22 15.7761 22 15.5C22 15.2239 21.7761 15 21.5 15H19.2727ZM16 19.2727H15V21.5C15 21.7761 15.2239 22 15.5 22C15.7761 22 16 21.7761 16 21.5V19.2727ZM12.5 19.2727H11.5V21.5C11.5 21.7761 11.7239 22 12 22C12.2761 22 12.5 21.7761 12.5 21.5V19.2727ZM9 19.2727H8V21.5C8 21.7761 8.22386 22 8.5 22C8.77614 22 9 21.7761 9 21.5V19.2727ZM4.72729 16V15H2.5C2.22386 15 2 15.2239 2 15.5C2 15.7761 2.22386 16 2.5 16H4.72729ZM4.72729 12.5V11.5H2.5C2.22386 11.5 2 11.7239 2 12C2 12.2761 2.22386 12.5 2.5 12.5H4.72729ZM4.72729 9V8H2.5C2.22386 8 2 8.22386 2 8.5C2 8.77614 2.22386 9 2.5 9H4.72729Z" fill="#343061"/>
<path fill-rule="evenodd" clip-rule="evenodd" d="M10.9997 8.28343C10.9409 8.15109 10.7822 8.09625 10.6543 8.16402L8.176 9.47603C8.05986 9.53752 8.01115 9.67842 8.06452 9.79851L8.35908 10.4613L11.2803 8.91477L10.9997 8.28343ZM12 8.6875L12.315 7.97882C12.5502 7.44945 13.1847 7.23013 13.6967 7.50117L16.1749 8.81319C16.6395 9.05913 16.8343 9.62277 16.6208 10.1031L16.1667 11.125L16.6208 12.1469C16.8343 12.6272 16.6395 13.1909 16.1749 13.4368L13.6967 14.7488C13.1847 15.0199 12.5502 14.8005 12.315 14.2712L12 13.5625L11.685 14.2712C11.4498 14.8005 10.8153 15.0199 10.3033 14.7488L7.82509 13.4368C7.36052 13.1909 7.16568 12.6272 7.37916 12.1469L7.83333 11.125L7.37916 10.1031C7.16568 9.62277 7.36052 9.05913 7.82509 8.81319L10.3033 7.50117C10.8153 7.23013 11.4498 7.44945 11.685 7.97882L12 8.6875ZM15.2917 11.125L12 9.38235L8.70833 11.125L12 12.8676L15.2917 11.125ZM13.0003 13.9666C13.0591 14.0989 13.2178 14.1537 13.3457 14.086L15.824 12.774C15.9401 12.7125 15.9889 12.5716 15.9355 12.4515L15.6409 11.7887L12.7197 13.3352L13.0003 13.9666ZM11.2803 13.3352L8.35908 11.7887L8.06452 12.4515C8.01115 12.5716 8.05986 12.7125 8.176 12.774L10.6543 14.086C10.7822 14.1537 10.9409 14.0989 10.9997 13.9666L11.2803 13.3352ZM13.0003 8.28343L12.7197 8.91477L15.6409 10.4613L15.9355 9.79851C15.9889 9.67842 15.9401 9.53752 15.824 9.47603L13.3457 8.16402C13.2178 8.09625 13.0591 8.15109 13.0003 8.28343Z" fill="#343061"/>
<path fill-rule="evenodd" clip-rule="evenodd" d="M12.315 14.2712L12 13.5625L11.685 14.2712C11.6379 14.3771 11.5749 14.4706 11.5 14.5503V15.8365L8.87859 14.3801C8.79922 14.336 8.75 14.2524 8.75 14.1616V13.9265L8 13.5294V14.1616C8 14.5248 8.19689 14.8594 8.51436 15.0358L11.7559 16.8366C11.7615 16.8397 11.7671 16.8427 11.7727 16.8456C11.9252 16.9238 12.0919 16.9149 12.2272 16.8457C12.2329 16.8428 12.2385 16.8397 12.2441 16.8366L15.4856 15.0358C15.8031 14.8594 16 14.5248 16 14.1616V13.5294L15.25 13.9265V14.1616C15.25 14.2524 15.2008 14.336 15.1214 14.3801L12.5 15.8365V14.5503C12.4251 14.4706 12.362 14.3771 12.315 14.2712Z" fill="#343061"/>
</g>
<defs>
<clipPath id="clip0">
<rect width="24" height="24" fill="white"/>
</clipPath>
</defs>
</svg>
