<svg width="24" height="24" viewBox="0 0 24 24" fill="none" xmlns="http://www.w3.org/2000/svg">
<g clip-path="url(#clip0)">
<rect width="24" height="24" fill="white"/>
<path fill-rule="evenodd" clip-rule="evenodd" d="M21 11V20C21 20.5523 20.5523 21 20 21H14V11H21ZM13 10V22H20C21.1046 22 22 21.1046 22 20V10H13Z" fill="#343061"/>
<path fill-rule="evenodd" clip-rule="evenodd" d="M10 3V13H3V4C3 3.44772 3.44772 3 4 3H10ZM4 2C2.89543 2 2 2.89543 2 4V14H11V2H4Z" fill="#343061"/>
<path fill-rule="evenodd" clip-rule="evenodd" d="M10 17V21H4C3.44772 21 3 20.5523 3 20V17H10ZM2 16V20C2 21.1046 2.89543 22 4 22H11V16H2Z" fill="#343061"/>
<path fill-rule="evenodd" clip-rule="evenodd" d="M20 3C20.5523 3 21 3.44772 21 4V7H14V3H20ZM13 2V8H22V4C22 2.89543 21.1046 2 20 2H13Z" fill="#343061"/>
</g>
<defs>
<clipPath id="clip0">
<rect width="24" height="24" fill="white"/>
</clipPath>
</defs>
</svg>
