<svg width="24" height="24" viewBox="0 0 24 24" fill="none" xmlns="http://www.w3.org/2000/svg">
<g clip-path="url(#clip0)">
<rect width="24" height="24" fill="white"/>
<path fill-rule="evenodd" clip-rule="evenodd" d="M2 21V2H4V20H22V22H3C2.44772 22 2 21.5523 2 21Z" fill="#343061"/>
<path d="M6 16.5C6 15.6716 6.67157 15 7.5 15C8.32843 15 9 15.6716 9 16.5V19H6V16.5Z" fill="#343061"/>
<path d="M12 14.5C12 13.6716 12.6716 13 13.5 13C14.3284 13 15 13.6716 15 14.5V19H12V14.5Z" fill="#343061"/>
<path d="M18 11.5C18 10.6716 18.6716 10 19.5 10C20.3284 10 21 10.6716 21 11.5V19H18V11.5Z" fill="#343061"/>
<path d="M19.0039 4.51562L19.8789 2.3125H21.1016L19.8438 5.10156H20.6953V5.78516H19.5703V6.23438H20.6953V6.91406H19.5703V8H18.3984V6.91406H17.2031V6.23438H18.3984V5.78516H17.2031V5.10156H18.1562L16.8945 2.3125H18.125L19.0039 4.51562Z" fill="#343061"/>
<path fill-rule="evenodd" clip-rule="evenodd" d="M12.2767 6.48753C12.338 6.21827 12.6059 6.04967 12.8752 6.11095L15.8004 6.77668C16.0696 6.83796 16.2382 7.10592 16.1769 7.37517L15.5112 10.3004C15.4499 10.5696 15.182 10.7382 14.9127 10.677C14.6435 10.6157 14.4749 10.3477 14.5361 10.0785L14.9072 8.44826L6.76072 13.4266L6.23927 12.5734L14.5224 7.51142L12.6533 7.08602C12.384 7.02474 12.2154 6.75678 12.2767 6.48753Z" fill="#343061"/>
</g>
<defs>
<clipPath id="clip0">
<rect width="24" height="24" fill="white"/>
</clipPath>
</defs>
</svg>
