<svg width="24" height="24" viewBox="0 0 24 24" fill="none" xmlns="http://www.w3.org/2000/svg">
<g clip-path="url(#clip0)">
<rect width="24" height="24" fill="white"/>
<path d="M8 11.5C8 10.6716 8.67157 10 9.5 10C10.3284 10 11 10.6716 11 11.5V22H8V11.5Z" fill="#343061"/>
<path d="M3 15.5C3 14.6716 3.67157 14 4.5 14C5.32843 14 6 14.6716 6 15.5V22H3V15.5Z" fill="#343061"/>
<path d="M13 12.5C13 11.6716 13.6716 11 14.5 11C15.3284 11 16 11.6716 16 12.5V22H13V12.5Z" fill="#343061"/>
<path d="M18 8.5C18 7.67157 18.6716 7 19.5 7C20.3284 7 21 7.67157 21 8.5V22H18V8.5Z" fill="#343061"/>
<path fill-rule="evenodd" clip-rule="evenodd" d="M19.5 5C20.3284 5 21 4.32843 21 3.5C21 2.67157 20.3284 2 19.5 2C18.6716 2 18 2.67157 18 3.5C18 3.71097 18.0436 3.91177 18.1222 4.09389L15.4766 6.36148C15.2142 6.13615 14.873 6 14.5 6C13.9026 6 13.3867 6.34928 13.1455 6.85478L10.9524 6.12376C10.7855 5.47743 10.1985 5 9.5 5C8.67157 5 8 5.67157 8 6.5C8 6.58587 8.00722 6.67005 8.02107 6.75197L5.19785 9.17188C4.9894 9.06212 4.75195 9 4.5 9C3.67157 9 3 9.67157 3 10.5C3 11.3284 3.67157 12 4.5 12C5.32843 12 6 11.3284 6 10.5C6 10.289 5.95645 10.0882 5.87784 9.90611L8.52335 7.63852C8.78578 7.86385 9.12699 8 9.5 8C10.0974 8 10.6133 7.65072 10.8545 7.14522L13.0476 7.87624C13.2145 8.52257 13.8015 9 14.5 9C15.3284 9 16 8.32843 16 7.5C16 7.41413 15.9928 7.32995 15.9789 7.24803L18.8021 4.82812C19.0106 4.93788 19.248 5 19.5 5Z" fill="#343061"/>
</g>
<defs>
<clipPath id="clip0">
<rect width="24" height="24" fill="white"/>
</clipPath>
</defs>
</svg>
