<svg width="24" height="24" viewBox="0 0 24 24" fill="none" xmlns="http://www.w3.org/2000/svg">
<g clip-path="url(#clip0)">
<rect width="24" height="24" fill="white"/>
<path fill-rule="evenodd" clip-rule="evenodd" d="M19.9906 12.3924C19.786 16.6284 16.2867 20 12 20C8.64264 20 5.76831 17.9318 4.58153 15H3.51213C4.74764 18.4956 8.08136 21 12 21C16.846 21 20.7974 17.17 20.9925 12.372L22.6159 14.3201L23.3841 13.6799L21.0762 10.9104C20.7763 10.5506 20.2237 10.5506 19.9239 10.9104L17.6159 13.6799L18.3841 14.3201L19.9906 12.3924ZM12 3C15.9187 3 19.2524 5.50442 20.4879 9H19.4185C18.2317 6.06817 15.3574 4 12 4C7.71329 4 4.21405 7.3716 4.00947 11.6076L5.61591 9.67991L6.38413 10.3201L4.07618 13.0896C3.77634 13.4494 3.2237 13.4494 2.92385 13.0896L0.615906 10.3201L1.38413 9.67991L3.00756 11.628C3.20262 6.82996 7.15405 3 12 3Z" fill="#343061"/>
<path fill-rule="evenodd" clip-rule="evenodd" d="M14.6 8.6C14.6 10.0359 13.4359 11.2 12 11.2C10.5641 11.2 9.4 10.0359 9.4 8.6C9.4 7.16406 10.5641 6 12 6C13.4359 6 14.6 7.16406 14.6 8.6ZM13.6666 11.7918C14.8158 11.1906 15.6 9.98688 15.6 8.6C15.6 6.61177 13.9882 5 12 5C10.0118 5 8.4 6.61177 8.4 8.6C8.4 9.98688 9.18424 11.1906 10.3334 11.7918C7.83053 12.3827 6 14.271 6 16.5091C6 17 8.68629 17 12 17C15.3137 17 18 17 18 16.5091C18 14.271 16.1695 12.3827 13.6666 11.7918ZM16.1862 15.9402C15.1353 15.9996 13.6687 16 12 16C10.3313 16 8.86468 15.9996 7.81378 15.9402C7.51449 15.9233 7.26675 15.9024 7.06849 15.8786C7.44653 14.1385 9.35754 12.6 12 12.6C14.6425 12.6 16.5535 14.1385 16.9315 15.8786C16.7332 15.9024 16.4855 15.9233 16.1862 15.9402Z" fill="#343061"/>
</g>
<defs>
<clipPath id="clip0">
<rect width="24" height="24" fill="white"/>
</clipPath>
</defs>
</svg>
