<svg width="24" height="24" viewBox="0 0 24 24" fill="none" xmlns="http://www.w3.org/2000/svg">
<g clip-path="url(#clip0)">
<rect width="24" height="24" fill="white"/>
<path fill-rule="evenodd" clip-rule="evenodd" d="M19.0001 15C19.0001 16.1046 18.1046 17 17.0001 17C15.8955 17 15.0001 16.1046 15.0001 15C15.0001 13.8954 15.8955 13 17.0001 13C18.1046 13 19.0001 13.8954 19.0001 15ZM18.3888 17.6599C19.3465 17.1588 20.0001 16.1557 20.0001 15C20.0001 13.3431 18.6569 12 17.0001 12C15.3432 12 14.0001 13.3431 14.0001 15C14.0001 16.1557 14.6536 17.1588 15.6113 17.6599C13.5255 18.1523 12 19.7258 12 21.5909C12 22 14.2386 22 17 22C19.7614 22 22 22 22 21.5909C22 19.7259 20.4746 18.1523 18.3888 17.6599ZM17 18.5C19.0526 18.5 20.5141 19.6368 20.8993 20.92C20.7775 20.9312 20.6377 20.9415 20.4791 20.9505C19.6092 20.9996 18.3926 21 17 21C15.6074 21 14.3908 20.9996 13.5209 20.9505C13.3623 20.9415 13.2225 20.9312 13.1007 20.92C13.4859 19.6368 14.9474 18.5 17 18.5Z" fill="#343061"/>
<path fill-rule="evenodd" clip-rule="evenodd" d="M19.0001 5C19.0001 6.10457 18.1046 7 17.0001 7C15.8955 7 15.0001 6.10457 15.0001 5C15.0001 3.89543 15.8955 3 17.0001 3C18.1046 3 19.0001 3.89543 19.0001 5ZM18.3888 7.65989C19.3465 7.15884 20.0001 6.15574 20.0001 5C20.0001 3.34315 18.6569 2 17.0001 2C15.3432 2 14.0001 3.34315 14.0001 5C14.0001 6.15572 14.6536 7.15881 15.6113 7.65986C13.5255 8.15225 12 9.72583 12 11.5909C12 12 14.2386 12 17 12C19.7614 12 22 12 22 11.5909C22 9.72586 20.4746 8.1523 18.3888 7.65989ZM17 8.50001C19.0526 8.50001 20.5141 9.63685 20.8993 10.92C20.7775 10.9312 20.6377 10.9415 20.4791 10.9505C19.6092 10.9996 18.3926 11 17 11C15.6074 11 14.3908 10.9996 13.5209 10.9505C13.3623 10.9415 13.2225 10.9312 13.1007 10.92C13.4859 9.63685 14.9474 8.50001 17 8.50001Z" fill="#343061"/>
<path fill-rule="evenodd" clip-rule="evenodd" d="M10.6001 9.6C10.6001 11.0359 9.43601 12.2 8.00007 12.2C6.56413 12.2 5.40007 11.0359 5.40007 9.6C5.40007 8.16406 6.56413 7 8.00007 7C9.43601 7 10.6001 8.16406 10.6001 9.6ZM9.66661 12.7919C10.8158 12.1906 11.6001 10.9869 11.6001 9.6C11.6001 7.61177 9.9883 6 8.00007 6C6.01185 6 4.40007 7.61177 4.40007 9.6C4.40007 10.9869 5.1843 12.1906 6.3335 12.7918C3.83056 13.3827 2 15.271 2 17.5091C2 18 4.68629 18 8 18C11.3137 18 14 18 14 17.5091C14 15.271 12.1695 13.3828 9.66661 12.7919ZM12.1862 16.9402C11.1353 16.9996 9.6687 17 8 17C6.3313 17 4.86468 16.9996 3.81378 16.9402C3.51449 16.9233 3.26675 16.9024 3.06849 16.8786C3.44653 15.1385 5.35754 13.6 8 13.6C10.6425 13.6 12.5535 15.1385 12.9315 16.8786C12.7332 16.9024 12.4855 16.9233 12.1862 16.9402Z" fill="#343061"/>
</g>
<defs>
<clipPath id="clip0">
<rect width="24" height="24" fill="white"/>
</clipPath>
</defs>
</svg>
