<svg width="24" height="24" viewBox="0 0 24 24" fill="none" xmlns="http://www.w3.org/2000/svg">
<g clip-path="url(#clip0)">
<path fill-rule="evenodd" clip-rule="evenodd" d="M20 5C20.5523 5 21 5.44772 21 6V17C21 17.5523 20.5523 18 20 18H4C3.44772 18 3 17.5523 3 17V6C3 5.44772 3.44772 5 4 5H20ZM4 4C2.89543 4 2 4.89543 2 6V17C2 18.1046 2.89543 19 4 19H20C21.1046 19 22 18.1046 22 17V6C22 4.89543 21.1046 4 20 4H4Z" fill="#343061"/>
<path d="M13 10C13 9.72386 13.2239 9.5 13.5 9.5H18.5C18.7761 9.5 19 9.72386 19 10C19 10.2761 18.7761 10.5 18.5 10.5H13.5C13.2239 10.5 13 10.2761 13 10Z" fill="#343061"/>
<path d="M5 7C5 6.72386 5.22386 6.5 5.5 6.5H18.5C18.7761 6.5 19 6.72386 19 7C19 7.27614 18.7761 7.5 18.5 7.5H5.5C5.22386 7.5 5 7.27614 5 7Z" fill="#343061"/>
<path d="M13 13C13 12.7239 13.2239 12.5 13.5 12.5H18.5C18.7761 12.5 19 12.7239 19 13C19 13.2761 18.7761 13.5 18.5 13.5H13.5C13.2239 13.5 13 13.2761 13 13Z" fill="#343061"/>
<path d="M13 16C13 15.7239 13.2239 15.5 13.5 15.5H18.5C18.7761 15.5 19 15.7239 19 16C19 16.2761 18.7761 16.5 18.5 16.5H13.5C13.2239 16.5 13 16.2761 13 16Z" fill="#343061"/>
<path fill-rule="evenodd" clip-rule="evenodd" d="M8 9.29289L10.8536 12.1464L10.1464 12.8536L8.5 11.2071V16.5H7.5V11.2071L5.85355 12.8536L5.14645 12.1464L8 9.29289Z" fill="#343061"/>
</g>
<defs>
<clipPath id="clip0">
<rect width="24" height="24" fill="white"/>
</clipPath>
</defs>
</svg>
