<svg width="24" height="24" viewBox="0 0 24 24" fill="none" xmlns="http://www.w3.org/2000/svg">
<g clip-path="url(#clip0)">
<path fill-rule="evenodd" clip-rule="evenodd" d="M20.8008 10.1081C19.9318 6.04593 16.3216 3 12 3C7.02944 3 3 7.02944 3 12C3 15.9343 5.52446 19.279 9.04191 20.5026C9.11526 20.9374 9.28218 21.3405 9.52123 21.6904C5.1974 20.5877 2 16.6672 2 12C2 6.47715 6.47715 2 12 2C17.0791 2 21.2737 5.78653 21.9151 10.6907C21.5934 10.4236 21.2151 10.2225 20.8008 10.1081Z" fill="#343061"/>
<path fill-rule="evenodd" clip-rule="evenodd" d="M13 10.5C13 10.2239 13.2239 10 13.5 10C13.7761 10 14 10.2239 14 10.5V11H18V10.5C18 10.2239 18.2239 10 18.5 10C18.7761 10 19 10.2239 19 10.5V11H20C21.1046 11 22 11.8954 22 13V20C22 21.1046 21.1046 22 20 22H12C10.8954 22 10 21.1046 10 20V13C10 11.8954 10.8954 11 12 11H13V10.5ZM13 12H12C11.4477 12 11 12.4477 11 13V14H12H20H21V13C21 12.4477 20.5523 12 20 12H19V12.5C19 12.7761 18.7761 13 18.5 13C18.2239 13 18 12.7761 18 12.5V12H14V12.5C14 12.7761 13.7761 13 13.5 13C13.2239 13 13 12.7761 13 12.5V12ZM21 15H20H12H11V20C11 20.5523 11.4477 21 12 21H20C20.5523 21 21 20.5523 21 20V15ZM15.7622 15.7318C15.8371 15.5014 16.1629 15.5014 16.2378 15.7318L16.6174 16.9002C16.6509 17.0032 16.7469 17.0729 16.8552 17.0729H18.0837C18.3259 17.0729 18.4266 17.3829 18.2307 17.5252L17.2368 18.2473C17.1491 18.311 17.1125 18.4238 17.1459 18.5268L17.5256 19.6953C17.6004 19.9256 17.3368 20.1171 17.1409 19.9748L16.1469 19.2527C16.0593 19.189 15.9407 19.189 15.8531 19.2527L14.8591 19.9748C14.6632 20.1171 14.3996 19.9256 14.4744 19.6953L14.8541 18.5268C14.8875 18.4238 14.8509 18.311 14.7632 18.2473L13.7693 17.5252C13.5734 17.3829 13.6741 17.0729 13.9163 17.0729H15.1448C15.2531 17.0729 15.3491 17.0032 15.3826 16.9002L15.7622 15.7318Z" fill="#343061"/>
</g>
<defs>
<clipPath id="clip0">
<rect width="24" height="24" fill="white"/>
</clipPath>
</defs>
</svg>
