<svg width="24" height="24" viewBox="0 0 24 24" fill="none" xmlns="http://www.w3.org/2000/svg">
<g clip-path="url(#clip0)">
<path fill-rule="evenodd" clip-rule="evenodd" d="M13.0485 20.9396C12.7045 20.9795 12.3547 21 12 21C7.02944 21 3 16.9706 3 12C3 7.02944 7.02944 3 12 3C16.2902 3 19.8792 6.0018 20.7814 10.0196C21.2135 10.0805 21.6012 10.2794 21.8986 10.5703C21.2049 5.72472 17.0374 2 12 2C6.47715 2 2 6.47715 2 12C2 17.5228 6.47715 22 12 22C12.5281 22 13.0466 21.9591 13.5526 21.8802C13.3068 21.6226 13.1292 21.2994 13.0485 20.9396Z" fill="#343061"/>
<path fill-rule="evenodd" clip-rule="evenodd" d="M18 11.2C17.6844 11.2 17.4286 11.2 17.4286 11.2C17.4286 10.8686 17.6844 10.6 18 10.6C18.3156 10.6 18.5714 10.8686 18.5714 11.2C18.5714 11.2 18.3156 11.2 18 11.2ZM18 11.2C18.6312 11.2 19.1429 11.2 19.1429 11.2C19.1429 10.5373 18.6312 10 18 10C17.3688 10 16.8571 10.5373 16.8571 11.2C16.8571 11.2 17.3688 11.2 18 11.2Z" fill="#343061"/>
<path fill-rule="evenodd" clip-rule="evenodd" d="M20.8571 11.8C21.1727 11.8 21.4286 12.0686 21.4286 12.4V20.8C21.4286 21.1314 21.1727 21.4 20.8571 21.4H15.1429C14.8273 21.4 14.5714 21.1314 14.5714 20.8V12.4C14.5714 12.0686 14.8273 11.8 15.1429 11.8H20.8571ZM15.1429 11.2C14.5117 11.2 14 11.7373 14 12.4V20.8C14 21.4627 14.5117 22 15.1429 22H20.8571C21.4883 22 22 21.4627 22 20.8V12.4C22 11.7373 21.4883 11.2 20.8571 11.2H15.1429Z" fill="#343061"/>
<path d="M17.4286 14.8C17.4286 14.6343 17.5565 14.5 17.7143 14.5H20.5714C20.7292 14.5 20.8571 14.6343 20.8571 14.8C20.8571 14.9657 20.7292 15.1 20.5714 15.1H17.7143C17.5565 15.1 17.4286 14.9657 17.4286 14.8Z" fill="#343061"/>
<path fill-rule="evenodd" clip-rule="evenodd" d="M16.7331 14.3697L15.7143 15.4394L14.9812 14.6697L15.3045 14.3303L15.7143 14.7606L16.4098 14.0303L16.7331 14.3697Z" fill="#343061"/>
<path d="M17.4286 17.2C17.4286 17.0343 17.5565 16.9 17.7143 16.9H20.5714C20.7292 16.9 20.8571 17.0343 20.8571 17.2C20.8571 17.3657 20.7292 17.5 20.5714 17.5H17.7143C17.5565 17.5 17.4286 17.3657 17.4286 17.2Z" fill="#343061"/>
<path fill-rule="evenodd" clip-rule="evenodd" d="M16.7331 16.7697L15.7143 17.8394L14.9812 17.0697L15.3045 16.7303L15.7143 17.1606L16.4098 16.4303L16.7331 16.7697Z" fill="#343061"/>
<path d="M17.4286 19.6C17.4286 19.4343 17.5565 19.3 17.7143 19.3H20.5714C20.7292 19.3 20.8571 19.4343 20.8571 19.6C20.8571 19.7657 20.7292 19.9 20.5714 19.9H17.7143C17.5565 19.9 17.4286 19.7657 17.4286 19.6Z" fill="#343061"/>
<path fill-rule="evenodd" clip-rule="evenodd" d="M16.7331 19.1697L15.7143 20.2394L14.9812 19.4697L15.3045 19.1303L15.7143 19.5606L16.4098 18.8303L16.7331 19.1697Z" fill="#343061"/>
<path d="M15.1429 11.8H20.8571C20.8571 12.4627 20.3455 13 19.7143 13H16.2857C15.6545 13 15.1429 12.4627 15.1429 11.8Z" fill="#343061"/>
</g>
<defs>
<clipPath id="clip0">
<rect width="24" height="24" fill="white"/>
</clipPath>
</defs>
</svg>
