<svg width="24" height="24" viewBox="0 0 24 24" fill="none" xmlns="http://www.w3.org/2000/svg">
<g clip-path="url(#clip0)">
<path fill-rule="evenodd" clip-rule="evenodd" d="M18.6 13.6C18.6 15.0359 17.4359 16.2 16 16.2C14.5641 16.2 13.4 15.0359 13.4 13.6C13.4 12.1641 14.5641 11 16 11C17.4359 11 18.6 12.1641 18.6 13.6ZM17.6666 16.7918C18.8158 16.1906 19.6 14.9869 19.6 13.6C19.6 11.6118 17.9882 10 16 10C14.0118 10 12.4 11.6118 12.4 13.6C12.4 14.9869 13.1842 16.1906 14.3334 16.7918C11.8305 17.3827 10 19.271 10 21.5091C10 22 12.6863 22 16 22C19.3137 22 22 22 22 21.5091C22 19.271 20.1695 17.3827 17.6666 16.7918ZM20.1862 20.9402C19.1353 20.9996 17.6687 21 16 21C14.3313 21 12.8647 20.9996 11.8138 20.9402C11.5145 20.9233 11.2668 20.9024 11.0685 20.8786C11.4465 19.1385 13.3575 17.6 16 17.6C18.6425 17.6 20.5535 19.1385 20.9315 20.8786C20.7332 20.9024 20.4855 20.9233 20.1862 20.9402Z" fill="#343061"/>
<path fill-rule="evenodd" clip-rule="evenodd" d="M19.7869 16.5156C20.5583 15.1883 21 13.6457 21 12C21 7.02944 16.9706 3 12 3C7.02944 3 3 7.02944 3 12C3 15.9835 5.58801 19.3626 9.17437 20.5475C9.09496 20.8731 9.04176 21.2072 9.01665 21.5474C4.95095 20.2783 2 16.4838 2 12C2 6.47715 6.47715 2 12 2C17.5228 2 22 6.47715 22 12C22 13.8585 21.493 15.5986 20.6098 17.0895C20.3523 16.8803 20.0774 16.6883 19.7869 16.5156Z" fill="#343061"/>
</g>
<defs>
<clipPath id="clip0">
<rect width="24" height="24" fill="white"/>
</clipPath>
</defs>
</svg>
