<svg width="24" height="24" viewBox="0 0 24 24" fill="none" xmlns="http://www.w3.org/2000/svg">
<g clip-path="url(#clip0)">
<path fill-rule="evenodd" clip-rule="evenodd" d="M4 4C2.89543 4 2 4.89543 2 6V7V18C2 19.1046 2.89543 20 4 20H20C21.1046 20 22 19.1046 22 18V8C22 6.89543 21.1046 6 20 6H12L9.5 4H4ZM3 7H20C20.5523 7 21 7.44772 21 8V18C21 18.5523 20.5523 19 20 19H4C3.44772 19 3 18.5523 3 18V7Z" fill="#343061"/>
<path d="M12.0049 12.6445L13.0986 9.89062H14.627L13.0547 13.377H14.1191V14.2314H12.7129V14.793H14.1191V15.6426H12.7129V17H11.248V15.6426H9.75391V14.793H11.248V14.2314H9.75391V13.377H10.9453L9.36816 9.89062H10.9062L12.0049 12.6445Z" fill="#343061"/>
</g>
<defs>
<clipPath id="clip0">
<rect width="24" height="24" fill="white"/>
</clipPath>
</defs>
</svg>
