<svg width="24" height="24" viewBox="0 0 24 24" fill="none" xmlns="http://www.w3.org/2000/svg">
<g clip-path="url(#clip0)">
<path fill-rule="evenodd" clip-rule="evenodd" d="M4 4C2.89543 4 2 4.89543 2 6V7V18C2 19.1046 2.89543 20 4 20H20C21.1046 20 22 19.1046 22 18V8C22 6.89543 21.1046 6 20 6H12L9.5 4H4ZM3 7H20C20.5523 7 21 7.44772 21 8V18C21 18.5523 20.5523 19 20 19H4C3.44772 19 3 18.5523 3 18V7Z" fill="#343061"/>
<path d="M14.5 12.9922C14.1719 13.3411 13.9232 13.6576 13.7539 13.9414C13.5846 14.2253 13.5 14.4948 13.5 14.75C13.5 14.8177 13.4753 14.8763 13.4258 14.9258C13.3763 14.9753 13.3177 15 13.25 15H11.75C11.6823 15 11.6237 14.9753 11.5742 14.9258C11.5247 14.8763 11.5 14.8177 11.5 14.75C11.5 14.4948 11.4154 14.2253 11.2461 13.9414C11.0768 13.6576 10.8281 13.3411 10.5 12.9922C10.1667 12.5495 10 12.0521 10 11.5C10 11.0469 10.112 10.6289 10.3359 10.2461C10.5599 9.86328 10.8633 9.5599 11.2461 9.33594C11.6289 9.11198 12.0469 9 12.5 9C12.9531 9 13.3711 9.11198 13.7539 9.33594C14.1367 9.5599 14.4401 9.86328 14.6641 10.2461C14.888 10.6289 15 11.0469 15 11.5C15 12.0521 14.8333 12.5495 14.5 12.9922ZM11.75 15.5H13.25C13.3177 15.5 13.3763 15.5247 13.4258 15.5742C13.4753 15.6237 13.5 15.6823 13.5 15.75C13.5 15.8177 13.4753 15.8763 13.4258 15.9258C13.3763 15.9753 13.3177 16 13.25 16H11.75C11.6823 16 11.6237 15.9753 11.5742 15.9258C11.5247 15.8763 11.5 15.8177 11.5 15.75C11.5 15.6823 11.5247 15.6237 11.5742 15.5742C11.6237 15.5247 11.6823 15.5 11.75 15.5ZM12.5 17C12.224 17 11.9883 16.9505 11.793 16.8516C11.5977 16.7526 11.5 16.6354 11.5 16.5H13.5C13.5 16.6354 13.4023 16.7526 13.207 16.8516C13.0117 16.9505 12.776 17 12.5 17Z" fill="#343061"/>
</g>
<defs>
<clipPath id="clip0">
<rect width="24" height="24" fill="white"/>
</clipPath>
</defs>
</svg>
