<svg width="24" height="24" viewBox="0 0 24 24" fill="none" xmlns="http://www.w3.org/2000/svg">
<g clip-path="url(#clip0)">
<path d="M7 3.5C7 3.22386 7.22386 3 7.5 3C7.77614 3 8 3.22386 8 3.5V5.5C8 5.77614 7.77614 6 7.5 6C7.22386 6 7 5.77614 7 5.5V3.5Z" fill="#343061"/>
<path d="M16 3.5C16 3.22386 16.2239 3 16.5 3C16.7761 3 17 3.22386 17 3.5V5.5C17 5.77614 16.7761 6 16.5 6C16.2239 6 16 5.77614 16 5.5V3.5Z" fill="#343061"/>
<path fill-rule="evenodd" clip-rule="evenodd" d="M4 5C3.44772 5 3 5.44772 3 6V9H21V6C21 5.44772 20.5523 5 20 5H4ZM3 10V20C3 20.5523 3.44772 21 4 21H20C20.5523 21 21 20.5523 21 20V10H3ZM2 6C2 4.89543 2.89543 4 4 4H20C21.1046 4 22 4.89543 22 6V20C22 21.1046 21.1046 22 20 22H4C2.89543 22 2 21.1046 2 20V6Z" fill="#343061"/>
<path fill-rule="evenodd" clip-rule="evenodd" d="M16.416 12.7226C16.5692 12.9524 16.5071 13.2628 16.2774 13.416L10.2773 17.416C10.0476 17.5692 9.73715 17.5071 9.58397 17.2773L7.58397 14.2773C7.4308 14.0476 7.49289 13.7372 7.72265 13.584C7.95241 13.4308 8.26285 13.4929 8.41602 13.7226L10.1387 16.3066L15.7226 12.584C15.9524 12.4308 16.2628 12.4929 16.416 12.7226Z" fill="#343061"/>
</g>
<defs>
<clipPath id="clip0">
<rect width="24" height="24" fill="white"/>
</clipPath>
</defs>
</svg>
