<svg width="24" height="24" viewBox="0 0 24 24" fill="none" xmlns="http://www.w3.org/2000/svg">
<g clip-path="url(#clip0)">
<path d="M7 3.5C7 3.22386 7.22386 3 7.5 3C7.77614 3 8 3.22386 8 3.5V5.5C8 5.77614 7.77614 6 7.5 6C7.22386 6 7 5.77614 7 5.5V3.5Z" fill="#343061"/>
<path d="M16 3.5C16 3.22386 16.2239 3 16.5 3C16.7761 3 17 3.22386 17 3.5V5.5C17 5.77614 16.7761 6 16.5 6C16.2239 6 16 5.77614 16 5.5V3.5Z" fill="#343061"/>
<path fill-rule="evenodd" clip-rule="evenodd" d="M4 5C3.44772 5 3 5.44772 3 6V9H21V6C21 5.44772 20.5523 5 20 5H4ZM3 10V20C3 20.5523 3.44772 21 4 21H20C20.5523 21 21 20.5523 21 20V10H3ZM2 6C2 4.89543 2.89543 4 4 4H20C21.1046 4 22 4.89543 22 6V20C22 21.1046 21.1046 22 20 22H4C2.89543 22 2 21.1046 2 20V6Z" fill="#343061"/>
<path fill-rule="evenodd" clip-rule="evenodd" d="M15.1716 11.4645L18.3536 14.6464C18.5488 14.8417 18.5488 15.1583 18.3536 15.3536L15.1716 18.5355C14.9763 18.7308 14.6597 18.7308 14.4645 18.5355C14.2692 18.3403 14.2692 18.0237 14.4645 17.8284L16.7929 15.5L6 15.5V14.5L16.7929 14.5L14.4645 12.1716C14.2692 11.9763 14.2692 11.6597 14.4645 11.4645C14.6597 11.2692 14.9763 11.2692 15.1716 11.4645Z" fill="#343061"/>
</g>
<defs>
<clipPath id="clip0">
<rect width="24" height="24" fill="white"/>
</clipPath>
</defs>
</svg>
