<svg width="24" height="24" viewBox="0 0 24 24" fill="none" xmlns="http://www.w3.org/2000/svg">
<g clip-path="url(#clip0)">
<path fill-rule="evenodd" clip-rule="evenodd" d="M20.5858 14L14 20.5858L3 9.58579L3 3L9.58579 3L20.5858 14ZM10.2929 2.29289C10.1054 2.10536 9.851 2 9.58579 2L3 2C2.44771 2 2 2.44771 2 3L2 9.58579C2 9.851 2.10536 10.1054 2.29289 10.2929L13.2929 21.2929C13.6834 21.6834 14.3166 21.6834 14.7071 21.2929L21.2929 14.7071C21.6834 14.3166 21.6834 13.6834 21.2929 13.2929L10.2929 2.29289Z" fill="#343061"/>
<path d="M9 7C9 8.10457 8.10457 9 7 9C5.89543 9 5 8.10457 5 7C5 5.89543 5.89543 5 7 5C8.10457 5 9 5.89543 9 7Z" fill="#343061"/>
</g>
<defs>
<clipPath id="clip0">
<rect width="24" height="24" fill="white"/>
</clipPath>
</defs>
</svg>
