<svg width="24" height="24" viewBox="0 0 24 24" fill="none" xmlns="http://www.w3.org/2000/svg">
<g clip-path="url(#clip0)">
<path d="M7 3.5C7 3.22386 7.22386 3 7.5 3C7.77614 3 8 3.22386 8 3.5V5.5C8 5.77614 7.77614 6 7.5 6C7.22386 6 7 5.77614 7 5.5V3.5Z" fill="#343061"/>
<path d="M16 3.5C16 3.22386 16.2239 3 16.5 3C16.7761 3 17 3.22386 17 3.5V5.5C17 5.77614 16.7761 6 16.5 6C16.2239 6 16 5.77614 16 5.5V3.5Z" fill="#343061"/>
<path fill-rule="evenodd" clip-rule="evenodd" d="M4 5C3.44772 5 3 5.44772 3 6V9H21V6C21 5.44772 20.5523 5 20 5H4ZM3 10V20C3 20.5523 3.44772 21 4 21H20C20.5523 21 21 20.5523 21 20V10H3ZM2 6C2 4.89543 2.89543 4 4 4H20C21.1046 4 22 4.89543 22 6V20C22 21.1046 21.1046 22 20 22H4C2.89543 22 2 21.1046 2 20V6Z" fill="#343061"/>
<path d="M8 18C8 18.5523 7.55228 19 7 19C6.44772 19 6 18.5523 6 18C6 17.4477 6.44772 17 7 17C7.55228 17 8 17.4477 8 18Z" fill="#343061"/>
<path d="M8 18C8 18.5523 7.55228 19 7 19C6.44772 19 6 18.5523 6 18C6 17.4477 6.44772 17 7 17C7.55228 17 8 17.4477 8 18Z" fill="#343061"/>
<path d="M8 18C8 18.5523 7.55228 19 7 19C6.44772 19 6 18.5523 6 18C6 17.4477 6.44772 17 7 17C7.55228 17 8 17.4477 8 18Z" fill="#343061"/>
<path d="M8 18C8 18.5523 7.55228 19 7 19C6.44772 19 6 18.5523 6 18C6 17.4477 6.44772 17 7 17C7.55228 17 8 17.4477 8 18Z" fill="#343061"/>
<path d="M13 18C13 18.5523 12.5523 19 12 19C11.4477 19 11 18.5523 11 18C11 17.4477 11.4477 17 12 17C12.5523 17 13 17.4477 13 18Z" fill="#343061"/>
<path d="M13 18C13 18.5523 12.5523 19 12 19C11.4477 19 11 18.5523 11 18C11 17.4477 11.4477 17 12 17C12.5523 17 13 17.4477 13 18Z" fill="#343061"/>
<path d="M13 18C13 18.5523 12.5523 19 12 19C11.4477 19 11 18.5523 11 18C11 17.4477 11.4477 17 12 17C12.5523 17 13 17.4477 13 18Z" fill="#343061"/>
<path d="M13 18C13 18.5523 12.5523 19 12 19C11.4477 19 11 18.5523 11 18C11 17.4477 11.4477 17 12 17C12.5523 17 13 17.4477 13 18Z" fill="#343061"/>
<path d="M18 18C18 18.5523 17.5523 19 17 19C16.4477 19 16 18.5523 16 18C16 17.4477 16.4477 17 17 17C17.5523 17 18 17.4477 18 18Z" fill="#343061"/>
<path d="M18 18C18 18.5523 17.5523 19 17 19C16.4477 19 16 18.5523 16 18C16 17.4477 16.4477 17 17 17C17.5523 17 18 17.4477 18 18Z" fill="#343061"/>
<path d="M18 18C18 18.5523 17.5523 19 17 19C16.4477 19 16 18.5523 16 18C16 17.4477 16.4477 17 17 17C17.5523 17 18 17.4477 18 18Z" fill="#343061"/>
<path d="M18 18C18 18.5523 17.5523 19 17 19C16.4477 19 16 18.5523 16 18C16 17.4477 16.4477 17 17 17C17.5523 17 18 17.4477 18 18Z" fill="#343061"/>
<path d="M8 13C8 13.5523 7.55228 14 7 14C6.44772 14 6 13.5523 6 13C6 12.4477 6.44772 12 7 12C7.55228 12 8 12.4477 8 13Z" fill="#343061"/>
<path d="M8 13C8 13.5523 7.55228 14 7 14C6.44772 14 6 13.5523 6 13C6 12.4477 6.44772 12 7 12C7.55228 12 8 12.4477 8 13Z" fill="#343061"/>
<path d="M8 13C8 13.5523 7.55228 14 7 14C6.44772 14 6 13.5523 6 13C6 12.4477 6.44772 12 7 12C7.55228 12 8 12.4477 8 13Z" fill="#343061"/>
<path d="M8 13C8 13.5523 7.55228 14 7 14C6.44772 14 6 13.5523 6 13C6 12.4477 6.44772 12 7 12C7.55228 12 8 12.4477 8 13Z" fill="#343061"/>
<path d="M13 13C13 13.5523 12.5523 14 12 14C11.4477 14 11 13.5523 11 13C11 12.4477 11.4477 12 12 12C12.5523 12 13 12.4477 13 13Z" fill="#343061"/>
<path d="M13 13C13 13.5523 12.5523 14 12 14C11.4477 14 11 13.5523 11 13C11 12.4477 11.4477 12 12 12C12.5523 12 13 12.4477 13 13Z" fill="#343061"/>
<path d="M13 13C13 13.5523 12.5523 14 12 14C11.4477 14 11 13.5523 11 13C11 12.4477 11.4477 12 12 12C12.5523 12 13 12.4477 13 13Z" fill="#343061"/>
<path d="M13 13C13 13.5523 12.5523 14 12 14C11.4477 14 11 13.5523 11 13C11 12.4477 11.4477 12 12 12C12.5523 12 13 12.4477 13 13Z" fill="#343061"/>
<path d="M18 13C18 13.5523 17.5523 14 17 14C16.4477 14 16 13.5523 16 13C16 12.4477 16.4477 12 17 12C17.5523 12 18 12.4477 18 13Z" fill="#343061"/>
<path d="M18 13C18 13.5523 17.5523 14 17 14C16.4477 14 16 13.5523 16 13C16 12.4477 16.4477 12 17 12C17.5523 12 18 12.4477 18 13Z" fill="#343061"/>
<path d="M18 13C18 13.5523 17.5523 14 17 14C16.4477 14 16 13.5523 16 13C16 12.4477 16.4477 12 17 12C17.5523 12 18 12.4477 18 13Z" fill="#343061"/>
<path d="M18 13C18 13.5523 17.5523 14 17 14C16.4477 14 16 13.5523 16 13C16 12.4477 16.4477 12 17 12C17.5523 12 18 12.4477 18 13Z" fill="#343061"/>
</g>
<defs>
<clipPath id="clip0">
<rect width="24" height="24" fill="white"/>
</clipPath>
</defs>
</svg>
