<svg width="24" height="24" viewBox="0 0 24 24" fill="none" xmlns="http://www.w3.org/2000/svg">
<g clip-path="url(#clip0)">
<path fill-rule="evenodd" clip-rule="evenodd" d="M20 6C20.5523 6 21 6.44772 21 7V17C21 17.5523 20.5523 18 20 18H4C3.44772 18 3 17.5523 3 17V7C3 6.44772 3.44772 6 4 6H20ZM4 5C2.89543 5 2 5.89543 2 7V17C2 18.1046 2.89543 19 4 19H20C21.1046 19 22 18.1046 22 17V7C22 5.89543 21.1046 5 20 5H4Z" fill="#343061"/>
<path fill-rule="evenodd" clip-rule="evenodd" d="M12 17C14.7614 17 17 14.7614 17 12C17 9.23858 14.7614 7 12 7C9.23858 7 7 9.23858 7 12C7 14.7614 9.23858 17 12 17ZM12.8789 9.3125H14.1016L12.8438 12.1016H13.6953V12.7852H12.5703V13.2344H13.6953V13.9141H12.5703V15H11.3984V13.9141H10.2031V13.2344H11.3984V12.7852H10.2031V12.1016H11.1562L9.89453 9.3125H11.125L12.0039 11.5156L12.8789 9.3125Z" fill="#343061"/>
</g>
<defs>
<clipPath id="clip0">
<rect width="24" height="24" fill="white"/>
</clipPath>
</defs>
</svg>
