<svg width="24" height="24" viewBox="0 0 24 24" fill="none" xmlns="http://www.w3.org/2000/svg">
<g clip-path="url(#clip0)">
<rect width="24" height="24" fill="white"/>
<path fill-rule="evenodd" clip-rule="evenodd" d="M12 15C10.3431 15 9 13.6569 9 12C9 10.3431 10.3431 9 12 9C13.6569 9 15 10.3431 15 12C15 13.6569 13.6569 15 12 15ZM12 16C14.2091 16 16 14.2091 16 12C16 9.79086 14.2091 8 12 8C9.79086 8 8 9.79086 8 12C8 14.2091 9.79086 16 12 16Z" fill="#343061"/>
<path fill-rule="evenodd" clip-rule="evenodd" d="M10.4293 2.80388C10.5228 2.33646 10.9332 2 11.4099 2H12.5901C13.0668 2 13.4772 2.33646 13.5707 2.80388L13.9372 4.63635L13.4469 4.73441L13.9372 4.63635L15.9248 5.4314L17.3531 4.36019C17.7512 4.0616 18.3083 4.10119 18.6602 4.45308L19.5469 5.33981C19.8988 5.6917 19.9384 6.2488 19.6398 6.64692L18.5686 8.0752L19.3636 10.0628L21.1961 10.4293C21.6635 10.5228 22 10.9332 22 11.4099V12.5901C22 13.0668 21.6635 13.4772 21.1961 13.5707L19.3636 13.9372L18.5686 15.9248L19.6398 17.3531C19.9384 17.7512 19.8988 18.3083 19.5469 18.6602L18.6602 19.5469C18.3083 19.8988 17.7512 19.9384 17.3531 19.6398L15.9248 18.5686L13.9372 19.3636L13.5707 21.1961C13.4772 21.6635 13.0668 22 12.5901 22H11.4099C10.9332 22 10.5228 21.6635 10.4293 21.1961L10.0628 19.3636L8.0752 18.5686L6.64692 19.6398C6.2488 19.9384 5.6917 19.8988 5.33981 19.5469L4.45308 18.6602C4.10119 18.3083 4.0616 17.7512 4.36019 17.3531L5.4314 15.9248L4.63635 13.9372L2.80388 13.5707C2.33646 13.4772 2 13.0668 2 12.5901V11.4099C2 10.9332 2.33646 10.5228 2.80388 10.4293L4.63635 10.0628L5.4314 8.0752L4.36019 6.64692C4.0616 6.2488 4.10119 5.6917 4.45308 5.33981L5.33981 4.45308C5.6917 4.10119 6.2488 4.0616 6.64692 4.36019L8.0752 5.4314L10.0628 4.63635L10.4293 2.80388ZM12.5901 3L11.4099 3L11.0434 4.83247C10.9771 5.16384 10.748 5.43932 10.4342 5.56483L8.44659 6.35988C8.12256 6.48949 7.7544 6.4408 7.4752 6.2314L6.04692 5.16019L5.16019 6.04692L6.2314 7.4752C6.4408 7.7544 6.48949 8.12256 6.35988 8.44659L5.56483 10.4342C5.43932 10.748 5.16384 10.9771 4.83247 11.0434L3 11.4099V12.5901L4.83247 12.9566C5.16384 13.0229 5.43932 13.252 5.56483 13.5658L6.35988 15.5534C6.48949 15.8774 6.4408 16.2456 6.2314 16.5248L5.16019 17.9531L6.04692 18.8398L7.4752 17.7686C7.7544 17.5592 8.12256 17.5105 8.44659 17.6401L10.4342 18.4352C10.748 18.5607 10.9771 18.8362 11.0434 19.1675L11.4099 21H12.5901L12.9566 19.1675C13.0229 18.8362 13.252 18.5607 13.5658 18.4352L15.5534 17.6401C15.8774 17.5105 16.2456 17.5592 16.5248 17.7686L17.9531 18.8398L18.8398 17.9531L17.7686 16.5248C17.5592 16.2456 17.5105 15.8774 17.6401 15.5534L18.4352 13.5658C18.5607 13.252 18.8362 13.0229 19.1675 12.9566L21 12.5901V11.4099L19.1675 11.0434C18.8362 10.9771 18.5607 10.748 18.4352 10.4342L17.6401 8.44659C17.5105 8.12256 17.5592 7.7544 17.7686 7.4752L18.8398 6.04692L17.9531 5.16019L16.5248 6.2314C16.2456 6.4408 15.8774 6.48949 15.5534 6.35988L13.5658 5.56483C13.252 5.43932 13.0229 5.16384 12.9566 4.83247L12.5901 3Z" fill="#343061"/>
</g>
<defs>
<clipPath id="clip0">
<rect width="24" height="24" fill="white"/>
</clipPath>
</defs>
</svg>
