<svg width="24" height="24" viewBox="0 0 24 24" fill="none" xmlns="http://www.w3.org/2000/svg">
<g clip-path="url(#clip0)">
<rect width="24" height="24" fill="white"/>
<path fill-rule="evenodd" clip-rule="evenodd" d="M12.853 20.7609C12.5553 20.9248 12.2668 21 12 21C11.2021 21 10.2106 20.3272 9.35889 18.6239C9.07775 18.0616 8.82992 17.4177 8.62552 16.7082C9.67972 16.8971 10.8158 17 12 17C12.8051 17 13.588 16.9524 14.3381 16.8626L14.7433 15.7989C13.8813 15.9289 12.9604 16 12 16C10.6985 16 9.46975 15.8694 8.36143 15.6386C8.13056 14.5302 8 13.3015 8 12C8 10.6985 8.13056 9.46975 8.36143 8.36143C9.46975 8.13056 10.6985 8 12 8C13.3015 8 14.5302 8.13056 15.6386 8.36143C15.8694 9.46975 16 10.6985 16 12C16 12.1741 15.9977 12.3468 15.9931 12.5182L16 12.5H16.9939C16.9979 12.3344 17 12.1677 17 12C17 10.8158 16.8971 9.67972 16.7082 8.62552C17.4177 8.82992 18.0616 9.07775 18.6239 9.35889C20.3272 10.2106 21 11.2021 21 12C21 12.6235 20.5891 13.3653 19.5966 14.0662L19.9621 15.0255C20.2093 14.8632 20.437 14.693 20.6436 14.516C20.5268 14.918 20.3827 15.3085 20.2134 15.6851L20.6935 16.9454C21.525 15.487 22 13.799 22 12C22 6.47715 17.5228 2 12 2C6.47715 2 2 6.47715 2 12C2 17.5228 6.47715 22 12 22C12.1285 22 12.2564 21.9976 12.3837 21.9928L12.853 20.7609ZM16.4731 7.52689C16.0369 5.78549 15.354 4.33419 14.516 3.3564C17.4636 4.21293 19.7871 6.53637 20.6436 9.48402C19.6658 8.64603 18.2145 7.96308 16.4731 7.52689ZM14.6411 5.37615C14.9223 5.93844 15.1701 6.58231 15.3745 7.29183C14.3203 7.10292 13.1842 7 12 7C10.8158 7 9.67972 7.10292 8.62552 7.29183C8.82992 6.58231 9.07775 5.93844 9.35889 5.37615C10.2106 3.67281 11.2021 3 12 3C12.7979 3 13.7894 3.67281 14.6411 5.37615ZM9.48401 3.3564C8.64602 4.33419 7.96308 5.78549 7.52689 7.52689C5.78548 7.96309 4.33419 8.64602 3.3564 9.48401C4.21293 6.53637 6.53637 4.21293 9.48401 3.3564ZM7.52689 16.4731C7.96309 18.2145 8.64603 19.6658 9.48402 20.6436C6.53637 19.7871 4.21293 17.4636 3.3564 14.516C4.33419 15.354 5.78549 16.0369 7.52689 16.4731ZM5.37615 14.6411C3.67281 13.7894 3 12.7979 3 12C3 11.2021 3.67281 10.2106 5.37615 9.35889C5.93844 9.07775 6.5823 8.82992 7.29183 8.62552C7.10291 9.67972 7 10.8158 7 12C7 13.1842 7.10292 14.3203 7.29183 15.3745C6.58231 15.1701 5.93844 14.9223 5.37615 14.6411Z" fill="#343061"/>
<path d="M19.041 20.2422H15.959L15.373 22H13.5039L16.6797 13.4688H18.3086L21.502 22H19.6328L19.041 20.2422ZM16.4336 18.8184H18.5664L17.4941 15.625L16.4336 18.8184Z" fill="#343061"/>
</g>
<defs>
<clipPath id="clip0">
<rect width="24" height="24" fill="white"/>
</clipPath>
</defs>
</svg>
