<svg width="24" height="24" viewBox="0 0 24 24" fill="none" xmlns="http://www.w3.org/2000/svg">
<g clip-path="url(#clip0)">
<rect width="24" height="24" fill="white"/>
<path fill-rule="evenodd" clip-rule="evenodd" d="M20.9418 5.52523C20.1721 5.77281 19.1531 6 18 6C16.78 6 15.3967 5.36734 14.3201 4.76331C13.3841 4.23814 12.5395 3.65185 12 3.25618C11.4605 3.65185 10.6158 4.23814 9.67985 4.76331C8.60332 5.36734 7.22003 6 6 6C4.84919 6 3.83198 5.77371 3.06282 5.5267C3.14728 6.80439 3.34443 8.72903 3.80295 10.7491C4.36218 13.2128 5.28185 15.6869 6.74741 17.3356C8.56801 19.3838 11.0319 20.5332 11.9746 20.9188C12.894 20.4957 15.321 19.2648 17.2929 17.2929C18.7266 15.8592 19.645 13.4404 20.2059 10.9241C20.6665 8.85762 20.8604 6.84754 20.9418 5.52523ZM11.6509 21.8666C10.7013 21.4834 8.00817 20.2592 6 18C2.73193 14.3234 2.13393 7.30924 2.02451 4.86541C2.00727 4.48038 2.42845 4.22323 2.78654 4.36576C3.50405 4.65133 4.6554 5 6 5C7.87708 5 10.7365 2.96149 11.6833 2.24524C11.8709 2.10335 12.1291 2.10335 12.3167 2.24524C13.2635 2.96149 16.1229 5 18 5C19.3446 5 20.496 4.65133 21.2135 4.36576C21.5715 4.22323 21.9933 4.47853 21.9773 4.8636C21.8727 7.37637 21.2865 14.7134 18 18C15.8679 20.1321 13.2627 21.4307 12.342 21.8504C12.1224 21.9505 11.8747 21.957 11.6509 21.8666Z" fill="#343061"/>
<path fill-rule="evenodd" clip-rule="evenodd" d="M16.416 9.72266C16.5692 9.95242 16.5071 10.2629 16.2774 10.416L10.2773 14.416C10.0476 14.5692 9.73715 14.5071 9.58397 14.2774L7.58397 11.2774C7.4308 11.0476 7.49289 10.7372 7.72265 10.584C7.95241 10.4308 8.26285 10.4929 8.41602 10.7227L10.1387 13.3066L15.7226 9.58398C15.9524 9.43081 16.2628 9.49289 16.416 9.72266Z" fill="#343061"/>
</g>
<defs>
<clipPath id="clip0">
<rect width="24" height="24" fill="white"/>
</clipPath>
</defs>
</svg>
