<svg width="24" height="24" viewBox="0 0 24 24" fill="none" xmlns="http://www.w3.org/2000/svg">
<g clip-path="url(#clip0)">
<rect width="24" height="24" fill="white"/>
<path fill-rule="evenodd" clip-rule="evenodd" d="M18 22C20.2091 22 22 20.2091 22 18C22 15.7909 20.2091 14 18 14C15.7909 14 14 15.7909 14 18C14 20.2091 15.7909 22 18 22ZM16.9393 16.2322L18 17.2929L19.0607 16.2322C19.2559 16.037 19.5725 16.037 19.7678 16.2322C19.963 16.4275 19.963 16.7441 19.7678 16.9393L18.7071 18L19.7678 19.0607C19.963 19.2559 19.963 19.5725 19.7678 19.7678C19.5725 19.963 19.2559 19.963 19.0607 19.7678L18 18.7071L16.9393 19.7678C16.7441 19.963 16.4275 19.963 16.2322 19.7678C16.037 19.5725 16.037 19.2559 16.2322 19.0607L17.2929 18L16.2322 16.9393C16.037 16.7441 16.037 16.4275 16.2322 16.2322C16.4275 16.037 16.7441 16.037 16.9393 16.2322Z" fill="#343061"/>
<path fill-rule="evenodd" clip-rule="evenodd" d="M12 13C14.7614 13 17 10.7614 17 8C17 5.23858 14.7614 3 12 3C9.23858 3 7 5.23858 7 8C7 10.7614 9.23858 13 12 13ZM18 8C18 10.3115 16.6929 12.3176 14.7776 13.3197C15.0839 13.392 15.3841 13.476 15.6775 13.571C15.296 13.7715 14.9435 14.0198 14.6281 14.308C13.8042 14.1084 12.9234 14 12 14C7.06043 14 3.34076 17.1008 3.02216 20.683C3.44297 20.7769 4.10048 20.8493 4.98536 20.8993C6.76011 20.9996 9.22673 21 12 21C12.6869 21 13.355 21 13.9985 20.9984C14.2813 21.3752 14.6161 21.7108 14.9922 21.9945C14.0474 22 13.0423 22 12 22C6.47715 22 2 22 2 21.1818C2 17.4517 5.05089 14.3046 9.22241 13.3197C7.30707 12.3176 6 10.3115 6 8C6 4.68629 8.68629 2 12 2C15.3137 2 18 4.68629 18 8Z" fill="#343061"/>
</g>
<defs>
<clipPath id="clip0">
<rect width="24" height="24" fill="white"/>
</clipPath>
</defs>
</svg>
