<svg width="24" height="24" viewBox="0 0 24 24" fill="none" xmlns="http://www.w3.org/2000/svg">
<g clip-path="url(#clip0)">
<path fill-rule="evenodd" clip-rule="evenodd" d="M2 3.5H5.19855C5.9011 3.5 6.50954 3.98763 6.66254 4.67332L7.21891 7.16667H19.7523C20.7124 7.16667 21.4254 8.05623 21.2163 8.99334L20.0262 14.3267C19.8732 15.0124 19.2647 15.5 18.5622 15.5H9.256C8.55344 15.5 7.94501 15.0124 7.792 14.3267L5.68655 4.89111C5.63554 4.66254 5.43273 4.5 5.19855 4.5H2V3.5ZM7.44205 8.16667L8.768 14.1089C8.819 14.3375 9.02181 14.5 9.256 14.5H18.5622C18.7964 14.5 18.9992 14.3375 19.0502 14.1089L20.2403 8.77556C20.31 8.46319 20.0723 8.16667 19.7523 8.16667H7.44205Z" fill="#343061"/>
<path d="M13 19C13 20.1046 12.1046 21 11 21C9.89543 21 9 20.1046 9 19C9 17.8954 9.89543 17 11 17C12.1046 17 13 17.8954 13 19Z" fill="#343061"/>
<path d="M19 19C19 20.1046 18.1046 21 17 21C15.8954 21 15 20.1046 15 19C15 17.8954 15.8954 17 17 17C18.1046 17 19 17.8954 19 19Z" fill="#343061"/>
</g>
<defs>
<clipPath id="clip0">
<rect width="24" height="24" fill="white"/>
</clipPath>
</defs>
</svg>
