<svg width="24" height="24" viewBox="0 0 24 24" fill="none" xmlns="http://www.w3.org/2000/svg">
<g clip-path="url(#clip0)">
<path fill-rule="evenodd" clip-rule="evenodd" d="M10.0212 3.38496L3.29298 6.94698L4.47878 9.61504L11.207 6.05302L10.0212 3.38496ZM12 6.76471L5.41667 10.25L12 13.7353L18.5833 10.25L12 6.76471ZM12 5.375L13.065 2.97883C13.3002 2.44945 13.9347 2.23013 14.4467 2.50117L21.1749 6.06319C21.6395 6.30914 21.8343 6.87277 21.6208 7.35312L20.4071 10.084L20.3333 10.25L20.4071 10.416L21.6208 13.1469C21.8343 13.6272 21.6395 14.1909 21.1749 14.4368L14.4467 17.9988C13.9347 18.2699 13.3002 18.0505 13.065 17.5212L12 15.125L10.935 17.5212C10.6998 18.0505 10.0653 18.2699 9.55334 17.9988L2.82509 14.4368C2.36052 14.1909 2.16568 13.6272 2.37916 13.1469L3.5929 10.416L3.66667 10.25L3.5929 10.084L2.37916 7.35312C2.16568 6.87277 2.36052 6.30914 2.82509 6.06319L9.55334 2.50117C10.0653 2.23013 10.6998 2.44945 10.935 2.97883L12 5.375ZM13.9788 17.115L20.707 13.553L19.5212 10.885L12.793 14.447L13.9788 17.115ZM11.207 14.447L4.47878 10.885L3.29298 13.553L10.0212 17.115L11.207 14.447ZM13.9788 3.38496L12.793 6.05302L19.5212 9.61504L20.707 6.94698L13.9788 3.38496Z" fill="#343061"/>
<path fill-rule="evenodd" clip-rule="evenodd" d="M12.5 16.25L12 15.125L11.5 16.25V20.7516L5 16.928V15.5882L4 15.0588V16.928C4 17.2824 4.18754 17.6103 4.49298 17.79L11.7458 22.0563L11.7465 22.0567L11.7474 22.0573C11.8289 22.105 11.9156 22.1267 12 22.1265C12.0844 22.1267 12.1711 22.105 12.2526 22.0573L12.2535 22.0567L12.2542 22.0563L19.507 17.79C19.8125 17.6103 20 17.2824 20 16.928V15.0588L19 15.5882V16.928L12.5 20.7516V16.25Z" fill="#343061"/>
</g>
<defs>
<clipPath id="clip0">
<rect width="24" height="24" fill="white"/>
</clipPath>
</defs>
</svg>
