<svg width="24" height="24" viewBox="0 0 24 24" fill="none" xmlns="http://www.w3.org/2000/svg">
<g clip-path="url(#clip0)">
<path fill-rule="evenodd" clip-rule="evenodd" d="M21 16V21H3V16H21ZM3 15C2.44772 15 2 15.4477 2 16V21C2 21.5523 2.44772 22 3 22H21C21.5523 22 22 21.5523 22 21V16C22 15.4477 21.5523 15 21 15H3Z" fill="#343061"/>
<path fill-rule="evenodd" clip-rule="evenodd" d="M14.6 5.6C14.6 7.03594 13.4359 8.2 12 8.2C10.5641 8.2 9.4 7.03594 9.4 5.6C9.4 4.16406 10.5641 3 12 3C13.4359 3 14.6 4.16406 14.6 5.6ZM13.6666 8.79185C14.8158 8.19058 15.6 6.98688 15.6 5.6C15.6 3.61177 13.9882 2 12 2C10.0118 2 8.4 3.61177 8.4 5.6C8.4 6.98688 9.18424 8.19058 10.3334 8.79185C7.83053 9.38273 6 11.271 6 13.5091C6 14 8.68629 14 12 14C15.3137 14 18 14 18 13.5091C18 11.271 16.1695 9.38273 13.6666 8.79185ZM16.1862 12.9402C15.1353 12.9996 13.6687 13 12 13C10.3313 13 8.86468 12.9996 7.81378 12.9402C7.51449 12.9233 7.26675 12.9024 7.06849 12.8786C7.44653 11.1385 9.35754 9.6 12 9.6C14.6425 9.6 16.5535 11.1385 16.9315 12.8786C16.7332 12.9024 16.4855 12.9233 16.1862 12.9402Z" fill="#343061"/>
</g>
<defs>
<clipPath id="clip0">
<rect width="24" height="24" fill="white"/>
</clipPath>
</defs>
</svg>
