<svg width="24" height="24" viewBox="0 0 24 24" fill="none" xmlns="http://www.w3.org/2000/svg">
<g clip-path="url(#clip0)">
<rect width="24" height="24" fill="white"/>
<path fill-rule="evenodd" clip-rule="evenodd" d="M20.9582 16.0243L20.9557 16.022C20.9542 16.0207 20.9522 16.019 20.9465 16.017C20.9399 16.0146 20.9269 16.0114 20.9071 16.0117C20.864 16.0121 20.8143 16.0288 20.7761 16.0596L20.7729 16.0622L17.5674 18.6259C17.5668 18.6263 17.5663 18.6268 17.5657 18.6272C16.9928 19.088 16.2816 19.3331 15.5513 19.3331H11.4439C10.5861 19.3331 9.8884 18.6354 9.8884 17.7776C9.8884 16.9198 10.5861 16.2221 11.4439 16.2221H14.1625C14.2132 16.2221 14.2638 16.2035 14.2989 16.1761C14.315 16.1635 14.3236 16.1524 14.3276 16.146M14.3321 16.1354C14.3362 16.1103 14.3338 16.0929 14.3301 16.0804C14.3262 16.0666 14.3189 16.0527 14.3079 16.0399C14.2857 16.014 14.2558 16 14.2215 16H8.6663C7.95973 16 7.27553 16.2431 6.7233 16.6899L4.83348 18.2221H3V20.6663H14.9437C15.2213 20.6663 15.4905 20.5727 15.7083 20.399C15.7084 20.3989 15.7082 20.3991 15.7083 20.399L20.9594 16.1967C20.9844 16.1769 20.9988 16.1488 20.9999 16.115C21.0005 16.0985 20.9976 16.0831 20.992 16.0697C20.9869 16.0575 20.9778 16.0419 20.9582 16.0243M16.3325 21.1802C15.9367 21.4962 15.4472 21.6663 14.9437 21.6663H2.55552C2.24999 21.6663 2 21.4163 2 21.1108V17.7776C2 17.4721 2.24999 17.2221 2.55552 17.2221H4.47903L6.09352 15.9131C6.82265 15.3229 7.72885 15 8.6663 15H14.2215C14.8986 15 15.4333 15.6041 15.3187 16.2985C15.2284 16.8436 14.7146 17.2221 14.1625 17.2221H11.4439C11.1384 17.2221 10.8884 17.4721 10.8884 17.7776C10.8884 18.0832 11.1384 18.3331 11.4439 18.3331H15.5513C16.0583 18.3331 16.5478 18.163 16.9401 17.8471L20.1483 15.2812C20.5788 14.934 21.2177 14.9097 21.6274 15.2812C22.1517 15.7534 22.11 16.5589 21.5823 16.9791L16.3325 21.1802Z" fill="#343061"/>
<path fill-rule="evenodd" clip-rule="evenodd" d="M14.6 5.6C14.6 7.03594 13.4359 8.2 12 8.2C10.5641 8.2 9.4 7.03594 9.4 5.6C9.4 4.16406 10.5641 3 12 3C13.4359 3 14.6 4.16406 14.6 5.6ZM13.6666 8.79185C14.8158 8.19058 15.6 6.98688 15.6 5.6C15.6 3.61177 13.9882 2 12 2C10.0118 2 8.4 3.61177 8.4 5.6C8.4 6.98688 9.18424 8.19058 10.3334 8.79185C7.83053 9.38273 6 11.271 6 13.5091C6 14 8.68629 14 12 14C15.3137 14 18 14 18 13.5091C18 11.271 16.1695 9.38273 13.6666 8.79185ZM16.1862 12.9402C15.1353 12.9996 13.6687 13 12 13C10.3313 13 8.86468 12.9996 7.81378 12.9402C7.51449 12.9233 7.26675 12.9024 7.06849 12.8786C7.44653 11.1385 9.35754 9.6 12 9.6C14.6425 9.6 16.5535 11.1385 16.9315 12.8786C16.7332 12.9024 16.4855 12.9233 16.1862 12.9402Z" fill="#343061"/>
</g>
<defs>
<clipPath id="clip0">
<rect width="24" height="24" fill="white"/>
</clipPath>
</defs>
</svg>
