<svg width="24" height="24" viewBox="0 0 24 24" fill="none" xmlns="http://www.w3.org/2000/svg">
<g clip-path="url(#clip0)">
<path fill-rule="evenodd" clip-rule="evenodd" d="M18 22C20.2091 22 22 20.2091 22 18C22 15.7909 20.2091 14 18 14C15.7909 14 14 15.7909 14 18C14 20.2091 15.7909 22 18 22ZM18.5 16V17.5H20C20.2762 17.5 20.5 17.7239 20.5 18C20.5 18.2761 20.2762 18.5 20 18.5H18.5V20C18.5 20.2762 18.2761 20.5 18 20.5C17.7239 20.5 17.5 20.2762 17.5 20V18.5H16C15.7239 18.5 15.5 18.2761 15.5 18C15.5 17.7239 15.7239 17.5 16 17.5H17.5V16C17.5 15.7239 17.7239 15.5 18 15.5C18.2761 15.5 18.5 15.7239 18.5 16Z" fill="#343061"/>
<path fill-rule="evenodd" clip-rule="evenodd" d="M10.0212 3.38497L3.29298 6.94698L4.47879 9.61504L11.207 6.05303L10.0212 3.38497ZM12 6.76471L5.41667 10.25L12 13.7353L18.5833 10.25L12 6.76471ZM12 5.37501L13.065 2.97883C13.3003 2.44946 13.9347 2.23014 14.4467 2.50118L21.1749 6.0632C21.6395 6.30914 21.8343 6.87278 21.6208 7.35312L20.4071 10.084L20.3333 10.25L20.4071 10.416L21.6208 13.1469C21.8019 13.5542 21.6893 14.0215 21.3676 14.3041C21.1012 14.0613 20.8086 13.8469 20.4943 13.6656L20.707 13.553L19.5212 10.885L12.793 14.447L13.4497 15.9247C13.2343 16.3963 13.09 16.9073 13.0306 17.4438L12.5 16.25V20.7516L13.493 20.1675C13.6387 20.47 13.814 20.7556 14.0151 21.0205L12.2543 22.0563L12.2535 22.0568L12.2526 22.0573C12.1711 22.105 12.0844 22.1267 12 22.1265C11.9156 22.1267 11.8289 22.105 11.7474 22.0573L11.7465 22.0568L11.7458 22.0563L4.49299 17.79C4.18755 17.6103 4.00001 17.2824 4.00001 16.928V15.0588L2.82509 14.4368C2.36053 14.1909 2.16568 13.6272 2.37917 13.1469L3.59291 10.416L3.66668 10.25L3.59291 10.084L2.37917 7.35312C2.16568 6.87278 2.36053 6.30914 2.82509 6.0632L9.55334 2.50118C10.0653 2.23014 10.6998 2.44946 10.935 2.97883L12 5.37501ZM5.00001 16.928L11.5 20.7516V16.25L10.935 17.5212C10.6998 18.0506 10.0653 18.2699 9.55334 17.9988L5.00001 15.5882V16.928ZM11.207 14.447L4.47879 10.885L3.29298 13.553L10.0212 17.115L11.207 14.447ZM13.9788 3.38497L12.793 6.05303L19.5212 9.61504L20.707 6.94698L13.9788 3.38497Z" fill="#343061"/>
</g>
<defs>
<clipPath id="clip0">
<rect width="24" height="24" fill="white"/>
</clipPath>
</defs>
</svg>
