<svg width="24" height="24" viewBox="0 0 24 24" fill="none" xmlns="http://www.w3.org/2000/svg">
<g clip-path="url(#clip0)">
<path fill-rule="evenodd" clip-rule="evenodd" d="M14 3.70711L17.2929 7H15H14V6V3.70711ZM19 7.497C18.9996 7.4303 18.9861 7.36669 18.9621 7.30861C18.9377 7.24964 18.9015 7.19439 18.8536 7.14645L13.8536 2.14645C13.8056 2.09851 13.7504 2.06234 13.6914 2.03794C13.6324 2.01349 13.5678 2 13.5 2H13.4999H7C5.89543 2 5 2.89543 5 4V20C5 21.1046 5.89543 22 7 22H17C18.1046 22 19 21.1046 19 20V7.50049V7.5C19 7.499 19 7.498 19 7.497ZM13 7V8H14H18V20C18 20.5523 17.5523 21 17 21H7C6.44772 21 6 20.5523 6 20V4C6 3.44772 6.44772 3 7 3H13V7Z" fill="#343061"/>
<path d="M12 10C12 9.72386 12.2239 9.5 12.5 9.5H16.5C16.7761 9.5 17 9.72386 17 10V10C17 10.2761 16.7761 10.5 16.5 10.5H12.5C12.2239 10.5 12 10.2761 12 10V10Z" fill="#343061"/>
<path d="M10 14C10 13.7239 10.2239 13.5 10.5 13.5H16.5C16.7761 13.5 17 13.7239 17 14V14C17 14.2761 16.7761 14.5 16.5 14.5H10.5C10.2239 14.5 10 14.2761 10 14V14Z" fill="#343061"/>
<path d="M9 14C9 14.5523 8.55228 15 8 15C7.44772 15 7 14.5523 7 14C7 13.4477 7.44772 13 8 13C8.55228 13 9 13.4477 9 14Z" fill="#343061"/>
<path d="M10 18C10 17.7239 10.2239 17.5 10.5 17.5H16.5C16.7761 17.5 17 17.7239 17 18V18C17 18.2761 16.7761 18.5 16.5 18.5H10.5C10.2239 18.5 10 18.2761 10 18V18Z" fill="#343061"/>
<path d="M9 18C9 18.5523 8.55228 19 8 19C7.44772 19 7 18.5523 7 18C7 17.4477 7.44772 17 8 17C8.55228 17 9 17.4477 9 18Z" fill="#343061"/>
<path d="M9.00391 6.51562L9.87891 4.3125H11.1016L9.84375 7.10156H10.6953V7.78516H9.57031V8.23438H10.6953V8.91406H9.57031V10H8.39844V8.91406H7.20312V8.23438H8.39844V7.78516H7.20312V7.10156H8.15625L6.89453 4.3125H8.125L9.00391 6.51562Z" fill="#343061"/>
</g>
<defs>
<clipPath id="clip0">
<rect width="24" height="24" fill="white"/>
</clipPath>
</defs>
</svg>
