<svg width="24" height="24" viewBox="0 0 24 24" fill="none" xmlns="http://www.w3.org/2000/svg">
<g clip-path="url(#clip0)">
<path fill-rule="evenodd" clip-rule="evenodd" d="M12 4C11.4477 4 11 4 11 4C11 3.44772 11.4477 3 12 3C12.5523 3 13 3.44772 13 4C13 4 12.5523 4 12 4ZM12 4C13.1046 4 14 4 14 4C14 2.89543 13.1046 2 12 2C10.8954 2 10 2.89543 10 4C10 4 10.8954 4 12 4Z" fill="#343061"/>
<path fill-rule="evenodd" clip-rule="evenodd" d="M17 5C17.5523 5 18 5.44772 18 6V20C18 20.5523 17.5523 21 17 21H7C6.44772 21 6 20.5523 6 20V6C6 5.44772 6.44772 5 7 5H17ZM7 4C5.89543 4 5 4.89543 5 6V20C5 21.1046 5.89543 22 7 22H17C18.1046 22 19 21.1046 19 20V6C19 4.89543 18.1046 4 17 4H7Z" fill="#343061"/>
<path d="M10 10C10 9.72386 10.2239 9.5 10.5 9.5H16.5C16.7761 9.5 17 9.72386 17 10C17 10.2761 16.7761 10.5 16.5 10.5H10.5C10.2239 10.5 10 10.2761 10 10Z" fill="#343061"/>
<path d="M9 10C9 10.5523 8.55228 11 8 11C7.44772 11 7 10.5523 7 10C7 9.44772 7.44772 9 8 9C8.55228 9 9 9.44772 9 10Z" fill="#343061"/>
<path d="M10 14C10 13.7239 10.2239 13.5 10.5 13.5H16.5C16.7761 13.5 17 13.7239 17 14C17 14.2761 16.7761 14.5 16.5 14.5H10.5C10.2239 14.5 10 14.2761 10 14Z" fill="#343061"/>
<path d="M9 14C9 14.5523 8.55228 15 8 15C7.44772 15 7 14.5523 7 14C7 13.4477 7.44772 13 8 13C8.55228 13 9 13.4477 9 14Z" fill="#343061"/>
<path d="M10 18C10 17.7239 10.2239 17.5 10.5 17.5H16.5C16.7761 17.5 17 17.7239 17 18C17 18.2761 16.7761 18.5 16.5 18.5H10.5C10.2239 18.5 10 18.2761 10 18Z" fill="#343061"/>
<path d="M9 18C9 18.5523 8.55228 19 8 19C7.44772 19 7 18.5523 7 18C7 17.4477 7.44772 17 8 17C8.55228 17 9 17.4477 9 18Z" fill="#343061"/>
<path d="M7 5H17C17 6.10457 16.1046 7 15 7H9C7.89543 7 7 6.10457 7 5Z" fill="#343061"/>
</g>
<defs>
<clipPath id="clip0">
<rect width="24" height="24" fill="white"/>
</clipPath>
</defs>
</svg>
