<svg width="24" height="24" viewBox="0 0 24 24" fill="none" xmlns="http://www.w3.org/2000/svg">
<g clip-path="url(#clip0)">
<path fill-rule="evenodd" clip-rule="evenodd" d="M21 6.625V16.525L19.0599 16.525C18.4761 16.525 17.9214 16.7801 17.5414 17.2234L16.05 18.9634L14.5586 17.2234C14.1786 16.7801 13.6239 16.525 13.0401 16.525H6V6.625H21ZM6 5.625C5.44772 5.625 5 6.07272 5 6.625V16.525C5 17.0773 5.44772 17.525 6 17.525H13.0401C13.332 17.525 13.6093 17.6526 13.7993 17.8742L15.2907 19.6142C15.6898 20.0798 16.4102 20.0798 16.8093 19.6142L18.3007 17.8742C18.4907 17.6526 18.768 17.525 19.0599 17.525H21C21.5523 17.525 22 17.0773 22 16.525V6.625C22 6.07272 21.5523 5.625 21 5.625H6Z" fill="#343061"/>
<path d="M10.95 11.575C10.95 12.0444 10.5694 12.425 10.1 12.425C9.63056 12.425 9.25 12.0444 9.25 11.575C9.25 11.1056 9.63056 10.725 10.1 10.725C10.5694 10.725 10.95 11.1056 10.95 11.575Z" fill="#343061"/>
<path d="M14.35 11.575C14.35 12.0444 13.9694 12.425 13.5 12.425C13.0306 12.425 12.65 12.0444 12.65 11.575C12.65 11.1056 13.0306 10.725 13.5 10.725C13.9694 10.725 14.35 11.1056 14.35 11.575Z" fill="#343061"/>
<path d="M17.75 11.575C17.75 12.0444 17.3694 12.425 16.9 12.425C16.4306 12.425 16.05 12.0444 16.05 11.575C16.05 11.1056 16.4306 10.725 16.9 10.725C17.3694 10.725 17.75 11.1056 17.75 11.575Z" fill="#343061"/>
<path fill-rule="evenodd" clip-rule="evenodd" d="M2.5 5C2.5 4.17157 3.17157 3.5 4 3.5H17C17.8284 3.5 18.5 4.17157 18.5 5V5.68067H17.5V5C17.5 4.72386 17.2761 4.5 17 4.5H4C3.72386 4.5 3.5 4.72386 3.5 5V13C3.5 13.2761 3.72386 13.5 4 13.5H5.64706V14.5H4C3.17157 14.5 2.5 13.8284 2.5 13V5Z" fill="#343061"/>
</g>
<defs>
<clipPath id="clip0">
<rect width="24" height="24" fill="white"/>
</clipPath>
</defs>
</svg>
