<svg width="24" height="24" viewBox="0 0 24 24" fill="none" xmlns="http://www.w3.org/2000/svg">
<g clip-path="url(#clip0)">
<path fill-rule="evenodd" clip-rule="evenodd" d="M15.5499 12.3774C15.5493 12.3782 15.5487 12.379 15.548 12.3798C15.551 12.3814 15.5539 12.383 15.5568 12.3846C15.5545 12.3822 15.5522 12.3798 15.5499 12.3774ZM16.4822 9.0677C16.6474 9.02354 16.821 9 17.0001 9C18.1046 9 19.0001 9.89543 19.0001 11C19.0001 12.1046 18.1046 13 17.0001 13C16.7757 13 16.5599 12.963 16.3585 12.8949C16.9993 13.3677 17.5443 13.9422 17.97 14.5892C19.5077 14.881 20.578 15.8496 20.8993 16.92C20.7775 16.9312 20.6377 16.9415 20.4791 16.9505C20.0396 16.9753 19.5116 16.9877 18.917 16.9939C18.9714 17.3205 18.9996 17.6543 19 17.993C20.7659 17.9729 22 17.8947 22 17.5909C22 15.7259 20.4746 14.1523 18.3888 13.6599C19.3465 13.1588 20.0001 12.1557 20.0001 11C20.0001 9.34315 18.6569 8 17.0001 8C16.7585 8 16.5236 8.02855 16.2985 8.08247C16.392 8.39693 16.4538 8.72677 16.4822 9.0677ZM5 17.993C3.2341 17.9729 2 17.8947 2 17.5909C2 15.7258 3.52547 14.1523 5.61126 13.6599C4.6536 13.1588 4.00007 12.1557 4.00007 11C4.00007 9.34315 5.34322 8 7.00007 8C7.2416 8 7.47647 8.02854 7.70148 8.08244C7.60804 8.39689 7.54616 8.72673 7.51782 9.06766C7.35268 9.02353 7.17912 9 7.00007 9C5.8955 9 5.00007 9.89543 5.00007 11C5.00007 12.1046 5.8955 13 7.00007 13C7.22438 13 7.44006 12.9631 7.64137 12.895C7.00066 13.3677 6.45563 13.9422 6.03002 14.5892C4.49233 14.881 3.422 15.8496 3.10072 16.92C3.22253 16.9312 3.36232 16.9415 3.52089 16.9505C3.96042 16.9753 4.48845 16.9877 5.08295 16.9939C5.02863 17.3205 5.00039 17.6543 5 17.993ZM8.44349 12.3844C8.44571 12.3821 8.44792 12.3798 8.45013 12.3774C8.45075 12.3782 8.45136 12.379 8.45198 12.3798C8.44915 12.3813 8.44632 12.3829 8.44349 12.3844Z" fill="#343061"/>
<path fill-rule="evenodd" clip-rule="evenodd" d="M14.6001 9.6C14.6001 11.0359 13.436 12.2 12.0001 12.2C10.5641 12.2 9.40007 11.0359 9.40007 9.6C9.40007 8.16406 10.5641 7 12.0001 7C13.436 7 14.6001 8.16406 14.6001 9.6ZM13.6666 12.7919C14.8158 12.1906 15.6001 10.9869 15.6001 9.6C15.6001 7.61177 13.9883 6 12.0001 6C10.0118 6 8.40007 7.61177 8.40007 9.6C8.40007 10.9869 9.1843 12.1906 10.3335 12.7918C7.83056 13.3827 6 15.271 6 17.5091C6 18 8.68629 18 12 18C15.3137 18 18 18 18 17.5091C18 15.271 16.1695 13.3828 13.6666 12.7919ZM16.1862 16.9402C15.1353 16.9996 13.6687 17 12 17C10.3313 17 8.86468 16.9996 7.81378 16.9402C7.51449 16.9233 7.26675 16.9024 7.06849 16.8786C7.44653 15.1385 9.35754 13.6 12 13.6C14.6425 13.6 16.5535 15.1385 16.9315 16.8786C16.7332 16.9024 16.4855 16.9233 16.1862 16.9402Z" fill="#343061"/>
</g>
<defs>
<clipPath id="clip0">
<rect width="24" height="24" fill="white"/>
</clipPath>
</defs>
</svg>
