<svg width="24" height="24" viewBox="0 0 24 24" fill="none" xmlns="http://www.w3.org/2000/svg">
<g clip-path="url(#clip0)">
<path fill-rule="evenodd" clip-rule="evenodd" d="M12 21C7.02944 21 3 16.9706 3 12C3 7.02944 7.02944 3 12 3C16.9706 3 21 7.02944 21 12C21 16.9706 16.9706 21 12 21ZM12 22C17.5228 22 22 17.5228 22 12C22 6.47715 17.5228 2 12 2C6.47715 2 2 6.47715 2 12C2 17.5228 6.47715 22 12 22Z" fill="#343061"/>
<path d="M11.5 4.5C11.5 4.22386 11.7239 4 12 4C12.2761 4 12.5 4.22386 12.5 4.5V12.5H11.5V4.5Z" fill="#343061"/>
<path d="M12.5 12.5C12.5 12.5 12.5 12.2761 12.5 12C12.5 11.7239 12.5 11.5 12.5 11.5H19.5C19.7761 11.5 20 11.7239 20 12C20 12.2761 19.7761 12.5 19.5 12.5H12.5Z" fill="#343061"/>
</g>
<defs>
<clipPath id="clip0">
<rect width="24" height="24" fill="white"/>
</clipPath>
</defs>
</svg>
