<svg width="24" height="24" viewBox="0 0 24 24" fill="none" xmlns="http://www.w3.org/2000/svg">
<g clip-path="url(#clip0)">
<path fill-rule="evenodd" clip-rule="evenodd" d="M16.0001 12.2C17.436 12.2 18.6001 11.0359 18.6001 9.6C18.6001 8.16406 17.436 7 16.0001 7C14.5641 7 13.4001 8.16406 13.4001 9.6C13.4001 11.0359 14.5641 12.2 16.0001 12.2ZM19.6001 9.6C19.6001 10.9869 18.8158 12.1906 17.6666 12.7919C20.1695 13.3828 22 15.271 22 17.5091C22 18 19.3137 18 16 18C15.6593 18 15.3252 18 15 17.9995C15 17.6604 14.972 17.3263 14.918 16.9993C15.2671 17 15.6285 17 16 17C17.6687 17 19.1353 16.9996 20.1862 16.9402C20.4855 16.9233 20.7333 16.9024 20.9315 16.8786C20.5535 15.1385 18.6425 13.6 16 13.6C15.1045 13.6 14.293 13.7767 13.5967 14.078C13.3783 13.8075 13.1373 13.553 12.8758 13.3172C13.3261 13.0921 13.8154 12.9142 14.3335 12.7918C13.1843 12.1906 12.4001 10.9869 12.4001 9.6C12.4001 7.61177 14.0119 6 16.0001 6C17.9883 6 19.6001 7.61177 19.6001 9.6Z" fill="#343061"/>
<path fill-rule="evenodd" clip-rule="evenodd" d="M10.6001 9.6C10.6001 11.0359 9.43601 12.2 8.00007 12.2C6.56413 12.2 5.40007 11.0359 5.40007 9.6C5.40007 8.16406 6.56413 7 8.00007 7C9.43601 7 10.6001 8.16406 10.6001 9.6ZM9.66661 12.7919C10.8158 12.1906 11.6001 10.9869 11.6001 9.6C11.6001 7.61177 9.9883 6 8.00007 6C6.01185 6 4.40007 7.61177 4.40007 9.6C4.40007 10.9869 5.1843 12.1906 6.3335 12.7918C3.83056 13.3827 2 15.271 2 17.5091C2 18 4.68629 18 8 18C11.3137 18 14 18 14 17.5091C14 15.271 12.1695 13.3828 9.66661 12.7919ZM12.1862 16.9402C11.1353 16.9996 9.6687 17 8 17C6.3313 17 4.86468 16.9996 3.81378 16.9402C3.51449 16.9233 3.26675 16.9024 3.06849 16.8786C3.44653 15.1385 5.35754 13.6 8 13.6C10.6425 13.6 12.5535 15.1385 12.9315 16.8786C12.7332 16.9024 12.4855 16.9233 12.1862 16.9402Z" fill="#343061"/>
</g>
<defs>
<clipPath id="clip0">
<rect width="24" height="24" fill="white"/>
</clipPath>
</defs>
</svg>
