<svg width="24" height="24" viewBox="0 0 24 24" fill="none" xmlns="http://www.w3.org/2000/svg">
<g clip-path="url(#clip0)">
<path fill-rule="evenodd" clip-rule="evenodd" d="M21 6V18H18.4599C17.8761 18 17.3214 18.2551 16.9414 18.6984L15 20.9634L13.0586 18.6984C12.6786 18.2551 12.1239 18 11.5401 18H3V6H21ZM3 5C2.44772 5 2 5.44772 2 6V18C2 18.5523 2.44772 19 3 19H11.5401C11.832 19 12.1093 19.1276 12.2993 19.3492L14.2407 21.6142C14.6398 22.0798 15.3602 22.0798 15.7593 21.6142L17.7007 19.3492C17.8907 19.1276 18.168 19 18.4599 19H21C21.5523 19 22 18.5523 22 18V6C22 5.44772 21.5523 5 21 5H3Z" fill="#343061"/>
<path d="M9 12C9 12.5523 8.55228 13 8 13C7.44772 13 7 12.5523 7 12C7 11.4477 7.44772 11 8 11C8.55228 11 9 11.4477 9 12Z" fill="#343061"/>
<path d="M13 12C13 12.5523 12.5523 13 12 13C11.4477 13 11 12.5523 11 12C11 11.4477 11.4477 11 12 11C12.5523 11 13 11.4477 13 12Z" fill="#343061"/>
<path d="M17 12C17 12.5523 16.5523 13 16 13C15.4477 13 15 12.5523 15 12C15 11.4477 15.4477 11 16 11C16.5523 11 17 11.4477 17 12Z" fill="#343061"/>
</g>
<defs>
<clipPath id="clip0">
<rect width="24" height="24" fill="white"/>
</clipPath>
</defs>
</svg>
