<svg width="33" height="33" viewBox="0 0 33 33" fill="none" xmlns="http://www.w3.org/2000/svg">
<path d="M19.0535 11.4191H22.8243C23.2101 11.4444 24.1162 11.7988 24.6538 13.0138L25.0645 17.4562C25.0396 17.6334 24.8703 18.0409 24.3924 18.2535C23.9145 18.4661 23.5462 18.2409 23.4217 18.1016V25.2778C23.3222 25.4549 23.0036 25.8473 22.5257 25.9992C22.2892 26.0118 21.7267 25.8853 21.3683 25.2778V19.3546L21.0322 18.9749L20.6962 19.3546L20.6589 25.2778C20.5842 25.417 20.2855 25.7562 19.6882 25.9992C19.5139 25.9739 19.0684 25.7941 18.6801 25.2778V18.1016C18.5059 18.2029 18.0678 18.3826 17.7094 18.2915C17.4854 18.1902 17.0373 17.8814 17.0373 17.4562C17.0373 17.124 17.0222 17.1872 17.0096 17.3092L17 17.4182C17.0027 17.3822 17.006 17.3434 17.0096 17.3092L17.3734 13.1657C17.4978 12.748 18.0081 11.814 19.0535 11.4191Z" fill="white"/>
<path d="M25.4005 18.3674C26.0725 17.9118 24.9151 12.1026 24.9151 12.1026C25.7515 11.4647 26.533 11.3812 26.8193 11.4191L28.9474 10.8876L31.6355 8.03989C32.9199 7.79689 33.0667 8.72333 32.9796 9.21693L29.8434 12.8999C29.3954 13.4163 29.1589 14.2541 29.0967 14.6085L28.9474 25.3537C28.2903 26.3561 27.3544 25.7714 26.9686 25.3537V19.0509L25.9232 25.4296C25.0869 26.432 24.3302 25.7967 24.0564 25.3537L24.6538 18.899C24.6538 18.899 25.1043 18.5682 25.4005 18.3674Z" fill="white"/>
<path d="M14.8182 11.4191H10.8116C10.4017 11.4444 9.43908 11.7988 8.86785 13.0138L8.43149 17.4562C8.45794 17.6334 8.63777 18.0409 9.14553 18.2535C9.6533 18.4661 10.0447 18.2409 10.1769 18.1016V25.2778C10.2827 25.4549 10.6212 25.8473 11.129 25.9992C11.3802 26.0118 11.9779 25.8853 12.3587 25.2778V19.3546L12.7157 18.9749L13.0728 19.3546L13.1124 25.2778C13.1918 25.417 13.5091 25.7562 14.1438 25.9992C14.329 25.9739 14.8023 25.7941 15.2149 25.2778V18.1016C15.4 18.2029 15.8655 18.3826 16.2463 18.2915C16.4843 18.1902 16.9603 17.8814 16.9603 17.4562C16.9603 17.124 16.9765 17.1872 16.9898 17.3092L17 17.4182C16.9971 17.3822 16.9936 17.3434 16.9898 17.3092L16.6033 13.1657C16.4711 12.748 15.9289 11.814 14.8182 11.4191Z" fill="white"/>
<path d="M8.07447 18.3674C7.66589 17.9076 8.59017 12.1026 8.59017 12.1026C7.70158 11.4647 6.87118 11.3812 6.56705 11.4191L4.30591 10.8876L1.44974 8.03989C0.0851269 7.79689 -0.0709038 8.72333 0.0216579 9.21693L3.35386 12.8999C3.82988 13.4163 4.08112 14.2541 4.14724 14.6085L4.30591 25.3537C5.00409 26.3561 5.99846 25.7714 6.40837 25.3537V19.0509L7.5191 25.4296C8.40769 26.432 9.21165 25.7967 9.50255 25.3537L8.86785 18.899C8.86785 18.899 8.31915 18.6428 8.07447 18.3674Z" fill="white"/>
<circle cx="13" cy="9" r="2" fill="white"/>
<circle cx="7" cy="9" r="2" fill="white"/>
<circle cx="21" cy="9" r="2" fill="white"/>
<circle cx="26" cy="9" r="2" fill="white"/>
</svg>
