<svg width="100" height="100" viewBox="0 0 100 100" fill="none" xmlns="http://www.w3.org/2000/svg">
<path d="M43.8382 32.5515C49.5134 32.5515 54.114 27.9509 54.114 22.2757C54.114 16.6006 49.5134 12 43.8382 12C38.1631 12 33.5625 16.6006 33.5625 22.2757C33.5625 27.9509 38.1631 32.5515 43.8382 32.5515Z" fill="#FF6A6A"/>
<path d="M79.8092 50.5466L70.2322 48.5488C66.9694 47.8653 63.748 49.3608 62.0449 52.0195C60.3908 51.1698 58.6121 50.4371 56.7201 49.8291V44.1342C56.7239 39.8253 53.1966 36.3018 48.9029 36.3018H39.1106C34.7941 36.3018 31.282 39.8253 31.282 44.1342V49.8592C29.4089 50.4559 27.6491 51.1886 25.9836 52.042C24.2805 49.372 21.0553 47.8653 17.7886 48.5488L8.20389 50.5466C3.99689 51.4265 1.26646 55.5995 2.14637 59.8216L4.55205 71.3134C5.42444 75.524 9.60115 78.2545 13.812 77.3746L16.8444 76.7401C18.3625 78.9833 20.4623 81.0415 23.1511 82.8013C28.7515 86.472 36.1497 88.4962 44.0009 88.4962C56.0138 88.4962 66.3614 83.6662 71.1272 76.7287L74.2088 77.3746C78.4158 78.2506 82.5925 75.524 83.4649 71.3134L85.8743 59.8216C86.7503 55.5995 84.0199 51.4265 79.8092 50.5466ZM43.997 84.5725C36.9048 84.5725 30.2582 82.7862 25.2998 79.5196C23.6003 78.4092 22.1917 77.1745 21.0626 75.8527L23.3852 75.3654C27.5997 74.4894 30.3301 70.3163 29.4502 66.1018L27.2938 55.7693C28.5514 55.0934 29.8732 54.5004 31.278 53.9944V55.8789C31.278 60.1803 34.7976 63.7038 39.1065 63.7038H48.8989C53.1966 63.7038 56.7162 60.1766 56.7162 55.8789V53.8962C58.1475 54.406 59.4918 54.9915 60.7382 55.6561L58.5515 66.1056C57.6791 70.3202 60.4057 74.4932 64.6203 75.3693L66.9654 75.8602C62.5924 81.0378 53.9405 84.5725 43.997 84.5725Z" fill="#FF6A6A"/>
<path d="M77.724 46.0598C83.3991 46.0598 87.9997 41.4592 87.9997 35.784C87.9997 30.1089 83.3991 25.5083 77.724 25.5083C72.0488 25.5083 67.4482 30.1089 67.4482 35.784C67.4482 41.4592 72.0488 46.0598 77.724 46.0598Z" fill="#FF6A6A"/>
<path d="M12.3841 45.8444C17.943 44.6812 21.4929 39.2319 20.3448 33.6766C19.1741 28.1253 13.736 24.5602 8.17323 25.7234C2.62184 26.8828 -0.943171 32.3284 0.220014 37.8836C1.37952 43.4426 6.82516 47.0039 12.3841 45.8444Z" fill="#FF6A6A"/>
</svg>
