<svg width="100" height="100" viewBox="0 0 100 100" fill="none" xmlns="http://www.w3.org/2000/svg">
<path d="M34.0002 48.7237C43.9403 48.7237 51.999 38.9359 51.999 26.862C51.999 14.7878 49.3532 5 34.0002 5C18.6473 5 16.001 14.7878 16.001 26.862C16.001 38.9359 24.0597 48.7237 34.0002 48.7237Z" fill="#FF6A6A"/>
<path d="M0.00353942 82.1039C0.000474192 81.3677 -0.00259103 81.8965 0.00353942 82.1039V82.1039Z" fill="#FF6A6A"/>
<path d="M67.9951 82.679C68.0048 82.4774 67.9984 81.2807 67.9951 82.679V82.679Z" fill="#FF6A6A"/>
<path d="M67.9567 81.2215C67.6233 60.1884 64.8764 54.1951 43.8558 50.4014C43.8558 50.4014 40.8968 54.1719 34.0001 54.1719C27.1033 54.1719 24.1438 50.4014 24.1438 50.4014C3.35266 54.1537 0.438657 60.0581 0.0555041 80.5382C0.0240856 82.2105 0.00952583 82.2984 0.00390625 82.1042C0.00518343 82.468 0.00671547 83.1408 0.00671547 84.314C0.00671547 84.314 5.01121 94.4027 34.0001 94.4027C62.9884 94.4027 67.9934 84.314 67.9934 84.314C67.9934 83.5602 67.994 83.0361 67.9947 82.6795C67.9891 82.7995 67.9779 82.5668 67.9567 81.2215Z" fill="#FF6A6A"/>
</svg>
