<svg width="100" height="100" viewBox="0 0 100 100" fill="none" xmlns="http://www.w3.org/2000/svg">
<path d="M40.7842 62.7515C40.2939 62.7515 39.8503 62.9487 39.5313 63.2703L35.9905 66.8137C35.6687 67.1328 35.4717 67.5764 35.4717 68.064C35.4717 69.042 36.2654 69.833 37.2407 69.833C37.731 69.833 38.1746 69.6358 38.4937 69.3142L42.0344 65.7761C42.3562 65.4544 42.5532 65.0109 42.5532 64.5207C42.5532 63.5452 41.7622 62.7515 40.7842 62.7515Z" fill="#FF6A6A"/>
<path d="M40.7854 55.6699C40.2951 55.6699 39.8516 55.8671 39.5325 56.1887L28.9075 66.8111C28.5884 67.1301 28.3887 67.5762 28.3887 68.064C28.3887 69.042 29.1824 69.833 30.1604 69.833C30.6481 69.833 31.0916 69.6358 31.4107 69.3142L42.0357 58.6919C42.3574 58.3728 42.5545 57.9267 42.5545 57.439C42.5545 56.461 41.7634 55.6699 40.7854 55.6699Z" fill="#FF6A6A"/>
<path d="M13.4473 50.3574V75.1455H48.8657V50.3574H13.4473ZM45.3223 71.6074H16.9907V53.8955H45.3223V71.6074Z" fill="#FF6A6A"/>
<path d="M84.8755 35.9451L84.8184 35.626C84.8081 35.5767 84.8028 35.5274 84.7925 35.4794L78.8315 21.0827V14H6.06986V21.0829L0.20752 35.4783C0.19457 35.5354 0.186768 35.5925 0.176309 35.6481L0.121855 35.9451C0.0415039 36.4601 0 36.988 0 37.5262C0 41.3758 2.14791 44.722 5.3125 46.4326V86.602H79.6875V46.4326C82.8496 44.7219 85 41.3756 85 37.5262C85 36.988 84.9558 36.4601 84.8755 35.9451ZM80.873 35.25H67.8615L66.2973 24.7352H76.5903L80.873 35.25ZM9.6133 17.5408H75.2906V21.0829H9.6133V17.5408ZM64.8083 38.7908L65.0003 40.0761L63.9524 41.4703C62.697 43.1434 60.7773 44.1031 58.6892 44.1031C56.601 44.1031 54.6814 43.1434 53.426 41.4703L52.3572 40.0462L52.2949 38.7908H64.8083ZM52.1211 35.25L51.605 24.7352H62.7151L64.2819 35.25H52.1211ZM48.749 38.7906L48.8112 40.0747L47.7607 41.4703C46.5053 43.1434 44.5857 44.1031 42.5 44.1031C40.4092 44.1031 38.4922 43.1434 37.2342 41.4703L36.1602 40.0371L36.2225 38.7906H48.749ZM36.4016 35.25L36.9333 24.7352H48.0615L48.5752 35.25H36.4016ZM20.7363 35.25L22.2823 24.7352H33.3897L32.8553 35.25H20.7363ZM32.6739 38.7908L32.609 40.089L31.5714 41.4703C30.3133 43.1434 28.3963 44.1031 26.3082 44.1031C24.22 44.1031 22.303 43.1434 21.045 41.4703L20.023 40.1098L20.2175 38.7908H32.6739ZM8.4072 24.7352H18.7028L17.1569 35.25H4.12466L8.4072 24.7352ZM3.66264 38.7908H16.6378L16.3602 40.1669L15.3822 41.4704C14.1241 43.1435 12.2071 44.1033 10.1163 44.1033C6.92335 44.1033 4.25415 41.8154 3.66264 38.7908ZM69.0625 83.0638H54.8941V70.6645H56.6658C57.6438 70.6645 58.4375 69.8732 58.4375 68.8954C58.4375 67.9176 57.6438 67.1263 56.6658 67.1263H54.8941V54.727H69.0625V83.0638ZM76.1444 83.0638H76.1441H72.6033V51.1888H51.3533V83.0638H8.85328V47.5664C9.26566 47.6182 9.69116 47.6456 10.1165 47.6456C13.4265 47.6456 16.368 46.0555 18.2124 43.5976C20.0593 46.0555 22.9983 47.6456 26.3083 47.6456C29.6183 47.6456 32.5573 46.0555 34.4042 43.5976C36.2485 46.0555 39.1901 47.6456 42.5002 47.6456C45.8102 47.6456 48.7465 46.0555 50.5934 43.5976C52.4404 46.0555 55.3793 47.6456 58.6893 47.6456C61.9994 47.6456 64.9383 46.0555 66.7853 43.5976C68.6322 46.0555 71.5685 47.6456 74.8785 47.6456C75.3092 47.6456 75.7294 47.6183 76.1444 47.5664V83.0638V83.0638ZM74.8782 44.1033C72.7927 44.1033 70.8731 43.1435 69.6175 41.4704L68.5877 40.1035L68.388 38.7909H81.3321C80.7407 41.8154 78.074 44.1033 74.8782 44.1033Z" fill="#FF6A6A"/>
</svg>
