<svg width="33" height="33" viewBox="0 0 33 33" fill="none" xmlns="http://www.w3.org/2000/svg">
<path d="M27.3825 24.4059L17.966 14.995L6.96446 4H6.10468L5.92912 4.44583C5.46577 5.62258 5.26779 6.82614 5.35667 7.92624C5.45798 9.18024 5.93466 10.2659 6.73525 11.066L15.3237 19.6493L16.4565 18.5172L24.3964 27.3903C25.1863 28.1796 26.5458 28.2265 27.3825 27.3903C28.2058 26.5674 28.2058 25.2287 27.3825 24.4059Z" fill="white"/>
<path d="M11.896 17.0547L4.61743 24.3837C3.79419 25.2065 3.79419 26.5453 4.61743 27.368C5.39949 28.1496 6.75241 28.2186 7.60351 27.368L14.8743 20.0547L11.896 17.0547Z" fill="white"/>
<path d="M26.9873 7.99609L23.1717 11.8094L22.1763 10.8146L25.9919 7.00126L24.9965 6.00648L21.1809 9.81976L20.1856 8.82498L24.0012 5.0117L23.0058 4.01697L18.029 8.99087C17.4201 9.59935 17.0566 10.4073 17.0052 11.2659C16.9922 11.4835 16.2696 12.2106 16.1877 12.4141L19.4475 15.7188C19.6512 15.6369 20.5118 15.0009 20.7294 14.9879C21.5886 14.9367 22.397 14.5732 23.0058 13.9648L27.9827 8.99091L26.9873 7.99609Z" fill="white"/>
</svg>
