<svg width="140" height="150" viewBox="0 0 140 150" fill="none" xmlns="http://www.w3.org/2000/svg">
<path fill-rule="evenodd" clip-rule="evenodd" d="M54.6038 8.88906C60.3434 7.37024 66.4352 6 70.0837 6C73.7266 6 79.8239 7.37024 85.5635 8.88906C90.6829 10.2636 95.7691 11.7589 100.818 13.374C103.723 14.2985 105.913 16.8023 106.337 19.8895C109.49 42.9854 102.177 60.0996 93.3117 71.4247C89.5338 76.285 85.0486 80.5514 80.0055 84.0816C78.252 85.3099 76.3983 86.3886 74.464 87.3063C72.9782 87.9887 71.3934 88.5445 70.0837 88.5445C68.774 88.5445 67.1891 87.9887 65.7033 87.3063C63.7686 86.3894 61.9149 85.3106 60.1618 84.0816C55.1208 80.5509 50.6374 76.2845 46.8612 71.4247C37.9849 60.0996 30.6769 42.9854 33.8301 19.8895C34.041 18.3931 34.6712 16.9869 35.648 15.8339C36.6248 14.6808 37.9082 13.8279 39.3496 13.374C44.3983 11.759 49.4844 10.2636 54.6038 8.88906V8.88906ZM72.9177 46.7715C74.7321 46.1076 76.2562 44.8282 77.2244 43.1563C78.1926 41.4843 78.5437 39.5257 78.2164 37.6215C77.8892 35.7174 76.9043 33.9883 75.4335 32.7356C73.9626 31.4828 72.0989 30.7857 70.1669 30.7657C68.2349 30.7456 66.3571 31.4039 64.8606 32.6259C63.364 33.8478 62.3435 35.5561 61.9768 37.453C61.6101 39.35 61.9205 41.3154 62.8538 43.0071C63.7871 44.6988 65.2843 46.0095 67.0845 46.7109C66.9684 46.9475 66.8869 47.1996 66.8424 47.4593L65.0099 58.4653C64.9444 58.8593 64.9655 59.2628 65.0716 59.6478C65.1778 60.0329 65.3665 60.3902 65.6247 60.6949C65.8828 60.9997 66.2042 61.2446 66.5666 61.4126C66.9289 61.5807 67.3235 61.6678 67.7229 61.668H72.3179C72.7189 61.6682 73.1152 61.5808 73.4789 61.4118C73.8426 61.2428 74.1649 60.9963 74.4234 60.6896C74.6818 60.3829 74.8701 60.0235 74.975 59.6364C75.08 59.2493 75.099 58.844 75.0308 58.4488L73.1213 47.4428C73.0824 47.2113 73.0139 46.9856 72.9177 46.7715V46.7715Z" fill="#FF6A6A"/>
<path d="M36.6968 125.986C36.6968 127.494 36.1499 128.669 35.0562 129.513C33.9624 130.357 32.478 130.779 30.603 130.779C28.5718 130.779 27.0093 130.517 25.9155 129.994V128.072C26.6187 128.369 27.3843 128.603 28.2124 128.775C29.0405 128.947 29.8608 129.033 30.6733 129.033C32.0015 129.033 33.0015 128.783 33.6733 128.283C34.3452 127.775 34.6812 127.072 34.6812 126.173C34.6812 125.58 34.5601 125.095 34.3179 124.72C34.0835 124.337 33.6851 123.986 33.1226 123.666C32.5679 123.345 31.7202 122.982 30.5796 122.576C28.9858 122.005 27.8452 121.33 27.1577 120.548C26.478 119.767 26.1382 118.748 26.1382 117.49C26.1382 116.169 26.6343 115.119 27.6265 114.337C28.6187 113.556 29.9312 113.166 31.564 113.166C33.2671 113.166 34.8335 113.478 36.2632 114.103L35.6421 115.837C34.228 115.244 32.853 114.947 31.5171 114.947C30.4624 114.947 29.6382 115.173 29.0444 115.626C28.4507 116.08 28.1538 116.708 28.1538 117.513C28.1538 118.107 28.2632 118.595 28.4819 118.978C28.7007 119.353 29.0679 119.701 29.5835 120.021C30.1069 120.333 30.9038 120.681 31.9741 121.064C33.771 121.705 35.0054 122.392 35.6772 123.126C36.3569 123.861 36.6968 124.814 36.6968 125.986ZM45.3335 130.779C43.4351 130.779 41.9351 130.201 40.8335 129.044C39.7397 127.888 39.1929 126.283 39.1929 124.228C39.1929 122.158 39.7007 120.513 40.7163 119.294C41.7397 118.076 43.1108 117.466 44.8296 117.466C46.439 117.466 47.7124 117.998 48.6499 119.06C49.5874 120.115 50.0562 121.509 50.0562 123.244V124.474H41.2085C41.2476 125.982 41.6265 127.126 42.3452 127.908C43.0718 128.689 44.0913 129.08 45.4038 129.08C46.7866 129.08 48.1538 128.791 49.5054 128.212V129.947C48.8179 130.244 48.1655 130.455 47.5483 130.58C46.939 130.712 46.2007 130.779 45.3335 130.779ZM44.8062 119.095C43.7749 119.095 42.9507 119.431 42.3335 120.103C41.7241 120.775 41.3647 121.705 41.2554 122.892H47.9702C47.9702 121.666 47.6968 120.728 47.1499 120.08C46.603 119.423 45.8218 119.095 44.8062 119.095ZM58.5171 130.779C56.6577 130.779 55.2163 130.208 54.1929 129.068C53.1772 127.919 52.6694 126.298 52.6694 124.205C52.6694 122.056 53.1851 120.396 54.2163 119.224C55.2554 118.052 56.7319 117.466 58.646 117.466C59.2632 117.466 59.8804 117.533 60.4976 117.666C61.1147 117.798 61.5991 117.955 61.9507 118.134L61.353 119.787C60.9233 119.615 60.4546 119.474 59.9468 119.365C59.439 119.248 58.9897 119.189 58.5991 119.189C55.9897 119.189 54.6851 120.853 54.6851 124.181C54.6851 125.759 55.0015 126.97 55.6343 127.814C56.2749 128.658 57.2202 129.08 58.4702 129.08C59.5405 129.08 60.6382 128.849 61.7632 128.388V130.111C60.9038 130.556 59.8218 130.779 58.5171 130.779ZM66.6499 117.701V126.033C66.6499 127.08 66.8882 127.861 67.3647 128.376C67.8413 128.892 68.5874 129.15 69.603 129.15C70.9468 129.15 71.9272 128.783 72.5444 128.048C73.1694 127.314 73.4819 126.115 73.4819 124.451V117.701H75.4272V130.544H73.8218L73.5405 128.822H73.4351C73.0366 129.455 72.4819 129.939 71.771 130.275C71.0679 130.611 70.2632 130.779 69.3569 130.779C67.7944 130.779 66.6226 130.408 65.8413 129.666C65.0679 128.923 64.6812 127.736 64.6812 126.103V117.701H66.6499ZM85.4233 117.466C85.9937 117.466 86.5054 117.513 86.9585 117.607L86.689 119.412C86.1577 119.294 85.689 119.236 85.2827 119.236C84.2437 119.236 83.353 119.658 82.6108 120.501C81.8765 121.345 81.5093 122.396 81.5093 123.654V130.544H79.564V117.701H81.1694L81.3921 120.08H81.4858C81.9624 119.244 82.5366 118.599 83.2085 118.146C83.8804 117.693 84.6187 117.466 85.4233 117.466ZM94.7866 130.779C92.8882 130.779 91.3882 130.201 90.2866 129.044C89.1929 127.888 88.646 126.283 88.646 124.228C88.646 122.158 89.1538 120.513 90.1694 119.294C91.1929 118.076 92.564 117.466 94.2827 117.466C95.8921 117.466 97.1655 117.998 98.103 119.06C99.0405 120.115 99.5093 121.509 99.5093 123.244V124.474H90.6616C90.7007 125.982 91.0796 127.126 91.7983 127.908C92.5249 128.689 93.5444 129.08 94.8569 129.08C96.2397 129.08 97.6069 128.791 98.9585 128.212V129.947C98.271 130.244 97.6187 130.455 97.0015 130.58C96.3921 130.712 95.6538 130.779 94.7866 130.779ZM94.2593 119.095C93.228 119.095 92.4038 119.431 91.7866 120.103C91.1772 120.775 90.8179 121.705 90.7085 122.892H97.4233C97.4233 121.666 97.1499 120.728 96.603 120.08C96.0562 119.423 95.2749 119.095 94.2593 119.095ZM111.58 128.822H111.474C110.576 130.126 109.232 130.779 107.443 130.779C105.763 130.779 104.455 130.205 103.517 129.056C102.587 127.908 102.123 126.275 102.123 124.158C102.123 122.041 102.591 120.396 103.529 119.224C104.466 118.052 105.771 117.466 107.443 117.466C109.185 117.466 110.521 118.099 111.451 119.365H111.603L111.521 118.439L111.474 117.537V112.31H113.419V130.544H111.837L111.58 128.822ZM107.689 129.15C109.017 129.15 109.978 128.791 110.572 128.072C111.173 127.345 111.474 126.177 111.474 124.568V124.158C111.474 122.337 111.169 121.041 110.56 120.267C109.958 119.486 108.994 119.095 107.666 119.095C106.525 119.095 105.65 119.541 105.041 120.431C104.439 121.314 104.138 122.564 104.138 124.181C104.138 125.822 104.439 127.06 105.041 127.896C105.642 128.732 106.525 129.15 107.689 129.15Z" fill="#FF6A6A"/>
</svg>
