<svg width="140" height="150" viewBox="0 0 140 150" fill="none" xmlns="http://www.w3.org/2000/svg">
<path d="M88 12C88 7.05 92.05 3 97 3C101.95 3 106 7.05 106 12C106 16.95 101.95 21 97 21C92.05 21 88 16.95 88 12ZM109.51 28.11C105.685 26.445 101.5 25.5 97 25.5C93.985 25.5 91.105 25.95 88.36 26.76C90.97 29.235 92.5 32.7 92.5 36.435V39H115V36.435C115 32.79 112.75 29.55 109.51 28.11ZM43 21C47.95 21 52 16.95 52 12C52 7.05 47.95 3 43 3C38.05 3 34 7.05 34 12C34 16.95 38.05 21 43 21ZM51.64 26.76C48.895 25.95 46.015 25.5 43 25.5C38.5 25.5 34.315 26.445 30.49 28.11C27.25 29.55 25 32.79 25 36.435V39H47.5V36.435C47.5 32.7 49.03 29.235 51.64 26.76V26.76ZM61 12C61 7.05 65.05 3 70 3C74.95 3 79 7.05 79 12C79 16.95 74.95 21 70 21C65.05 21 61 16.95 61 12ZM88 39H52V36.435C52 32.79 54.25 29.55 57.49 28.11C61.315 26.445 65.5 25.5 70 25.5C74.5 25.5 78.685 26.445 82.51 28.11C85.75 29.55 88 32.79 88 36.435V39ZM83.5 66C83.5 61.05 87.55 57 92.5 57C97.45 57 101.5 61.05 101.5 66C101.5 70.95 97.45 75 92.5 75C87.55 75 83.5 70.95 83.5 66ZM110.5 93H74.5V90.435C74.5 86.79 76.75 83.55 79.99 82.11C83.815 80.445 88 79.5 92.5 79.5C97 79.5 101.185 80.445 105.01 82.11C108.25 83.55 110.5 86.79 110.5 90.435V93ZM38.5 66C38.5 61.05 42.55 57 47.5 57C52.45 57 56.5 61.05 56.5 66C56.5 70.95 52.45 75 47.5 75C42.55 75 38.5 70.95 38.5 66ZM65.5 93H29.5V90.435C29.5 86.79 31.75 83.55 34.99 82.11C38.815 80.445 43 79.5 47.5 79.5C52 79.5 56.185 80.445 60.01 82.11C63.25 83.55 65.5 86.79 65.5 90.435V93ZM73.375 52.5V43.5H66.625V52.5H56.5L70 66L83.5 52.5H73.375Z" fill="#FF6A6A"/>
<path d="M32.8164 135V117.867H34.8086V133.195H42.3672V135H32.8164ZM56.0781 128.566C56.0781 130.66 55.5508 132.297 54.4961 133.477C53.4414 134.648 51.9844 135.234 50.125 135.234C48.9766 135.234 47.957 134.965 47.0664 134.426C46.1758 133.887 45.4883 133.113 45.0039 132.105C44.5195 131.098 44.2773 129.918 44.2773 128.566C44.2773 126.473 44.8008 124.844 45.8477 123.68C46.8945 122.508 48.3477 121.922 50.207 121.922C52.0039 121.922 53.4297 122.52 54.4844 123.715C55.5469 124.91 56.0781 126.527 56.0781 128.566ZM46.293 128.566C46.293 130.207 46.6211 131.457 47.2773 132.316C47.9336 133.176 48.8984 133.605 50.1719 133.605C51.4453 133.605 52.4102 133.18 53.0664 132.328C53.7305 131.469 54.0625 130.215 54.0625 128.566C54.0625 126.934 53.7305 125.695 53.0664 124.852C52.4102 124 51.4375 123.574 50.1484 123.574C48.875 123.574 47.9141 123.992 47.2656 124.828C46.6172 125.664 46.293 126.91 46.293 128.566ZM57.4609 122.156H59.5469L62.3594 129.48C62.9766 131.152 63.3594 132.359 63.5078 133.102H63.6016C63.7031 132.703 63.9141 132.023 64.2344 131.062C64.5625 130.094 65.625 127.125 67.4219 122.156H69.5078L63.9883 136.781C63.4414 138.227 62.8008 139.25 62.0664 139.852C61.3398 140.461 60.4453 140.766 59.3828 140.766C58.7891 140.766 58.2031 140.699 57.625 140.566V139.008C58.0547 139.102 58.5352 139.148 59.0664 139.148C60.4023 139.148 61.3555 138.398 61.9258 136.898L62.6406 135.07L57.4609 122.156ZM79.4922 135L79.1055 133.172H79.0117C78.3711 133.977 77.7305 134.523 77.0898 134.812C76.457 135.094 75.6641 135.234 74.7109 135.234C73.4375 135.234 72.4375 134.906 71.7109 134.25C70.9922 133.594 70.6328 132.66 70.6328 131.449C70.6328 128.855 72.707 127.496 76.8555 127.371L79.0352 127.301V126.504C79.0352 125.496 78.8164 124.754 78.3789 124.277C77.9492 123.793 77.2578 123.551 76.3047 123.551C75.2344 123.551 74.0234 123.879 72.6719 124.535L72.0742 123.047C72.707 122.703 73.3984 122.434 74.1484 122.238C74.9062 122.043 75.6641 121.945 76.4219 121.945C77.9531 121.945 79.0859 122.285 79.8203 122.965C80.5625 123.645 80.9336 124.734 80.9336 126.234V135H79.4922ZM75.0977 133.629C76.3086 133.629 77.2578 133.297 77.9453 132.633C78.6406 131.969 78.9883 131.039 78.9883 129.844V128.684L77.043 128.766C75.4961 128.82 74.3789 129.062 73.6914 129.492C73.0117 129.914 72.6719 130.574 72.6719 131.473C72.6719 132.176 72.8828 132.711 73.3047 133.078C73.7344 133.445 74.332 133.629 75.0977 133.629ZM86.8984 135H84.9531V116.766H86.8984V135ZM95.1719 133.629C95.5156 133.629 95.8477 133.605 96.168 133.559C96.4883 133.504 96.7422 133.449 96.9297 133.395V134.883C96.7188 134.984 96.4062 135.066 95.9922 135.129C95.5859 135.199 95.2188 135.234 94.8906 135.234C92.4062 135.234 91.1641 133.926 91.1641 131.309V123.668H89.3242V122.73L91.1641 121.922L91.9844 119.18H93.1094V122.156H96.8359V123.668H93.1094V131.227C93.1094 132 93.293 132.594 93.6602 133.008C94.0273 133.422 94.5312 133.629 95.1719 133.629ZM97.4688 122.156H99.5547L102.367 129.48C102.984 131.152 103.367 132.359 103.516 133.102H103.609C103.711 132.703 103.922 132.023 104.242 131.062C104.57 130.094 105.633 127.125 107.43 122.156H109.516L103.996 136.781C103.449 138.227 102.809 139.25 102.074 139.852C101.348 140.461 100.453 140.766 99.3906 140.766C98.7969 140.766 98.2109 140.699 97.6328 140.566V139.008C98.0625 139.102 98.543 139.148 99.0742 139.148C100.41 139.148 101.363 138.398 101.934 136.898L102.648 135.07L97.4688 122.156Z" fill="#FF6A6A"/>
</svg>
