<svg width="140" height="150" viewBox="0 0 140 150" fill="none" xmlns="http://www.w3.org/2000/svg">
<path fill-rule="evenodd" clip-rule="evenodd" d="M64 83.5C64 83.5 58 83.5 58 77.5C58 71.5 64 53.5 88 53.5C112 53.5 118 71.5 118 77.5C118 83.5 112 83.5 112 83.5H64ZM88 47.5C92.7739 47.5 97.3523 45.6036 100.728 42.2279C104.104 38.8523 106 34.2739 106 29.5C106 24.7261 104.104 20.1477 100.728 16.7721C97.3523 13.3964 92.7739 11.5 88 11.5C83.2261 11.5 78.6477 13.3964 75.2721 16.7721C71.8964 20.1477 70 24.7261 70 29.5C70 34.2739 71.8964 38.8523 75.2721 42.2279C78.6477 45.6036 83.2261 47.5 88 47.5V47.5ZM53.296 83.5C52.4065 81.6269 51.9629 79.5732 52 77.5C52 69.37 56.08 61 63.616 55.18C59.8545 54.021 55.9357 53.4542 52 53.5C28 53.5 22 71.5 22 77.5C22 83.5 28 83.5 28 83.5H53.296ZM49 47.5C52.9782 47.5 56.7936 45.9196 59.6066 43.1066C62.4196 40.2936 64 36.4782 64 32.5C64 28.5218 62.4196 24.7064 59.6066 21.8934C56.7936 19.0804 52.9782 17.5 49 17.5C45.0218 17.5 41.2064 19.0804 38.3934 21.8934C35.5804 24.7064 34 28.5218 34 32.5C34 36.4782 35.5804 40.2936 38.3934 43.1066C41.2064 45.9196 45.0218 47.5 49 47.5V47.5Z" fill="#FF6A6A"/>
<path d="M14.4648 109.902C12.582 109.902 11.0938 110.531 10 111.789C8.91406 113.039 8.37109 114.754 8.37109 116.934C8.37109 119.176 8.89453 120.91 9.94141 122.137C10.9961 123.355 12.4961 123.965 14.4414 123.965C15.6367 123.965 17 123.75 18.5312 123.32V125.066C17.3438 125.512 15.8789 125.734 14.1367 125.734C11.6133 125.734 9.66406 124.969 8.28906 123.438C6.92188 121.906 6.23828 119.73 6.23828 116.91C6.23828 115.145 6.56641 113.598 7.22266 112.27C7.88672 110.941 8.83984 109.918 10.082 109.199C11.332 108.48 12.8008 108.121 14.4883 108.121C16.2852 108.121 17.8555 108.449 19.1992 109.105L18.3555 110.816C17.0586 110.207 15.7617 109.902 14.4648 109.902ZM33.0625 119.066C33.0625 121.16 32.5352 122.797 31.4805 123.977C30.4258 125.148 28.9688 125.734 27.1094 125.734C25.9609 125.734 24.9414 125.465 24.0508 124.926C23.1602 124.387 22.4727 123.613 21.9883 122.605C21.5039 121.598 21.2617 120.418 21.2617 119.066C21.2617 116.973 21.7852 115.344 22.832 114.18C23.8789 113.008 25.332 112.422 27.1914 112.422C28.9883 112.422 30.4141 113.02 31.4688 114.215C32.5312 115.41 33.0625 117.027 33.0625 119.066ZM23.2773 119.066C23.2773 120.707 23.6055 121.957 24.2617 122.816C24.918 123.676 25.8828 124.105 27.1562 124.105C28.4297 124.105 29.3945 123.68 30.0508 122.828C30.7148 121.969 31.0469 120.715 31.0469 119.066C31.0469 117.434 30.7148 116.195 30.0508 115.352C29.3945 114.5 28.4219 114.074 27.1328 114.074C25.8594 114.074 24.8984 114.492 24.25 115.328C23.6016 116.164 23.2773 117.41 23.2773 119.066ZM52.8555 125.5V117.145C52.8555 116.121 52.6367 115.355 52.1992 114.848C51.7617 114.332 51.082 114.074 50.1602 114.074C48.9492 114.074 48.0547 114.422 47.4766 115.117C46.8984 115.812 46.6094 116.883 46.6094 118.328V125.5H44.6641V117.145C44.6641 116.121 44.4453 115.355 44.0078 114.848C43.5703 114.332 42.8867 114.074 41.957 114.074C40.7383 114.074 39.8438 114.441 39.2734 115.176C38.7109 115.902 38.4297 117.098 38.4297 118.762V125.5H36.4844V112.656H38.0664L38.3828 114.414H38.4766C38.8438 113.789 39.3594 113.301 40.0234 112.949C40.6953 112.598 41.4453 112.422 42.2734 112.422C44.2812 112.422 45.5938 113.148 46.2109 114.602H46.3047C46.6875 113.93 47.2422 113.398 47.9688 113.008C48.6953 112.617 49.5234 112.422 50.4531 112.422C51.9062 112.422 52.9922 112.797 53.7109 113.547C54.4375 114.289 54.8008 115.48 54.8008 117.121V125.5H52.8555ZM75.1914 125.5V117.145C75.1914 116.121 74.9727 115.355 74.5352 114.848C74.0977 114.332 73.418 114.074 72.4961 114.074C71.2852 114.074 70.3906 114.422 69.8125 115.117C69.2344 115.812 68.9453 116.883 68.9453 118.328V125.5H67V117.145C67 116.121 66.7812 115.355 66.3438 114.848C65.9062 114.332 65.2227 114.074 64.293 114.074C63.0742 114.074 62.1797 114.441 61.6094 115.176C61.0469 115.902 60.7656 117.098 60.7656 118.762V125.5H58.8203V112.656H60.4023L60.7188 114.414H60.8125C61.1797 113.789 61.6953 113.301 62.3594 112.949C63.0312 112.598 63.7812 112.422 64.6094 112.422C66.6172 112.422 67.9297 113.148 68.5469 114.602H68.6406C69.0234 113.93 69.5781 113.398 70.3047 113.008C71.0312 112.617 71.8594 112.422 72.7891 112.422C74.2422 112.422 75.3281 112.797 76.0469 113.547C76.7734 114.289 77.1367 115.48 77.1367 117.121V125.5H75.1914ZM82.9844 112.656V120.988C82.9844 122.035 83.2227 122.816 83.6992 123.332C84.1758 123.848 84.9219 124.105 85.9375 124.105C87.2812 124.105 88.2617 123.738 88.8789 123.004C89.5039 122.27 89.8164 121.07 89.8164 119.406V112.656H91.7617V125.5H90.1562L89.875 123.777H89.7695C89.3711 124.41 88.8164 124.895 88.1055 125.23C87.4023 125.566 86.5977 125.734 85.6914 125.734C84.1289 125.734 82.957 125.363 82.1758 124.621C81.4023 123.879 81.0156 122.691 81.0156 121.059V112.656H82.9844ZM104.688 125.5V117.191C104.688 116.145 104.449 115.363 103.973 114.848C103.496 114.332 102.75 114.074 101.734 114.074C100.391 114.074 99.4062 114.438 98.7812 115.164C98.1562 115.891 97.8438 117.09 97.8438 118.762V125.5H95.8984V112.656H97.4805L97.7969 114.414H97.8906C98.2891 113.781 98.8477 113.293 99.5664 112.949C100.285 112.598 101.086 112.422 101.969 112.422C103.516 112.422 104.68 112.797 105.461 113.547C106.242 114.289 106.633 115.48 106.633 117.121V125.5H104.688ZM112.586 125.5H110.641V112.656H112.586V125.5ZM110.477 109.176C110.477 108.73 110.586 108.406 110.805 108.203C111.023 107.992 111.297 107.887 111.625 107.887C111.938 107.887 112.207 107.992 112.434 108.203C112.66 108.414 112.773 108.738 112.773 109.176C112.773 109.613 112.66 109.941 112.434 110.16C112.207 110.371 111.938 110.477 111.625 110.477C111.297 110.477 111.023 110.371 110.805 110.16C110.586 109.941 110.477 109.613 110.477 109.176ZM120.859 124.129C121.203 124.129 121.535 124.105 121.855 124.059C122.176 124.004 122.43 123.949 122.617 123.895V125.383C122.406 125.484 122.094 125.566 121.68 125.629C121.273 125.699 120.906 125.734 120.578 125.734C118.094 125.734 116.852 124.426 116.852 121.809V114.168H115.012V113.23L116.852 112.422L117.672 109.68H118.797V112.656H122.523V114.168H118.797V121.727C118.797 122.5 118.98 123.094 119.348 123.508C119.715 123.922 120.219 124.129 120.859 124.129ZM123.156 112.656H125.242L128.055 119.98C128.672 121.652 129.055 122.859 129.203 123.602H129.297C129.398 123.203 129.609 122.523 129.93 121.562C130.258 120.594 131.32 117.625 133.117 112.656H135.203L129.684 127.281C129.137 128.727 128.496 129.75 127.762 130.352C127.035 130.961 126.141 131.266 125.078 131.266C124.484 131.266 123.898 131.199 123.32 131.066V129.508C123.75 129.602 124.23 129.648 124.762 129.648C126.098 129.648 127.051 128.898 127.621 127.398L128.336 125.57L123.156 112.656Z" fill="#FF6A6A"/>
</svg>
