<svg width="140" height="150" viewBox="0 0 140 150" fill="none" xmlns="http://www.w3.org/2000/svg">
<path fill-rule="evenodd" clip-rule="evenodd" d="M41.9643 13.7406C40.7923 15.4947 40.1667 17.557 40.1667 19.6667C40.1695 22.4948 41.2942 25.2063 43.294 27.206C45.2938 29.2058 48.0052 30.3305 50.8333 30.3333C52.943 30.3333 55.0053 29.7077 56.7594 28.5357C58.5135 27.3636 59.8807 25.6977 60.688 23.7486C61.4954 21.7995 61.7066 19.6548 61.295 17.5857C60.8835 15.5166 59.8676 13.616 58.3758 12.1242C56.884 10.6324 54.9834 9.61654 52.9143 9.20496C50.8452 8.79339 48.7005 9.00462 46.7514 9.81196C44.8023 10.6193 43.1364 11.9865 41.9643 13.7406ZM66.8333 41V49H72.1667V54.3333H29.5V49H34.8333V41C34.8355 38.8789 35.679 36.8453 37.1788 35.3455C38.6787 33.8457 40.7123 33.0021 42.8333 33H58.8333C60.9544 33.0021 62.988 33.8457 64.4879 35.3455C65.9877 36.8453 66.8312 38.8789 66.8333 41Z" fill="#FF6A6A"/>
<path fill-rule="evenodd" clip-rule="evenodd" d="M84.631 13.7406C83.4589 15.4947 82.8333 17.557 82.8333 19.6667C82.8362 22.4948 83.9609 25.2063 85.9606 27.206C87.9604 29.2058 90.6719 30.3305 93.5 30.3333C95.6097 30.3333 97.672 29.7077 99.4261 28.5357C101.18 27.3636 102.547 25.6977 103.355 23.7486C104.162 21.7996 104.373 19.6548 103.962 17.5857C103.55 15.5166 102.534 13.616 101.042 12.1242C99.5507 10.6324 97.6501 9.61654 95.581 9.20496C93.5118 8.79339 91.3671 9.00462 89.418 9.81196C87.469 10.6193 85.8031 11.9865 84.631 13.7406ZM79.8455 35.3455C81.3453 33.8457 83.3789 33.0021 85.5 33H101.5C103.621 33.0021 105.655 33.8457 107.155 35.3455C108.654 36.8453 109.498 38.8789 109.5 41V57C109.499 58.4141 108.936 59.7698 107.936 60.7697C106.936 61.7696 105.581 62.3319 104.167 62.3333V81C104.165 82.4141 103.603 83.7698 102.603 84.7697C101.603 85.7696 100.247 86.3319 98.8333 86.3333H88.1667C86.7526 86.3319 85.3969 85.7696 84.397 84.7697C83.3971 83.7698 82.8347 82.4141 82.8333 81V62.3333C81.4193 62.3319 80.0635 61.7696 79.0637 60.7697C78.0638 59.7698 77.5014 58.4141 77.5 57V41C77.5021 38.8789 78.3457 36.8453 79.8455 35.3455Z" fill="#FF6A6A"/>
<path d="M13.6602 128.333V111.201H15.6523V128.333H13.6602ZM28.8594 128.333V120.025C28.8594 118.978 28.6211 118.197 28.1445 117.681C27.668 117.166 26.9219 116.908 25.9062 116.908C24.5625 116.908 23.5781 117.271 22.9531 117.998C22.3281 118.724 22.0156 119.923 22.0156 121.595V128.333H20.0703V115.49H21.6523L21.9688 117.248H22.0625C22.4609 116.615 23.0195 116.126 23.7383 115.783C24.457 115.431 25.2578 115.255 26.1406 115.255C27.6875 115.255 28.8516 115.63 29.6328 116.38C30.4141 117.123 30.8047 118.314 30.8047 119.955V128.333H28.8594ZM38.9609 126.962C39.3047 126.962 39.6367 126.939 39.957 126.892C40.2773 126.837 40.5312 126.783 40.7188 126.728V128.216C40.5078 128.318 40.1953 128.4 39.7812 128.462C39.375 128.533 39.0078 128.568 38.6797 128.568C36.1953 128.568 34.9531 127.259 34.9531 124.642V117.001H33.1133V116.064L34.9531 115.255L35.7734 112.513H36.8984V115.49H40.625V117.001H36.8984V124.56C36.8984 125.333 37.082 125.927 37.4492 126.341C37.8164 126.755 38.3203 126.962 38.9609 126.962ZM48.7227 128.568C46.8242 128.568 45.3242 127.99 44.2227 126.833C43.1289 125.677 42.582 124.072 42.582 122.017C42.582 119.947 43.0898 118.302 44.1055 117.083C45.1289 115.865 46.5 115.255 48.2188 115.255C49.8281 115.255 51.1016 115.787 52.0391 116.849C52.9766 117.904 53.4453 119.298 53.4453 121.033V122.263H44.5977C44.6367 123.771 45.0156 124.916 45.7344 125.697C46.4609 126.478 47.4805 126.869 48.793 126.869C50.1758 126.869 51.543 126.58 52.8945 126.001V127.736C52.207 128.033 51.5547 128.244 50.9375 128.369C50.3281 128.501 49.5898 128.568 48.7227 128.568ZM48.1953 116.884C47.1641 116.884 46.3398 117.22 45.7227 117.892C45.1133 118.564 44.7539 119.494 44.6445 120.681H51.3594C51.3594 119.455 51.0859 118.517 50.5391 117.869C49.9922 117.212 49.2109 116.884 48.1953 116.884ZM67.2852 115.49V116.72L64.9062 117.001C65.125 117.275 65.3203 117.634 65.4922 118.08C65.6641 118.517 65.75 119.013 65.75 119.568C65.75 120.826 65.3203 121.83 64.4609 122.58C63.6016 123.33 62.4219 123.705 60.9219 123.705C60.5391 123.705 60.1797 123.673 59.8438 123.611C59.0156 124.048 58.6016 124.599 58.6016 125.263C58.6016 125.615 58.7461 125.876 59.0352 126.048C59.3242 126.212 59.8203 126.294 60.5234 126.294H62.7969C64.1875 126.294 65.2539 126.587 65.9961 127.173C66.7461 127.759 67.1211 128.611 67.1211 129.728C67.1211 131.15 66.5508 132.232 65.4102 132.974C64.2695 133.724 62.6055 134.099 60.418 134.099C58.7383 134.099 57.4414 133.787 56.5273 133.162C55.6211 132.537 55.168 131.654 55.168 130.513C55.168 129.732 55.418 129.056 55.918 128.486C56.418 127.916 57.1211 127.529 58.0273 127.326C57.6992 127.177 57.4219 126.947 57.1953 126.634C56.9766 126.322 56.8672 125.958 56.8672 125.544C56.8672 125.076 56.9922 124.666 57.2422 124.314C57.4922 123.962 57.8867 123.623 58.4258 123.294C57.7617 123.021 57.2188 122.556 56.7969 121.9C56.3828 121.244 56.1758 120.494 56.1758 119.65C56.1758 118.244 56.5977 117.162 57.4414 116.404C58.2852 115.638 59.4805 115.255 61.0273 115.255C61.6992 115.255 62.3047 115.333 62.8438 115.49H67.2852ZM57.043 130.49C57.043 131.185 57.3359 131.712 57.9219 132.072C58.5078 132.431 59.3477 132.611 60.4414 132.611C62.0742 132.611 63.2812 132.365 64.0625 131.873C64.8516 131.388 65.2461 130.728 65.2461 129.892C65.2461 129.197 65.0312 128.712 64.6016 128.439C64.1719 128.173 63.3633 128.041 62.1758 128.041H59.8438C58.9609 128.041 58.2734 128.251 57.7812 128.673C57.2891 129.095 57.043 129.701 57.043 130.49ZM58.0977 119.603C58.0977 120.501 58.3516 121.181 58.8594 121.642C59.3672 122.103 60.0742 122.333 60.9805 122.333C62.8789 122.333 63.8281 121.412 63.8281 119.568C63.8281 117.638 62.8672 116.673 60.9453 116.673C60.0312 116.673 59.3281 116.919 58.8359 117.412C58.3438 117.904 58.0977 118.634 58.0977 119.603ZM75.7812 115.255C76.3516 115.255 76.8633 115.302 77.3164 115.396L77.0469 117.201C76.5156 117.083 76.0469 117.025 75.6406 117.025C74.6016 117.025 73.7109 117.447 72.9688 118.291C72.2344 119.134 71.8672 120.185 71.8672 121.443V128.333H69.9219V115.49H71.5273L71.75 117.869H71.8438C72.3203 117.033 72.8945 116.388 73.5664 115.935C74.2383 115.482 74.9766 115.255 75.7812 115.255ZM87.6172 128.333L87.2305 126.505H87.1367C86.4961 127.31 85.8555 127.857 85.2148 128.146C84.582 128.427 83.7891 128.568 82.8359 128.568C81.5625 128.568 80.5625 128.24 79.8359 127.583C79.1172 126.927 78.7578 125.994 78.7578 124.783C78.7578 122.189 80.832 120.83 84.9805 120.705L87.1602 120.634V119.837C87.1602 118.83 86.9414 118.087 86.5039 117.611C86.0742 117.126 85.3828 116.884 84.4297 116.884C83.3594 116.884 82.1484 117.212 80.7969 117.869L80.1992 116.38C80.832 116.037 81.5234 115.767 82.2734 115.572C83.0312 115.376 83.7891 115.279 84.5469 115.279C86.0781 115.279 87.2109 115.619 87.9453 116.298C88.6875 116.978 89.0586 118.068 89.0586 119.568V128.333H87.6172ZM83.2227 126.962C84.4336 126.962 85.3828 126.63 86.0703 125.966C86.7656 125.302 87.1133 124.373 87.1133 123.177V122.017L85.168 122.099C83.6211 122.154 82.5039 122.396 81.8164 122.826C81.1367 123.248 80.7969 123.908 80.7969 124.806C80.7969 125.509 81.0078 126.044 81.4297 126.412C81.8594 126.779 82.457 126.962 83.2227 126.962ZM97.2266 126.962C97.5703 126.962 97.9023 126.939 98.2227 126.892C98.543 126.837 98.7969 126.783 98.9844 126.728V128.216C98.7734 128.318 98.4609 128.4 98.0469 128.462C97.6406 128.533 97.2734 128.568 96.9453 128.568C94.4609 128.568 93.2188 127.259 93.2188 124.642V117.001H91.3789V116.064L93.2188 115.255L94.0391 112.513H95.1641V115.49H98.8906V117.001H95.1641V124.56C95.1641 125.333 95.3477 125.927 95.7148 126.341C96.082 126.755 96.5859 126.962 97.2266 126.962ZM106.988 128.568C105.09 128.568 103.59 127.99 102.488 126.833C101.395 125.677 100.848 124.072 100.848 122.017C100.848 119.947 101.355 118.302 102.371 117.083C103.395 115.865 104.766 115.255 106.484 115.255C108.094 115.255 109.367 115.787 110.305 116.849C111.242 117.904 111.711 119.298 111.711 121.033V122.263H102.863C102.902 123.771 103.281 124.916 104 125.697C104.727 126.478 105.746 126.869 107.059 126.869C108.441 126.869 109.809 126.58 111.16 126.001V127.736C110.473 128.033 109.82 128.244 109.203 128.369C108.594 128.501 107.855 128.568 106.988 128.568ZM106.461 116.884C105.43 116.884 104.605 117.22 103.988 117.892C103.379 118.564 103.02 119.494 102.91 120.681H109.625C109.625 119.455 109.352 118.517 108.805 117.869C108.258 117.212 107.477 116.884 106.461 116.884ZM123.781 126.611H123.676C122.777 127.916 121.434 128.568 119.645 128.568C117.965 128.568 116.656 127.994 115.719 126.845C114.789 125.697 114.324 124.064 114.324 121.947C114.324 119.83 114.793 118.185 115.73 117.013C116.668 115.841 117.973 115.255 119.645 115.255C121.387 115.255 122.723 115.888 123.652 117.154H123.805L123.723 116.228L123.676 115.326V110.099H125.621V128.333H124.039L123.781 126.611ZM119.891 126.939C121.219 126.939 122.18 126.58 122.773 125.861C123.375 125.134 123.676 123.966 123.676 122.357V121.947C123.676 120.126 123.371 118.83 122.762 118.056C122.16 117.275 121.195 116.884 119.867 116.884C118.727 116.884 117.852 117.33 117.242 118.22C116.641 119.103 116.34 120.353 116.34 121.97C116.34 123.611 116.641 124.849 117.242 125.685C117.844 126.521 118.727 126.939 119.891 126.939Z" fill="#FF6A6A"/>
</svg>
