<svg width="140" height="150" viewBox="0 0 140 150" fill="none" xmlns="http://www.w3.org/2000/svg">
<path d="M78.1736 54.9339L83.7736 45.2345C84.1336 44.6333 83.9736 43.8717 83.4536 43.4309L77.5336 38.7816C77.6536 37.8998 77.7336 36.978 77.7336 36.0561C77.7336 35.1343 77.6536 34.2124 77.5336 33.2906L83.4536 28.6413C83.9736 28.2004 84.1336 27.4389 83.7736 26.8377L78.1736 17.1383C77.8136 16.5371 77.0936 16.2966 76.4537 16.5371L69.4937 19.3427C68.0537 18.2204 66.4938 17.2986 64.7738 16.5772L63.7338 9.16232C63.6667 8.83816 63.4915 8.54652 63.2371 8.33529C62.9827 8.12407 62.6642 8.00583 62.3338 8H51.1339C50.4539 8 49.8539 8.52104 49.7339 9.2024L48.6939 16.6172C47.014 17.3387 45.414 18.2605 43.974 19.3828L37.0141 16.5772C36.3741 16.3367 35.6541 16.5772 35.2941 17.1784L29.6942 26.8778C29.3342 27.479 29.4942 28.2405 30.0141 28.6814L35.9341 33.3307C35.8141 34.2124 35.7341 35.1343 35.7341 36.0561C35.7341 36.978 35.8141 37.8998 35.9341 38.8216L30.0141 43.4709C29.4942 43.9118 29.3342 44.6733 29.6942 45.2746L35.2941 54.9739C35.6541 55.5752 36.3741 55.8156 37.0141 55.5752L43.974 52.7695C45.414 53.8918 46.974 54.8136 48.6939 55.5351L49.7339 62.9499C49.8539 63.5912 50.4539 64.1122 51.1339 64.1122H62.3338C63.0138 64.1122 63.6138 63.5912 63.7338 62.9098L64.7738 55.495C66.4538 54.7735 68.0537 53.8517 69.4937 52.7295L76.4537 55.5351C77.0936 55.7756 77.8136 55.5351 78.1736 54.9339V54.9339ZM56.7339 44.0721C52.3339 44.0721 48.7339 40.4649 48.7339 36.0561C48.7339 31.6473 52.3339 28.0401 56.7339 28.0401C61.1338 28.0401 64.7338 31.6473 64.7338 36.0561C64.7338 40.4649 61.1338 44.0721 56.7339 44.0721ZM109.173 74.8136L105.333 71.8477C105.413 71.2866 105.493 70.6854 105.493 70.0842C105.493 69.483 105.453 68.8818 105.333 68.3206L109.133 65.3547C109.453 65.0741 109.573 64.5932 109.333 64.1924L105.733 57.98C105.533 57.5792 105.053 57.4589 104.613 57.5792L100.173 59.3828C99.2534 58.6613 98.2534 58.0601 97.1334 57.6192L96.4534 52.8898C96.4376 52.6756 96.3429 52.4749 96.1877 52.3267C96.0324 52.1786 95.8278 52.0936 95.6135 52.0882H88.4535C88.0135 52.0882 87.6135 52.4088 87.5735 52.8497L86.8935 57.5792C85.8136 58.0601 84.7736 58.6212 83.8536 59.3427L79.4136 57.5391C79.2098 57.4623 78.9854 57.4604 78.7803 57.5338C78.5752 57.6072 78.4028 57.7511 78.2936 57.9399L74.6937 64.1523C74.4937 64.5531 74.5337 65.0341 74.8937 65.3146L78.6936 68.2806C78.5287 69.4504 78.5287 70.6377 78.6936 71.8076L74.8937 74.7735C74.5737 75.0541 74.4537 75.5351 74.6937 75.9359L78.2936 82.1483C78.4936 82.5491 78.9736 82.6693 79.4136 82.5491L83.8536 80.7455C84.7736 81.4669 85.7736 82.0681 86.8935 82.509L87.5735 87.2385C87.6535 87.6794 88.0135 88 88.4535 88H95.6135C96.0534 88 96.4534 87.6794 96.4934 87.2385L97.1734 82.509C98.2534 82.0281 99.2934 81.4669 100.173 80.7455L104.653 82.5491C105.053 82.7094 105.533 82.5491 105.773 82.1483L109.373 75.9359C109.613 75.5752 109.493 75.0942 109.173 74.8136V74.8136ZM92.0135 75.4549C90.5808 75.4544 89.207 74.8836 88.1943 73.8681C87.1816 72.8526 86.613 71.4757 86.6135 70.0401C86.6141 68.6045 87.1837 67.2279 88.1972 66.2132C89.2106 65.1985 90.5848 64.6287 92.0175 64.6293C93.4502 64.6298 94.824 65.2006 95.8367 66.2161C96.8493 67.2315 97.418 68.6085 97.4174 70.0441C97.4169 71.4797 96.8473 72.8562 95.8338 73.8709C94.8204 74.8857 93.4462 75.4554 92.0135 75.4549V75.4549Z" fill="#FF6A6A"/>
<path d="M36.0664 125.441C36.0664 126.949 35.5195 128.125 34.4258 128.969C33.332 129.812 31.8477 130.234 29.9727 130.234C27.9414 130.234 26.3789 129.973 25.2852 129.449V127.527C25.9883 127.824 26.7539 128.059 27.582 128.23C28.4102 128.402 29.2305 128.488 30.043 128.488C31.3711 128.488 32.3711 128.238 33.043 127.738C33.7148 127.23 34.0508 126.527 34.0508 125.629C34.0508 125.035 33.9297 124.551 33.6875 124.176C33.4531 123.793 33.0547 123.441 32.4922 123.121C31.9375 122.801 31.0898 122.438 29.9492 122.031C28.3555 121.461 27.2148 120.785 26.5273 120.004C25.8477 119.223 25.5078 118.203 25.5078 116.945C25.5078 115.625 26.0039 114.574 26.9961 113.793C27.9883 113.012 29.3008 112.621 30.9336 112.621C32.6367 112.621 34.2031 112.934 35.6328 113.559L35.0117 115.293C33.5977 114.699 32.2227 114.402 30.8867 114.402C29.832 114.402 29.0078 114.629 28.4141 115.082C27.8203 115.535 27.5234 116.164 27.5234 116.969C27.5234 117.562 27.6328 118.051 27.8516 118.434C28.0703 118.809 28.4375 119.156 28.9531 119.477C29.4766 119.789 30.2734 120.137 31.3438 120.52C33.1406 121.16 34.375 121.848 35.0469 122.582C35.7266 123.316 36.0664 124.27 36.0664 125.441ZM44.7031 130.234C42.8047 130.234 41.3047 129.656 40.2031 128.5C39.1094 127.344 38.5625 125.738 38.5625 123.684C38.5625 121.613 39.0703 119.969 40.0859 118.75C41.1094 117.531 42.4805 116.922 44.1992 116.922C45.8086 116.922 47.082 117.453 48.0195 118.516C48.957 119.57 49.4258 120.965 49.4258 122.699V123.93H40.5781C40.6172 125.438 40.9961 126.582 41.7148 127.363C42.4414 128.145 43.4609 128.535 44.7734 128.535C46.1562 128.535 47.5234 128.246 48.875 127.668V129.402C48.1875 129.699 47.5352 129.91 46.918 130.035C46.3086 130.168 45.5703 130.234 44.7031 130.234ZM44.1758 118.551C43.1445 118.551 42.3203 118.887 41.7031 119.559C41.0938 120.23 40.7344 121.16 40.625 122.348H47.3398C47.3398 121.121 47.0664 120.184 46.5195 119.535C45.9727 118.879 45.1914 118.551 44.1758 118.551ZM58.6133 116.922C59.1836 116.922 59.6953 116.969 60.1484 117.062L59.8789 118.867C59.3477 118.75 58.8789 118.691 58.4727 118.691C57.4336 118.691 56.543 119.113 55.8008 119.957C55.0664 120.801 54.6992 121.852 54.6992 123.109V130H52.7539V117.156H54.3594L54.582 119.535H54.6758C55.1523 118.699 55.7266 118.055 56.3984 117.602C57.0703 117.148 57.8086 116.922 58.6133 116.922ZM65.3633 130L60.4883 117.156H62.5742L65.3398 124.773C65.9648 126.555 66.332 127.711 66.4414 128.242H66.5352C66.6211 127.828 66.8906 126.973 67.3438 125.676C67.8047 124.371 68.832 121.531 70.4258 117.156H72.5117L67.6367 130H65.3633ZM76.5195 130H74.5742V117.156H76.5195V130ZM74.4102 113.676C74.4102 113.23 74.5195 112.906 74.7383 112.703C74.957 112.492 75.2305 112.387 75.5586 112.387C75.8711 112.387 76.1406 112.492 76.3672 112.703C76.5938 112.914 76.707 113.238 76.707 113.676C76.707 114.113 76.5938 114.441 76.3672 114.66C76.1406 114.871 75.8711 114.977 75.5586 114.977C75.2305 114.977 74.957 114.871 74.7383 114.66C74.5195 114.441 74.4102 114.113 74.4102 113.676ZM85.7773 130.234C83.918 130.234 82.4766 129.664 81.4531 128.523C80.4375 127.375 79.9297 125.754 79.9297 123.66C79.9297 121.512 80.4453 119.852 81.4766 118.68C82.5156 117.508 83.9922 116.922 85.9062 116.922C86.5234 116.922 87.1406 116.988 87.7578 117.121C88.375 117.254 88.8594 117.41 89.2109 117.59L88.6133 119.242C88.1836 119.07 87.7148 118.93 87.207 118.82C86.6992 118.703 86.25 118.645 85.8594 118.645C83.25 118.645 81.9453 120.309 81.9453 123.637C81.9453 125.215 82.2617 126.426 82.8945 127.27C83.5352 128.113 84.4805 128.535 85.7305 128.535C86.8008 128.535 87.8984 128.305 89.0234 127.844V129.566C88.1641 130.012 87.082 130.234 85.7773 130.234ZM97.5078 130.234C95.6094 130.234 94.1094 129.656 93.0078 128.5C91.9141 127.344 91.3672 125.738 91.3672 123.684C91.3672 121.613 91.875 119.969 92.8906 118.75C93.9141 117.531 95.2852 116.922 97.0039 116.922C98.6133 116.922 99.8867 117.453 100.824 118.516C101.762 119.57 102.23 120.965 102.23 122.699V123.93H93.3828C93.4219 125.438 93.8008 126.582 94.5195 127.363C95.2461 128.145 96.2656 128.535 97.5781 128.535C98.9609 128.535 100.328 128.246 101.68 127.668V129.402C100.992 129.699 100.34 129.91 99.7227 130.035C99.1133 130.168 98.375 130.234 97.5078 130.234ZM96.9805 118.551C95.9492 118.551 95.125 118.887 94.5078 119.559C93.8984 120.23 93.5391 121.16 93.4297 122.348H100.145C100.145 121.121 99.8711 120.184 99.3242 119.535C98.7773 118.879 97.9961 118.551 96.9805 118.551ZM113.844 126.496C113.844 127.691 113.398 128.613 112.508 129.262C111.617 129.91 110.367 130.234 108.758 130.234C107.055 130.234 105.727 129.965 104.773 129.426V127.621C105.391 127.934 106.051 128.18 106.754 128.359C107.465 128.539 108.148 128.629 108.805 128.629C109.82 128.629 110.602 128.469 111.148 128.148C111.695 127.82 111.969 127.324 111.969 126.66C111.969 126.16 111.75 125.734 111.312 125.383C110.883 125.023 110.039 124.602 108.781 124.117C107.586 123.672 106.734 123.285 106.227 122.957C105.727 122.621 105.352 122.242 105.102 121.82C104.859 121.398 104.738 120.895 104.738 120.309C104.738 119.262 105.164 118.438 106.016 117.836C106.867 117.227 108.035 116.922 109.52 116.922C110.902 116.922 112.254 117.203 113.574 117.766L112.883 119.348C111.594 118.816 110.426 118.551 109.379 118.551C108.457 118.551 107.762 118.695 107.293 118.984C106.824 119.273 106.59 119.672 106.59 120.18C106.59 120.523 106.676 120.816 106.848 121.059C107.027 121.301 107.312 121.531 107.703 121.75C108.094 121.969 108.844 122.285 109.953 122.699C111.477 123.254 112.504 123.812 113.035 124.375C113.574 124.938 113.844 125.645 113.844 126.496Z" fill="#FF6A6A"/>
</svg>
