<svg width="140" height="150" viewBox="0 0 140 150" fill="none" xmlns="http://www.w3.org/2000/svg">
<path d="M56.4211 70H37.7368V40H56.4211V70ZM78.8421 70H60.1579V25H78.8421V70ZM101.263 70H82.5789V10H101.263V70ZM105 85H34V77.5H105V85Z" fill="#FF6A6A"/>
<path d="M50.668 109.867H52.8125L46.6367 127H44.668L38.5273 109.867H40.6367L44.5742 120.953C45.0273 122.227 45.3867 123.465 45.6523 124.668C45.9336 123.402 46.3008 122.141 46.7539 120.883L50.668 109.867ZM62.7852 127L62.3984 125.172H62.3047C61.6641 125.977 61.0234 126.523 60.3828 126.812C59.75 127.094 58.957 127.234 58.0039 127.234C56.7305 127.234 55.7305 126.906 55.0039 126.25C54.2852 125.594 53.9258 124.66 53.9258 123.449C53.9258 120.855 56 119.496 60.1484 119.371L62.3281 119.301V118.504C62.3281 117.496 62.1094 116.754 61.6719 116.277C61.2422 115.793 60.5508 115.551 59.5977 115.551C58.5273 115.551 57.3164 115.879 55.9648 116.535L55.3672 115.047C56 114.703 56.6914 114.434 57.4414 114.238C58.1992 114.043 58.957 113.945 59.7148 113.945C61.2461 113.945 62.3789 114.285 63.1133 114.965C63.8555 115.645 64.2266 116.734 64.2266 118.234V127H62.7852ZM58.3906 125.629C59.6016 125.629 60.5508 125.297 61.2383 124.633C61.9336 123.969 62.2812 123.039 62.2812 121.844V120.684L60.3359 120.766C58.7891 120.82 57.6719 121.062 56.9844 121.492C56.3047 121.914 55.9648 122.574 55.9648 123.473C55.9648 124.176 56.1758 124.711 56.5977 125.078C57.0273 125.445 57.625 125.629 58.3906 125.629ZM70.1914 127H68.2461V108.766H70.1914V127ZM76.1445 114.156V122.488C76.1445 123.535 76.3828 124.316 76.8594 124.832C77.3359 125.348 78.082 125.605 79.0977 125.605C80.4414 125.605 81.4219 125.238 82.0391 124.504C82.6641 123.77 82.9766 122.57 82.9766 120.906V114.156H84.9219V127H83.3164L83.0352 125.277H82.9297C82.5312 125.91 81.9766 126.395 81.2656 126.73C80.5625 127.066 79.7578 127.234 78.8516 127.234C77.2891 127.234 76.1172 126.863 75.3359 126.121C74.5625 125.379 74.1758 124.191 74.1758 122.559V114.156H76.1445ZM94.4844 127.234C92.5859 127.234 91.0859 126.656 89.9844 125.5C88.8906 124.344 88.3438 122.738 88.3438 120.684C88.3438 118.613 88.8516 116.969 89.8672 115.75C90.8906 114.531 92.2617 113.922 93.9805 113.922C95.5898 113.922 96.8633 114.453 97.8008 115.516C98.7383 116.57 99.207 117.965 99.207 119.699V120.93H90.3594C90.3984 122.438 90.7773 123.582 91.4961 124.363C92.2227 125.145 93.2422 125.535 94.5547 125.535C95.9375 125.535 97.3047 125.246 98.6562 124.668V126.402C97.9688 126.699 97.3164 126.91 96.6992 127.035C96.0898 127.168 95.3516 127.234 94.4844 127.234ZM93.957 115.551C92.9258 115.551 92.1016 115.887 91.4844 116.559C90.875 117.23 90.5156 118.16 90.4062 119.348H97.1211C97.1211 118.121 96.8477 117.184 96.3008 116.535C95.7539 115.879 94.9727 115.551 93.957 115.551Z" fill="#FF6A6A"/>
</svg>
