<svg width="140" height="150" viewBox="0 0 140 150" fill="none" xmlns="http://www.w3.org/2000/svg">
<path d="M72.6857 16.4881L54.0885 35.0655C52.8464 36.3062 52.1415 38.0164 52.1415 39.7937V73.2934C52.1415 76.982 55.1627 80 58.8553 80H89.0675C91.753 80 94.17 78.3904 95.2442 75.9425L106.188 50.4237C109.008 43.7841 104.14 36.4068 96.9226 36.4068H77.9561L81.1452 21.0486C81.4808 19.3719 80.9773 17.6617 79.7688 16.4545C77.7882 14.5096 74.6328 14.5096 72.6857 16.4881V16.4881ZM38.7138 80C42.4064 80 45.4276 76.982 45.4276 73.2934V46.4668C45.4276 42.7781 42.4064 39.7601 38.7138 39.7601C35.0212 39.7601 32 42.7781 32 46.4668V73.2934C32 76.982 35.0212 80 38.7138 80Z" fill="#FF6A6A"/>
<path d="M25.3555 122V104.867H27.3477V122H25.3555ZM40.5547 122V113.691C40.5547 112.645 40.3164 111.863 39.8398 111.348C39.3633 110.832 38.6172 110.574 37.6016 110.574C36.2578 110.574 35.2734 110.938 34.6484 111.664C34.0234 112.391 33.7109 113.59 33.7109 115.262V122H31.7656V109.156H33.3477L33.6641 110.914H33.7578C34.1562 110.281 34.7148 109.793 35.4336 109.449C36.1523 109.098 36.9531 108.922 37.8359 108.922C39.3828 108.922 40.5469 109.297 41.3281 110.047C42.1094 110.789 42.5 111.98 42.5 113.621V122H40.5547ZM50.6562 120.629C51 120.629 51.332 120.605 51.6523 120.559C51.9727 120.504 52.2266 120.449 52.4141 120.395V121.883C52.2031 121.984 51.8906 122.066 51.4766 122.129C51.0703 122.199 50.7031 122.234 50.375 122.234C47.8906 122.234 46.6484 120.926 46.6484 118.309V110.668H44.8086V109.73L46.6484 108.922L47.4688 106.18H48.5938V109.156H52.3203V110.668H48.5938V118.227C48.5938 119 48.7773 119.594 49.1445 120.008C49.5117 120.422 50.0156 120.629 50.6562 120.629ZM60.418 122.234C58.5195 122.234 57.0195 121.656 55.918 120.5C54.8242 119.344 54.2773 117.738 54.2773 115.684C54.2773 113.613 54.7852 111.969 55.8008 110.75C56.8242 109.531 58.1953 108.922 59.9141 108.922C61.5234 108.922 62.7969 109.453 63.7344 110.516C64.6719 111.57 65.1406 112.965 65.1406 114.699V115.93H56.293C56.332 117.438 56.7109 118.582 57.4297 119.363C58.1562 120.145 59.1758 120.535 60.4883 120.535C61.8711 120.535 63.2383 120.246 64.5898 119.668V121.402C63.9023 121.699 63.25 121.91 62.6328 122.035C62.0234 122.168 61.2852 122.234 60.418 122.234ZM59.8906 110.551C58.8594 110.551 58.0352 110.887 57.418 111.559C56.8086 112.23 56.4492 113.16 56.3398 114.348H63.0547C63.0547 113.121 62.7812 112.184 62.2344 111.535C61.6875 110.879 60.9062 110.551 59.8906 110.551ZM78.9805 109.156V110.387L76.6016 110.668C76.8203 110.941 77.0156 111.301 77.1875 111.746C77.3594 112.184 77.4453 112.68 77.4453 113.234C77.4453 114.492 77.0156 115.496 76.1562 116.246C75.2969 116.996 74.1172 117.371 72.6172 117.371C72.2344 117.371 71.875 117.34 71.5391 117.277C70.7109 117.715 70.2969 118.266 70.2969 118.93C70.2969 119.281 70.4414 119.543 70.7305 119.715C71.0195 119.879 71.5156 119.961 72.2188 119.961H74.4922C75.8828 119.961 76.9492 120.254 77.6914 120.84C78.4414 121.426 78.8164 122.277 78.8164 123.395C78.8164 124.816 78.2461 125.898 77.1055 126.641C75.9648 127.391 74.3008 127.766 72.1133 127.766C70.4336 127.766 69.1367 127.453 68.2227 126.828C67.3164 126.203 66.8633 125.32 66.8633 124.18C66.8633 123.398 67.1133 122.723 67.6133 122.152C68.1133 121.582 68.8164 121.195 69.7227 120.992C69.3945 120.844 69.1172 120.613 68.8906 120.301C68.6719 119.988 68.5625 119.625 68.5625 119.211C68.5625 118.742 68.6875 118.332 68.9375 117.98C69.1875 117.629 69.582 117.289 70.1211 116.961C69.457 116.688 68.9141 116.223 68.4922 115.566C68.0781 114.91 67.8711 114.16 67.8711 113.316C67.8711 111.91 68.293 110.828 69.1367 110.07C69.9805 109.305 71.1758 108.922 72.7227 108.922C73.3945 108.922 74 109 74.5391 109.156H78.9805ZM68.7383 124.156C68.7383 124.852 69.0312 125.379 69.6172 125.738C70.2031 126.098 71.043 126.277 72.1367 126.277C73.7695 126.277 74.9766 126.031 75.7578 125.539C76.5469 125.055 76.9414 124.395 76.9414 123.559C76.9414 122.863 76.7266 122.379 76.2969 122.105C75.8672 121.84 75.0586 121.707 73.8711 121.707H71.5391C70.6562 121.707 69.9688 121.918 69.4766 122.34C68.9844 122.762 68.7383 123.367 68.7383 124.156ZM69.793 113.27C69.793 114.168 70.0469 114.848 70.5547 115.309C71.0625 115.77 71.7695 116 72.6758 116C74.5742 116 75.5234 115.078 75.5234 113.234C75.5234 111.305 74.5625 110.34 72.6406 110.34C71.7266 110.34 71.0234 110.586 70.5312 111.078C70.0391 111.57 69.793 112.301 69.793 113.27ZM87.4766 108.922C88.0469 108.922 88.5586 108.969 89.0117 109.062L88.7422 110.867C88.2109 110.75 87.7422 110.691 87.3359 110.691C86.2969 110.691 85.4062 111.113 84.6641 111.957C83.9297 112.801 83.5625 113.852 83.5625 115.109V122H81.6172V109.156H83.2227L83.4453 111.535H83.5391C84.0156 110.699 84.5898 110.055 85.2617 109.602C85.9336 109.148 86.6719 108.922 87.4766 108.922ZM93.3594 122H91.4141V109.156H93.3594V122ZM91.25 105.676C91.25 105.23 91.3594 104.906 91.5781 104.703C91.7969 104.492 92.0703 104.387 92.3984 104.387C92.7109 104.387 92.9805 104.492 93.207 104.703C93.4336 104.914 93.5469 105.238 93.5469 105.676C93.5469 106.113 93.4336 106.441 93.207 106.66C92.9805 106.871 92.7109 106.977 92.3984 106.977C92.0703 106.977 91.7969 106.871 91.5781 106.66C91.3594 106.441 91.25 106.113 91.25 105.676ZM101.633 120.629C101.977 120.629 102.309 120.605 102.629 120.559C102.949 120.504 103.203 120.449 103.391 120.395V121.883C103.18 121.984 102.867 122.066 102.453 122.129C102.047 122.199 101.68 122.234 101.352 122.234C98.8672 122.234 97.625 120.926 97.625 118.309V110.668H95.7852V109.73L97.625 108.922L98.4453 106.18H99.5703V109.156H103.297V110.668H99.5703V118.227C99.5703 119 99.7539 119.594 100.121 120.008C100.488 120.422 100.992 120.629 101.633 120.629ZM103.93 109.156H106.016L108.828 116.48C109.445 118.152 109.828 119.359 109.977 120.102H110.07C110.172 119.703 110.383 119.023 110.703 118.062C111.031 117.094 112.094 114.125 113.891 109.156H115.977L110.457 123.781C109.91 125.227 109.27 126.25 108.535 126.852C107.809 127.461 106.914 127.766 105.852 127.766C105.258 127.766 104.672 127.699 104.094 127.566V126.008C104.523 126.102 105.004 126.148 105.535 126.148C106.871 126.148 107.824 125.398 108.395 123.898L109.109 122.07L103.93 109.156Z" fill="#FF6A6A"/>
</svg>
