<svg width="155" height="163" viewBox="0 0 155 163" fill="none" xmlns="http://www.w3.org/2000/svg">
<path d="M77.5 26.5625C70.6078 26.5625 65 32.1703 65 39.0625C65 45.9547 70.6078 51.5625 77.5 51.5625C84.3922 51.5625 90 45.9547 90 39.0625C90 32.1703 84.3922 26.5625 77.5 26.5625ZM77.5 48.4375C72.3297 48.4375 68.125 44.2328 68.125 39.0625C68.125 33.8922 72.3297 29.6875 77.5 29.6875C82.6703 29.6875 86.875 33.8922 86.875 39.0625C86.875 44.2328 82.6703 48.4375 77.5 48.4375Z" fill="#FF6A6A"/>
<path d="M77.5 32.8125C74.0531 32.8125 71.25 35.6156 71.25 39.0625C71.25 42.5094 74.0531 45.3125 77.5 45.3125C80.9469 45.3125 83.75 42.5094 83.75 39.0625C83.75 35.6156 80.9469 32.8125 77.5 32.8125ZM77.5 42.1875C75.7766 42.1875 74.375 40.7859 74.375 39.0625C74.375 37.3391 75.7766 35.9375 77.5 35.9375C79.2234 35.9375 80.625 37.3391 80.625 39.0625C80.625 40.7859 79.2234 42.1875 77.5 42.1875Z" fill="#FF6A6A"/>
<path d="M118.125 31.25C114.353 31.25 111.197 33.9391 110.47 37.5H107.114C106.75 30.5172 103.991 24.1219 99.5672 19.2031L102.469 16.3016C103.4 16.8516 104.469 17.1875 105.625 17.1875C109.072 17.1875 111.875 14.3844 111.875 10.9375C111.875 7.49062 109.072 4.6875 105.625 4.6875C102.178 4.6875 99.375 7.49062 99.375 10.9375C99.375 12.0938 99.7109 13.1625 100.261 14.0922L97.35 17.0031C93.4859 13.5203 88.6969 11.0312 83.3438 9.96562C83.5938 9.29219 83.75 8.57188 83.75 7.8125C83.75 4.36562 80.9469 1.5625 77.5 1.5625C74.0531 1.5625 71.25 4.36562 71.25 7.8125C71.25 8.57188 71.4063 9.29219 71.6563 9.96562C66.3047 11.0312 61.5156 13.5203 57.6516 17.0031L54.7406 14.0922C55.2891 13.1625 55.625 12.0938 55.625 10.9375C55.625 7.49062 52.8219 4.6875 49.375 4.6875C45.9281 4.6875 43.125 7.49062 43.125 10.9375C43.125 14.3844 45.9281 17.1875 49.375 17.1875C50.5313 17.1875 51.6 16.8516 52.5297 16.3016L55.4312 19.2031C51.0078 24.1219 48.2484 30.5172 47.8844 37.4984H44.5281C43.8031 33.9391 40.6469 31.25 36.875 31.25C32.5672 31.25 29.0625 34.7547 29.0625 39.0625C29.0625 43.3703 32.5672 46.875 36.875 46.875C40.6469 46.875 43.8031 44.1859 44.5297 40.625H47.8859C48.2422 47.4063 50.8766 53.8391 55.4422 58.9125L52.5313 61.8234C51.6 61.2734 50.5313 60.9375 49.375 60.9375C45.9281 60.9375 43.125 63.7406 43.125 67.1875C43.125 70.6344 45.9281 73.4375 49.375 73.4375C52.8219 73.4375 55.625 70.6344 55.625 67.1875C55.625 66.0312 55.2891 64.9625 54.7391 64.0328L57.5453 61.2266L61.1875 65.1984C63.2937 67.4953 64.5812 70.3813 64.9094 73.4469C62.3672 73.4969 60.3125 75.5719 60.3125 78.125C60.3125 79.3297 60.7828 80.4187 61.5313 81.25C60.7813 82.0813 60.3125 83.1703 60.3125 84.375C60.3125 86.9594 62.4156 89.0625 65 89.0625H65.125C65.8875 94.3547 70.4391 98.4375 75.9375 98.4375H79.0625C84.5609 98.4375 89.1125 94.3547 89.875 89.0625H90C92.5844 89.0625 94.6875 86.9594 94.6875 84.375C94.6875 83.1703 94.2172 82.0813 93.4688 81.25C94.2188 80.4187 94.6875 79.3297 94.6875 78.125C94.6875 75.5719 92.6328 73.4969 90.0906 73.4469C90.4187 70.3813 91.7062 67.4969 93.8125 65.1984L97.4547 61.2266L100.261 64.0328C99.7109 64.9625 99.375 66.0312 99.375 67.1875C99.375 70.6344 102.178 73.4375 105.625 73.4375C109.072 73.4375 111.875 70.6344 111.875 67.1875C111.875 63.7406 109.072 60.9375 105.625 60.9375C104.469 60.9375 103.4 61.2734 102.47 61.8234L99.5594 58.9125C104.123 53.8391 106.759 47.4063 107.116 40.625H110.472C111.198 44.1859 114.353 46.875 118.127 46.875C122.434 46.875 125.939 43.3703 125.939 39.0625C125.939 34.7547 122.433 31.25 118.125 31.25V31.25ZM36.875 43.75C34.2906 43.75 32.1875 41.6469 32.1875 39.0625C32.1875 36.4781 34.2906 34.375 36.875 34.375C39.4594 34.375 41.5625 36.4781 41.5625 39.0625C41.5625 41.6469 39.4594 43.75 36.875 43.75ZM103.989 37.5H97.8125V33.2687L94.9594 32.2609C94.8625 32.0156 94.7609 31.7703 94.6531 31.525L95.9594 28.7937L92.9688 25.8016L97.3609 21.4094C101.219 25.7578 103.633 31.3734 103.989 37.5V37.5ZM92.2672 44.1281C92.0641 44.7219 91.8141 45.3234 91.5219 45.9188L91.1875 46.5984L92.1859 48.6828L87.1203 53.7484L85.0344 52.7516L84.3531 53.0859C83.7672 53.375 83.1641 53.625 82.5625 53.8312L81.8469 54.0766L81.0812 56.25H73.9188L73.1516 54.075L72.4359 53.8297C71.8344 53.6234 71.2313 53.3734 70.6453 53.0844L69.9641 52.75L67.8781 53.7469L62.8125 48.6813L63.8109 46.5969L63.4766 45.9172C63.1844 45.3219 62.9344 44.7203 62.7313 44.1266L62.4875 43.4109L60.3125 42.6437V35.4797L62.4891 34.7125L62.7328 33.9969C62.9359 33.4031 63.1859 32.8016 63.4781 32.2062L63.8125 31.5266L62.8141 29.4422L67.8797 24.3766L69.9656 25.3734L70.6469 25.0391C71.2328 24.75 71.8359 24.5 72.4375 24.2938L73.1531 24.0484L73.9188 21.875H81.0812L81.8484 24.05L82.5641 24.2953C83.1656 24.5016 83.7688 24.7516 84.3547 25.0406L85.0359 25.375L87.1219 24.3781L92.1875 29.4437L91.1891 31.5281L91.5234 32.2078C91.8156 32.8031 92.0656 33.4047 92.2687 33.9984L92.5125 34.7141L94.6875 35.4813V42.6453L92.5109 43.4125L92.2672 44.1281ZM77.5 79.6875C75.7766 79.6875 74.375 78.2859 74.375 76.5625C74.375 74.8391 75.7766 73.4375 77.5 73.4375C79.2234 73.4375 80.625 74.8391 80.625 76.5625C80.625 78.2859 79.2234 79.6875 77.5 79.6875ZM105.625 7.8125C107.348 7.8125 108.75 9.21406 108.75 10.9375C108.75 12.6609 107.348 14.0625 105.625 14.0625C103.902 14.0625 102.5 12.6609 102.5 10.9375C102.5 9.21406 103.902 7.8125 105.625 7.8125ZM90.7578 23.5953L87.7672 20.6031L85.0344 21.9094C84.7922 21.8016 84.5453 21.7 84.2984 21.6031L83.2938 18.75H79.0625V13.8406C79.8656 13.6312 80.6016 13.2703 81.2469 12.7844C86.5734 13.5359 91.3453 15.8422 95.1359 19.2172L90.7578 23.5953ZM77.5 4.6875C79.2234 4.6875 80.625 6.08906 80.625 7.8125C80.625 9.53594 79.2234 10.9375 77.5 10.9375C75.7766 10.9375 74.375 9.53594 74.375 7.8125C74.375 6.08906 75.7766 4.6875 77.5 4.6875ZM73.7531 12.7844C74.3984 13.2703 75.1344 13.6312 75.9375 13.8406V18.75H71.7062L70.7 21.6031C70.4531 21.7 70.2078 21.8016 69.9641 21.9094L67.2312 20.6031L64.2406 23.5953L59.8625 19.2172C63.6547 15.8422 68.4266 13.5359 73.7531 12.7844V12.7844ZM49.375 14.0625C47.6516 14.0625 46.25 12.6609 46.25 10.9375C46.25 9.21406 47.6516 7.8125 49.375 7.8125C51.0984 7.8125 52.5 9.21406 52.5 10.9375C52.5 12.6609 51.0984 14.0625 49.375 14.0625ZM57.6406 21.4125L62.0328 25.8047L59.0422 28.7969L60.3484 31.5281C60.2406 31.7734 60.1375 32.0188 60.0422 32.2641L57.1875 33.2687V37.5H51.0109C51.3672 31.3734 53.7813 25.7578 57.6406 21.4125V21.4125ZM51.0109 40.625H57.1875V44.8563L60.0406 45.8641C60.1375 46.1094 60.2391 46.3547 60.3469 46.6L59.0406 49.3313L62.0313 52.3234L57.6562 56.6984C53.6781 52.2172 51.3594 46.5781 51.0109 40.625V40.625ZM49.375 70.3125C47.6516 70.3125 46.25 68.9109 46.25 67.1875C46.25 65.4641 47.6516 64.0625 49.375 64.0625C51.0984 64.0625 52.5 65.4641 52.5 67.1875C52.5 68.9109 51.0984 70.3125 49.375 70.3125ZM59.7578 59.0141L64.2422 54.5297L67.2328 57.5219L69.9656 56.2156C70.2078 56.3234 70.4547 56.425 70.7016 56.5219L71.7062 59.375H75.9375V70.5344C74.3078 70.9578 72.9484 72.0172 72.1187 73.4375H68.0516C67.7109 69.5891 66.1234 65.9609 63.4906 63.0859L59.7578 59.0141ZM65 76.5625H71.25C71.25 77.7062 71.5812 78.7641 72.1187 79.6875H65C64.1375 79.6875 63.4375 78.9859 63.4375 78.125C63.4375 77.2641 64.1375 76.5625 65 76.5625ZM79.0625 95.3125H75.9375C72.1656 95.3125 69.0094 92.6234 68.2828 89.0625H86.7172C85.9906 92.6234 82.8344 95.3125 79.0625 95.3125ZM90 85.9375H65C64.1375 85.9375 63.4375 85.2359 63.4375 84.375C63.4375 83.5141 64.1375 82.8125 65 82.8125H90C90.8625 82.8125 91.5625 83.5141 91.5625 84.375C91.5625 85.2359 90.8625 85.9375 90 85.9375ZM91.5625 78.125C91.5625 78.9859 90.8625 79.6875 90 79.6875H82.8813C83.4188 78.7641 83.75 77.7062 83.75 76.5625H90C90.8625 76.5625 91.5625 77.2641 91.5625 78.125ZM91.5094 63.0859C88.8766 65.9609 87.2875 69.5891 86.9484 73.4375H82.8813C82.0531 72.0172 80.6922 70.9578 79.0625 70.5344V59.375H83.2938L84.3 56.5219C84.5469 56.425 84.7922 56.3234 85.0359 56.2156L87.7687 57.5219L90.7594 54.5297L95.2437 59.0141L91.5094 63.0859ZM105.625 64.0625C107.348 64.0625 108.75 65.4641 108.75 67.1875C108.75 68.9109 107.348 70.3125 105.625 70.3125C103.902 70.3125 102.5 68.9109 102.5 67.1875C102.5 65.4641 103.902 64.0625 105.625 64.0625ZM97.3422 56.6953L92.9672 52.3203L95.9578 49.3281L94.6516 46.5969C94.7594 46.3516 94.8625 46.1062 94.9578 45.8609L97.8125 44.8563V40.625H103.989C103.641 46.5781 101.322 52.2172 97.3422 56.6953V56.6953ZM118.125 43.75C115.541 43.75 113.438 41.6469 113.438 39.0625C113.438 36.4781 115.541 34.375 118.125 34.375C120.709 34.375 122.812 36.4781 122.812 39.0625C122.812 41.6469 120.709 43.75 118.125 43.75Z" fill="#FF6A6A"/>
<path d="M14.7617 146V128.867H17.5625V146H14.7617ZM33.207 146H30.4414V138.031C30.4414 137.031 30.2383 136.285 29.832 135.793C29.4336 135.301 28.7969 135.055 27.9219 135.055C26.7578 135.055 25.9062 135.398 25.3672 136.086C24.8281 136.773 24.5586 137.926 24.5586 139.543V146H21.8047V133.039H23.9609L24.3477 134.738H24.4883C24.8789 134.121 25.4336 133.645 26.1523 133.309C26.8711 132.973 27.668 132.805 28.543 132.805C31.6523 132.805 33.207 134.387 33.207 137.551V146ZM45.7461 142.309C45.7461 143.574 45.2852 144.547 44.3633 145.227C43.4414 145.898 42.1211 146.234 40.4023 146.234C38.6758 146.234 37.2891 145.973 36.2422 145.449V143.07C37.7656 143.773 39.1836 144.125 40.4961 144.125C42.1914 144.125 43.0391 143.613 43.0391 142.59C43.0391 142.262 42.9453 141.988 42.7578 141.77C42.5703 141.551 42.2617 141.324 41.832 141.09C41.4023 140.855 40.8047 140.59 40.0391 140.293C38.5469 139.715 37.5352 139.137 37.0039 138.559C36.4805 137.98 36.2188 137.23 36.2188 136.309C36.2188 135.199 36.6641 134.34 37.5547 133.73C38.4531 133.113 39.6719 132.805 41.2109 132.805C42.7344 132.805 44.1758 133.113 45.5352 133.73L44.6445 135.805C43.2461 135.227 42.0703 134.938 41.1172 134.938C39.6641 134.938 38.9375 135.352 38.9375 136.18C38.9375 136.586 39.125 136.93 39.5 137.211C39.8828 137.492 40.7109 137.879 41.9844 138.371C43.0547 138.785 43.832 139.164 44.3164 139.508C44.8008 139.852 45.1602 140.25 45.3945 140.703C45.6289 141.148 45.7461 141.684 45.7461 142.309ZM51.4883 146H48.7344V133.039H51.4883V146ZM48.5703 129.605C48.5703 129.113 48.7031 128.734 48.9688 128.469C49.2422 128.203 49.6289 128.07 50.1289 128.07C50.6133 128.07 50.9883 128.203 51.2539 128.469C51.5273 128.734 51.6641 129.113 51.6641 129.605C51.6641 130.074 51.5273 130.445 51.2539 130.719C50.9883 130.984 50.6133 131.117 50.1289 131.117C49.6289 131.117 49.2422 130.984 48.9688 130.719C48.7031 130.445 48.5703 130.074 48.5703 129.605ZM66.3828 133.039V134.551L64.168 134.961C64.3711 135.234 64.5391 135.57 64.6719 135.969C64.8047 136.367 64.8711 136.789 64.8711 137.234C64.8711 138.57 64.4102 139.621 63.4883 140.387C62.5664 141.152 61.2969 141.535 59.6797 141.535C59.2656 141.535 58.8906 141.504 58.5547 141.441C57.9609 141.809 57.6641 142.238 57.6641 142.73C57.6641 143.027 57.8008 143.25 58.0742 143.398C58.3555 143.547 58.8672 143.621 59.6094 143.621H61.8711C63.3008 143.621 64.3867 143.926 65.1289 144.535C65.8711 145.145 66.2422 146.023 66.2422 147.172C66.2422 148.641 65.6367 149.773 64.4258 150.57C63.2148 151.367 61.4648 151.766 59.1758 151.766C57.4102 151.766 56.0625 151.453 55.1328 150.828C54.2031 150.203 53.7383 149.312 53.7383 148.156C53.7383 147.359 53.9883 146.688 54.4883 146.141C54.9961 145.602 55.7031 145.227 56.6094 145.016C56.2422 144.859 55.9375 144.609 55.6953 144.266C55.4609 143.914 55.3438 143.547 55.3438 143.164C55.3438 142.68 55.4805 142.27 55.7539 141.934C56.0273 141.598 56.4336 141.266 56.9727 140.938C56.3008 140.648 55.7539 140.18 55.332 139.531C54.918 138.875 54.7109 138.109 54.7109 137.234C54.7109 135.828 55.1523 134.738 56.0352 133.965C56.9258 133.191 58.1914 132.805 59.832 132.805C60.1992 132.805 60.582 132.832 60.9805 132.887C61.3867 132.934 61.6914 132.984 61.8945 133.039H66.3828ZM56.1992 148.016C56.1992 148.609 56.4648 149.066 56.9961 149.387C57.5352 149.707 58.2891 149.867 59.2578 149.867C60.7578 149.867 61.875 149.652 62.6094 149.223C63.3438 148.793 63.7109 148.223 63.7109 147.512C63.7109 146.949 63.5078 146.547 63.1016 146.305C62.7031 146.07 61.957 145.953 60.8633 145.953H58.7773C57.9883 145.953 57.3594 146.137 56.8906 146.504C56.4297 146.879 56.1992 147.383 56.1992 148.016ZM57.3828 137.234C57.3828 138.047 57.5898 138.672 58.0039 139.109C58.4258 139.547 59.0273 139.766 59.8086 139.766C61.4023 139.766 62.1992 138.914 62.1992 137.211C62.1992 136.367 62 135.719 61.6016 135.266C61.2109 134.805 60.6133 134.574 59.8086 134.574C59.0117 134.574 58.4062 134.801 57.9922 135.254C57.5859 135.707 57.3828 136.367 57.3828 137.234ZM80.1992 146H77.4336V138.031C77.4336 137.031 77.2305 136.285 76.8242 135.793C76.4258 135.301 75.7891 135.055 74.9141 135.055C73.7578 135.055 72.9062 135.402 72.3594 136.098C71.8203 136.785 71.5508 137.941 71.5508 139.566V146H68.7969V127.766H71.5508V132.395C71.5508 133.137 71.5039 133.93 71.4102 134.773H71.5859C71.9609 134.148 72.4805 133.664 73.1445 133.32C73.8164 132.977 74.5977 132.805 75.4883 132.805C78.6289 132.805 80.1992 134.387 80.1992 137.551V146ZM88.8594 144.008C89.5312 144.008 90.2031 143.902 90.875 143.691V145.766C90.5703 145.898 90.1758 146.008 89.6914 146.094C89.2148 146.188 88.7188 146.234 88.2031 146.234C85.5938 146.234 84.2891 144.859 84.2891 142.109V135.125H82.5195V133.906L84.418 132.898L85.3555 130.156H87.0547V133.039H90.7461V135.125H87.0547V142.062C87.0547 142.727 87.2188 143.219 87.5469 143.539C87.8828 143.852 88.3203 144.008 88.8594 144.008ZM99.9805 135.125H96.8164V146H94.0508V135.125H91.918V133.836L94.0508 132.992V132.148C94.0508 130.617 94.4102 129.484 95.1289 128.75C95.8477 128.008 96.9453 127.637 98.4219 127.637C99.3906 127.637 100.344 127.797 101.281 128.117L100.555 130.203C99.875 129.984 99.2266 129.875 98.6094 129.875C97.9844 129.875 97.5273 130.07 97.2383 130.461C96.957 130.844 96.8164 131.422 96.8164 132.195V133.039H99.9805V135.125ZM111.336 146L110.949 144.301H110.809C110.426 144.902 109.879 145.375 109.168 145.719C108.465 146.062 107.66 146.234 106.754 146.234C105.184 146.234 104.012 145.844 103.238 145.062C102.465 144.281 102.078 143.098 102.078 141.512V133.039H104.855V141.031C104.855 142.023 105.059 142.77 105.465 143.27C105.871 143.762 106.508 144.008 107.375 144.008C108.531 144.008 109.379 143.664 109.918 142.977C110.465 142.281 110.738 141.121 110.738 139.496V133.039H113.504V146H111.336ZM120.184 146H117.43V127.766H120.184V146ZM126.887 146H124.133V127.766H126.887V146ZM128.867 133.039H131.867L134.504 140.387C134.902 141.434 135.168 142.418 135.301 143.34H135.395C135.465 142.91 135.594 142.391 135.781 141.781C135.969 141.164 136.961 138.25 138.758 133.039H141.734L136.191 147.723C135.184 150.418 133.504 151.766 131.152 151.766C130.543 151.766 129.949 151.699 129.371 151.566V149.387C129.785 149.48 130.258 149.527 130.789 149.527C132.117 149.527 133.051 148.758 133.59 147.219L134.07 146L128.867 133.039Z" fill="#FF6A6A"/>
</svg>
