<svg width="155" height="163" viewBox="0 0 155 163" fill="none" xmlns="http://www.w3.org/2000/svg">
<g clip-path="url(#clip0)">
<path d="M115.934 41.2675H99.9099C101.165 39.5326 102.252 37.716 103.059 35.8507C104.077 33.4947 104.6 31.1815 104.613 28.9735C104.639 24.5408 102.975 20.3096 100.049 17.3661C97.5585 14.8606 94.3488 13.4805 91.0117 13.4805C87.1016 13.4805 83.4822 15.384 80.9599 18.5342C78.4377 15.384 74.8183 13.4805 70.9082 13.4805C67.1873 13.4805 63.7198 15.1536 61.1433 18.1893C58.6928 21.0778 57.3301 24.8948 57.3065 28.9384C57.2935 31.154 57.7986 33.4749 58.8064 35.8377C59.6045 37.7077 60.6894 39.5288 61.9444 41.2675H46.6169C45.5671 41.2675 44.5974 41.8291 44.0748 42.7408L35.8648 57.0719C34.863 58.8198 34.8684 60.9041 35.8785 62.6482C36.8833 64.3816 38.6762 65.4169 40.6744 65.4169H46.5734L47.4073 80.1127C47.3921 82.2993 48.3259 84.3623 49.9823 85.789C51.6416 87.2195 53.8237 87.8329 55.979 87.4781L62.2839 86.6602L62.332 96.889C62.3396 98.5011 63.6488 99.8049 65.2617 99.8049H101.346C102.964 99.8049 104.275 98.4927 104.275 96.8753V74.8736C113.462 68.886 118.367 58.6099 118.862 44.2987C118.89 43.5045 118.594 42.7331 118.041 42.1617C117.49 41.5903 116.729 41.2675 115.934 41.2675V41.2675ZM70.9082 19.3399C74.111 19.3399 77.0239 21.8629 78.1546 25.6181C78.5277 26.8563 79.6675 27.7032 80.9599 27.7032C82.2524 27.7032 83.3922 26.8563 83.7653 25.6181C84.896 21.8629 87.8081 19.3399 91.0117 19.3399C92.7771 19.3399 94.5113 20.1058 95.8938 21.4967C97.7279 23.3422 98.7708 26.0545 98.7533 28.9384C98.7456 30.3544 98.384 31.8971 97.6806 33.5252C96.3797 36.5343 94.1008 39.4701 91.5854 42.0854C91.5335 42.1342 91.4855 42.1854 91.4382 42.238C87.5869 46.2083 83.2167 49.418 80.9523 50.9798C79.5241 50.0032 77.2589 48.3751 74.8068 46.3037C69.525 41.8428 65.8552 37.4284 64.1951 33.5382C63.5039 31.9169 63.1575 30.3819 63.1659 28.9735C63.1972 23.6612 66.6701 19.3399 70.9082 19.3399V19.3399ZM109.659 59.9413C107.46 64.6578 104.263 68.1757 99.8847 70.6949C98.976 71.2175 98.416 72.1865 98.416 73.2348V93.9456H68.1776L68.1387 85.6371L73.6761 84.3127C77.3039 83.4452 80.3565 81.0328 82.051 77.6911C83.8553 74.1343 86.1487 69.4773 86.1716 69.4307C86.3768 69.0142 86.4737 68.5724 86.473 68.1376C86.473 67.0565 85.8718 66.0181 84.8372 65.5085C83.3853 64.7936 81.629 65.391 80.9149 66.8428C80.892 66.8894 78.6139 71.5143 76.8256 75.0414C75.91 76.845 74.2659 78.1473 72.3143 78.6135L64.6673 80.4423L55.1687 81.6752C55.1268 81.6805 55.084 81.6866 55.0421 81.6943C54.4378 81.7995 54.0091 81.5249 53.8076 81.3509C53.5986 81.1709 53.2515 80.7726 53.2667 80.1234C53.269 80.044 53.2675 79.9654 53.2629 79.8861L52.3352 63.5263C52.458 63.2029 52.5251 62.8534 52.5251 62.4872C52.5251 60.869 51.2129 59.5575 49.5954 59.5575H41.1939L48.3152 47.1269H67.0225C72.7637 52.8238 79.0091 56.7316 79.4173 56.9849C79.8903 57.2771 80.4251 57.4236 80.9599 57.4236C81.4978 57.4236 82.0365 57.2756 82.511 56.9795C82.9154 56.727 89.115 52.82 94.8371 47.1277H112.823C112.392 52.0532 111.33 56.3532 109.659 59.9413V59.9413Z" fill="#FF6A6A"/>
<path d="M81.1157 7.76979C82.7339 7.76979 84.0454 6.4583 84.0454 4.8401V2.73438C84.0454 1.11618 82.7339 -0.195312 81.1157 -0.195312C79.4975 -0.195312 78.186 1.11618 78.186 2.73438V4.8401C78.186 6.4583 79.4975 7.76979 81.1157 7.76979Z" fill="#FF6A6A"/>
<path d="M54.1597 15.5992C54.7319 16.1729 55.4826 16.4598 56.2341 16.4598C56.9826 16.4598 57.731 16.1752 58.3024 15.6045C59.4484 14.4624 59.4507 12.6077 58.3085 11.4618L56.4409 9.5895C55.2987 8.44356 53.4433 8.44127 52.2981 9.58416C51.1522 10.7263 51.1499 12.581 52.292 13.7269L54.1597 15.5992Z" fill="#FF6A6A"/>
<path d="M106.32 16.4598C107.071 16.4598 107.822 16.1729 108.395 15.5992L110.262 13.7269C111.404 12.581 111.401 10.7263 110.255 9.58416C109.11 8.44127 107.255 8.44356 106.113 9.5895L104.246 11.4618C103.103 12.6077 103.105 14.4624 104.251 15.6045C104.823 16.1752 105.572 16.4598 106.32 16.4598Z" fill="#FF6A6A"/>
<path d="M45.2573 35.4019H47.4874C49.1056 35.4019 50.4171 34.0896 50.4171 32.4722C50.4171 30.854 49.1056 29.5425 47.4874 29.5425H45.2573C43.6391 29.5425 42.3276 30.854 42.3276 32.4722C42.3276 34.0896 43.6391 35.4019 45.2573 35.4019Z" fill="#FF6A6A"/>
<path d="M117.016 29.5425H114.744C113.125 29.5425 111.814 30.854 111.814 32.4722C111.814 34.0896 113.125 35.4019 114.744 35.4019H117.016C118.634 35.4019 119.945 34.0896 119.945 32.4722C119.945 30.854 118.634 29.5425 117.016 29.5425Z" fill="#FF6A6A"/>
</g>
<path d="M33.7617 146V128.867H36.5625V146H33.7617ZM52.207 146H49.4414V138.031C49.4414 137.031 49.2383 136.285 48.832 135.793C48.4336 135.301 47.7969 135.055 46.9219 135.055C45.7578 135.055 44.9062 135.398 44.3672 136.086C43.8281 136.773 43.5586 137.926 43.5586 139.543V146H40.8047V133.039H42.9609L43.3477 134.738H43.4883C43.8789 134.121 44.4336 133.645 45.1523 133.309C45.8711 132.973 46.668 132.805 47.543 132.805C50.6523 132.805 52.207 134.387 52.207 137.551V146ZM60.8672 144.008C61.5391 144.008 62.2109 143.902 62.8828 143.691V145.766C62.5781 145.898 62.1836 146.008 61.6992 146.094C61.2227 146.188 60.7266 146.234 60.2109 146.234C57.6016 146.234 56.2969 144.859 56.2969 142.109V135.125H54.5273V133.906L56.4258 132.898L57.3633 130.156H59.0625V133.039H62.7539V135.125H59.0625V142.062C59.0625 142.727 59.2266 143.219 59.5547 143.539C59.8906 143.852 60.3281 144.008 60.8672 144.008ZM71.1445 146.234C69.1289 146.234 67.5508 145.648 66.4102 144.477C65.2773 143.297 64.7109 141.676 64.7109 139.613C64.7109 137.496 65.2383 135.832 66.293 134.621C67.3477 133.41 68.7969 132.805 70.6406 132.805C72.3516 132.805 73.7031 133.324 74.6953 134.363C75.6875 135.402 76.1836 136.832 76.1836 138.652V140.141H67.5469C67.5859 141.398 67.9258 142.367 68.5664 143.047C69.207 143.719 70.1094 144.055 71.2734 144.055C72.0391 144.055 72.75 143.984 73.4062 143.844C74.0703 143.695 74.7812 143.453 75.5391 143.117V145.355C74.8672 145.676 74.1875 145.902 73.5 146.035C72.8125 146.168 72.0273 146.234 71.1445 146.234ZM70.6406 134.891C69.7656 134.891 69.0625 135.168 68.5312 135.723C68.0078 136.277 67.6953 137.086 67.5938 138.148H73.4766C73.4609 137.078 73.2031 136.27 72.7031 135.723C72.2031 135.168 71.5156 134.891 70.6406 134.891ZM85.8867 132.805C86.4414 132.805 86.8984 132.844 87.2578 132.922L86.9883 135.488C86.5977 135.395 86.1914 135.348 85.7695 135.348C84.668 135.348 83.7734 135.707 83.0859 136.426C82.4062 137.145 82.0664 138.078 82.0664 139.227V146H79.3125V133.039H81.4688L81.832 135.324H81.9727C82.4023 134.551 82.9609 133.938 83.6484 133.484C84.3438 133.031 85.0898 132.805 85.8867 132.805ZM95.332 146.234C93.3164 146.234 91.7383 145.648 90.5977 144.477C89.4648 143.297 88.8984 141.676 88.8984 139.613C88.8984 137.496 89.4258 135.832 90.4805 134.621C91.5352 133.41 92.9844 132.805 94.8281 132.805C96.5391 132.805 97.8906 133.324 98.8828 134.363C99.875 135.402 100.371 136.832 100.371 138.652V140.141H91.7344C91.7734 141.398 92.1133 142.367 92.7539 143.047C93.3945 143.719 94.2969 144.055 95.4609 144.055C96.2266 144.055 96.9375 143.984 97.5938 143.844C98.2578 143.695 98.9688 143.453 99.7266 143.117V145.355C99.0547 145.676 98.375 145.902 97.6875 146.035C97 146.168 96.2148 146.234 95.332 146.234ZM94.8281 134.891C93.9531 134.891 93.25 135.168 92.7188 135.723C92.1953 136.277 91.8828 137.086 91.7812 138.148H97.6641C97.6484 137.078 97.3906 136.27 96.8906 135.723C96.3906 135.168 95.7031 134.891 94.8281 134.891ZM112.207 142.309C112.207 143.574 111.746 144.547 110.824 145.227C109.902 145.898 108.582 146.234 106.863 146.234C105.137 146.234 103.75 145.973 102.703 145.449V143.07C104.227 143.773 105.645 144.125 106.957 144.125C108.652 144.125 109.5 143.613 109.5 142.59C109.5 142.262 109.406 141.988 109.219 141.77C109.031 141.551 108.723 141.324 108.293 141.09C107.863 140.855 107.266 140.59 106.5 140.293C105.008 139.715 103.996 139.137 103.465 138.559C102.941 137.98 102.68 137.23 102.68 136.309C102.68 135.199 103.125 134.34 104.016 133.73C104.914 133.113 106.133 132.805 107.672 132.805C109.195 132.805 110.637 133.113 111.996 133.73L111.105 135.805C109.707 135.227 108.531 134.938 107.578 134.938C106.125 134.938 105.398 135.352 105.398 136.18C105.398 136.586 105.586 136.93 105.961 137.211C106.344 137.492 107.172 137.879 108.445 138.371C109.516 138.785 110.293 139.164 110.777 139.508C111.262 139.852 111.621 140.25 111.855 140.703C112.09 141.148 112.207 141.684 112.207 142.309ZM120.023 144.008C120.695 144.008 121.367 143.902 122.039 143.691V145.766C121.734 145.898 121.34 146.008 120.855 146.094C120.379 146.188 119.883 146.234 119.367 146.234C116.758 146.234 115.453 144.859 115.453 142.109V135.125H113.684V133.906L115.582 132.898L116.52 130.156H118.219V133.039H121.91V135.125H118.219V142.062C118.219 142.727 118.383 143.219 118.711 143.539C119.047 143.852 119.484 144.008 120.023 144.008Z" fill="#FF6A6A"/>
<defs>
<clipPath id="clip0">
<rect width="100" height="100" fill="white" transform="translate(27.5)"/>
</clipPath>
</defs>
</svg>
