<svg width="155" height="163" viewBox="0 0 155 163" fill="none" xmlns="http://www.w3.org/2000/svg">
<path d="M127.499 30.6447C127.499 27.977 125.328 25.806 122.66 25.806C122.105 25.806 121.58 25.9189 121.083 26.0915L113.856 17.0578C114.317 16.3175 114.596 15.4514 114.596 14.5159C114.596 11.8482 112.425 9.67726 109.757 9.67726C108.401 9.67726 107.178 10.2418 106.299 11.1418L93.5849 5.27411C93.5978 5.12895 93.6285 4.98863 93.6285 4.83863C93.6285 2.17093 91.4575 0 88.7898 0C86.6899 0 84.9157 1.3532 84.248 3.22575H65.9128C65.245 1.3532 63.4709 0 61.3709 0C58.7032 0 56.5323 2.17093 56.5323 4.83863C56.5323 5.03863 56.5678 5.23056 56.592 5.42572L48.5921 9.42565C47.7211 8.58696 46.5437 8.06439 45.2421 8.06439C42.5744 8.06439 40.4035 10.2353 40.4035 12.903C40.4035 13.8385 40.6825 14.7046 41.1438 15.4449L33.9165 24.4786C33.4197 24.3061 32.8939 24.1932 32.3391 24.1932C29.6714 24.1932 27.5005 26.3641 27.5005 29.0318C27.5005 31.1318 28.8537 32.9059 30.7262 33.5737V43.8461C28.8537 44.5122 27.5005 46.2864 27.5005 48.3863C27.5005 51.054 29.6714 53.2249 32.3391 53.2249C34.131 53.2249 35.6794 52.2346 36.5165 50.7847L45.3212 52.3846C45.6937 54.6846 47.6776 56.4507 50.0808 56.4507C50.1453 56.4507 50.2066 56.4346 50.2711 56.4313L53.3485 64.1264C52.342 65.0135 51.6936 66.2973 51.6936 67.7408C51.6936 70.4085 53.8646 72.5795 56.5323 72.5795C58.1548 72.5795 59.5855 71.7698 60.4629 70.5424L74.3046 74.4972C74.4288 76.4617 75.7191 78.0987 77.4997 78.7342V90.6195C75.6271 91.2872 74.2739 93.0614 74.2739 95.1614C74.2739 97.8291 76.4449 100 79.1126 100C81.7803 100 83.9512 97.8291 83.9512 95.1614C83.9512 93.0614 82.598 91.2872 80.7254 90.6195V78.7342C82.598 78.0665 83.9512 76.2923 83.9512 74.1924C83.9512 72.6472 83.2093 71.2843 82.0786 70.3973L84.0044 64.6183L98.4768 69.4424C98.5155 71.5021 99.8477 73.2359 101.693 73.894V90.6179C99.8203 91.2856 98.4671 93.0598 98.4671 95.1598C98.4671 97.8275 100.638 99.9984 103.306 99.9984C105.973 99.9984 108.144 97.8275 108.144 95.1598C108.144 93.0598 106.791 91.2856 104.919 90.6179V73.8956C106.791 73.2279 108.144 71.4537 108.144 69.3537C108.144 68.765 108.023 68.207 107.83 67.6844L120.205 57.3717C120.926 57.8007 121.76 58.0636 122.66 58.0636C125.328 58.0636 127.499 55.8926 127.499 53.2249C127.499 51.125 126.146 49.3508 124.273 48.6831V35.1849C126.146 34.5188 127.499 32.7446 127.499 30.6447ZM109.757 12.903C110.646 12.903 111.37 13.6256 111.37 14.5159C111.37 15.4062 110.646 16.1288 109.757 16.1288C108.869 16.1288 108.144 15.4062 108.144 14.5159C108.144 13.6256 108.869 12.903 109.757 12.903ZM107.464 18.7497C108.149 19.1239 108.923 19.3545 109.757 19.3545C110.312 19.3545 110.836 19.2416 111.333 19.069L118.56 28.1044C118.101 28.8447 117.822 29.7092 117.822 30.6447C117.822 30.9043 117.859 31.1543 117.899 31.4043L106.473 37.6365L98.1526 30.7027C98.3461 30.1785 98.4671 29.6205 98.4671 29.0318C98.4671 28.377 98.3332 27.7512 98.0961 27.1818L107.464 18.7497ZM87.1769 45.1606C86.4318 45.1606 85.735 45.3428 85.1044 45.646L78.2706 38.8123L90.335 32.5559C91.2011 33.3656 92.3527 33.8704 93.6285 33.8704C94.5284 33.8704 95.3607 33.6075 96.0832 33.1785L103.427 39.2978L90.3898 46.4089C89.5334 45.6412 88.4156 45.1606 87.1769 45.1606ZM88.7898 49.9992C88.7898 50.8895 88.0656 51.6121 87.1769 51.6121C86.2882 51.6121 85.5641 50.8895 85.5641 49.9992C85.5641 49.1089 86.2882 48.3863 87.1769 48.3863C88.0656 48.3863 88.7898 49.1089 88.7898 49.9992ZM64.4047 32.2366L67.1127 40.9622L53.3743 48.0863C52.7985 47.5492 52.0936 47.1589 51.3098 46.9509L49.0743 29.8092L60.1258 29.256C60.8274 30.956 62.4725 32.1592 64.4047 32.2366ZM62.9838 27.4189C62.9838 26.5286 63.708 25.806 64.5967 25.806C65.4854 25.806 66.2095 26.5286 66.2095 27.4189C66.2095 28.3092 65.4854 29.0318 64.5967 29.0318C63.708 29.0318 62.9838 28.3092 62.9838 27.4189ZM68.0821 44.0945L72.1723 57.2765L54.9097 51.5218C54.9065 51.3282 54.8775 51.1411 54.8517 50.954L68.0821 44.0945ZM68.0708 33.1753L72.8739 37.9768L70.0208 39.4558L68.0708 33.1753ZM68.9514 29.4915C69.253 28.8608 69.4353 28.1641 69.4353 27.4189C69.4353 26.7318 69.2869 26.0802 69.0289 25.4883L76.6868 18.34L89.0318 27.5979C88.8882 28.056 88.7898 28.5302 88.7898 29.0318C88.7898 29.2576 88.8269 29.4721 88.8559 29.6898L75.8771 36.4188L68.9514 29.4915ZM92.0156 29.0318C92.0156 28.1415 92.7398 27.4189 93.6285 27.4189C94.5171 27.4189 95.2413 28.1415 95.2413 29.0318C95.2413 29.9221 94.5171 30.6447 93.6285 30.6447C92.7398 30.6447 92.0156 29.9221 92.0156 29.0318ZM106.093 41.5187L117.649 51.1492L92.6091 48.8734L106.093 41.5187ZM88.7898 3.22575C89.6785 3.22575 90.4027 3.94832 90.4027 4.83863C90.4027 5.72894 89.6785 6.45151 88.7898 6.45151C87.9011 6.45151 87.1769 5.72894 87.1769 4.83863C87.1769 3.94832 87.9011 3.22575 88.7898 3.22575ZM86.5737 9.11437C87.2398 9.46114 87.9866 9.67726 88.7898 9.67726C90.1462 9.67726 91.3688 9.11276 92.2494 8.21116L104.962 14.0788C104.949 14.2256 104.919 14.3659 104.919 14.5159C104.919 15.1723 105.052 15.7965 105.29 16.3675L95.922 24.798C95.2365 24.4238 94.4623 24.1932 93.6285 24.1932C92.6381 24.1932 91.7172 24.4948 90.9495 25.0077L79.0819 16.1062L86.5737 9.11437ZM84.248 6.45151C84.2867 6.55635 84.3141 6.66602 84.3576 6.76763L76.4594 14.1385L66.2095 6.45151H84.248ZM61.3709 3.22575C62.2596 3.22575 62.9838 3.94832 62.9838 4.83863C62.9838 5.72894 62.2596 6.45151 61.3709 6.45151C60.4822 6.45151 59.758 5.72894 59.758 4.83863C59.758 3.94832 60.4822 3.22575 61.3709 3.22575ZM50.0808 12.903C50.0808 12.703 50.0453 12.5111 50.0211 12.3175L58.021 8.31761C58.8919 9.15469 60.0693 9.67726 61.3709 9.67726C62.3612 9.67726 63.2822 9.37566 64.0499 8.86276L74.0643 16.3739L66.8128 23.1416C66.1466 22.7948 65.3999 22.5803 64.5967 22.5803C62.4128 22.5803 60.5838 24.0432 59.9838 26.0335L48.655 26.5996L47.4292 17.1949C48.9953 16.3933 50.0808 14.7804 50.0808 12.903ZM45.2421 11.2901C46.1308 11.2901 46.855 12.0127 46.855 12.903C46.855 13.7933 46.1308 14.5159 45.2421 14.5159C44.3534 14.5159 43.6293 13.7933 43.6293 12.903C43.6293 12.0127 44.3534 11.2901 45.2421 11.2901ZM43.6647 17.4562C43.8518 17.5207 44.0357 17.59 44.2309 17.632L45.4212 26.7625L36.81 27.1931C36.7084 26.9463 36.5778 26.7157 36.4374 26.4899L43.6647 17.4562ZM32.3391 27.4189C33.2278 27.4189 33.952 28.1415 33.952 29.0318C33.952 29.9221 33.2278 30.6447 32.3391 30.6447C31.4504 30.6447 30.7262 29.9221 30.7262 29.0318C30.7262 28.1415 31.4504 27.4189 32.3391 27.4189ZM32.3391 49.9992C31.4504 49.9992 30.7262 49.2766 30.7262 48.3863C30.7262 47.496 31.4504 46.7734 32.3391 46.7734C33.2278 46.7734 33.952 47.496 33.952 48.3863C33.952 49.2766 33.2278 49.9992 32.3391 49.9992ZM45.9034 49.2137L37.1003 47.6137C36.8149 45.8573 35.5891 44.4283 33.952 43.8445V33.572C35.3923 33.0575 36.5084 31.8882 36.9519 30.4156L45.8421 29.9705L48.0905 47.2121C47.1647 47.6331 46.4082 48.3379 45.9034 49.2137ZM50.0808 53.2249C49.1921 53.2249 48.4679 52.5024 48.4679 51.6121C48.4679 50.7218 49.1921 49.9992 50.0808 49.9992C50.9695 49.9992 51.6936 50.7218 51.6936 51.6121C51.6936 52.5024 50.9695 53.2249 50.0808 53.2249ZM56.5323 69.3537C55.6436 69.3537 54.9194 68.6312 54.9194 67.7408C54.9194 66.8505 55.6436 66.128 56.5323 66.128C57.421 66.128 58.1452 66.8505 58.1452 67.7408C58.1452 68.6312 57.421 69.3537 56.5323 69.3537ZM75.1836 71.3908L61.3419 67.436C61.179 64.9119 59.0968 62.9022 56.5323 62.9022C56.4678 62.9022 56.4065 62.9183 56.342 62.9216L53.2646 55.2265C53.4888 55.0281 53.692 54.812 53.8775 54.5765L73.3514 61.0684L76.2271 70.3327C75.8287 70.6327 75.4739 70.986 75.1836 71.3908ZM79.1126 96.7726C78.2239 96.7726 77.4997 96.0501 77.4997 95.1598C77.4997 94.2694 78.2239 93.5469 79.1126 93.5469C80.0013 93.5469 80.7254 94.2694 80.7254 95.1598C80.7254 96.0501 80.0013 96.7726 79.1126 96.7726ZM79.1126 75.8052C78.2239 75.8052 77.4997 75.0827 77.4997 74.1924C77.4997 73.302 78.2239 72.5795 79.1126 72.5795C80.0013 72.5795 80.7254 73.302 80.7254 74.1924C80.7254 75.0827 80.0013 75.8052 79.1126 75.8052ZM79.1674 68.9279L77.1174 62.3248L80.9432 63.6006L79.1674 68.9279ZM81.9641 60.5393L75.9416 58.5313L70.9933 42.5864L75.2675 40.3703L82.8238 47.9266C82.5206 48.5573 82.3383 49.254 82.3383 49.9992C82.3383 51.5443 83.0802 52.9088 84.2125 53.7943L81.9641 60.5393ZM103.306 96.7726C102.417 96.7726 101.693 96.0501 101.693 95.1598C101.693 94.2694 102.417 93.5469 103.306 93.5469C104.194 93.5469 104.919 94.2694 104.919 95.1598C104.919 96.0501 104.194 96.7726 103.306 96.7726ZM103.306 70.9666C102.417 70.9666 101.693 70.244 101.693 69.3537C101.693 68.4634 102.417 67.7408 103.306 67.7408C104.194 67.7408 104.919 68.4634 104.919 69.3537C104.919 70.244 104.194 70.9666 103.306 70.9666ZM105.761 65.2054C105.038 64.778 104.206 64.5151 103.306 64.5151C101.761 64.5151 100.396 65.257 99.5106 66.3893L85.0238 61.5603L87.2673 54.8281C89.1737 54.7927 90.8043 53.6507 91.5591 52.0169L117.988 54.4185C118.03 54.5798 118.078 54.7378 118.136 54.8927L105.761 65.2054ZM109.139 39.8558L119.447 34.2333C119.91 34.6494 120.451 34.972 121.049 35.1849V48.6831C120.752 48.7895 120.472 48.9202 120.205 49.0782L109.139 39.8558ZM122.66 54.8378C121.772 54.8378 121.047 54.1153 121.047 53.2249C121.047 52.3346 121.772 51.6121 122.66 51.6121C123.549 51.6121 124.273 52.3346 124.273 53.2249C124.273 54.1153 123.549 54.8378 122.66 54.8378ZM122.66 32.2575C121.772 32.2575 121.047 31.535 121.047 30.6447C121.047 29.7544 121.772 29.0318 122.66 29.0318C123.549 29.0318 124.273 29.7544 124.273 30.6447C124.273 31.535 123.549 32.2575 122.66 32.2575Z" fill="#FF6A6A"/>
<path d="M33.9528 0H30.7271V3.22575H33.9528V0Z" fill="#FF6A6A"/>
<path d="M33.9528 6.45117H30.7271V9.67693H33.9528V6.45117Z" fill="#FF6A6A"/>
<path d="M37.1779 3.22559H33.9521V6.45134H37.1779V3.22559Z" fill="#FF6A6A"/>
<path d="M30.7262 3.22559H27.5005V6.45134H30.7262V3.22559Z" fill="#FF6A6A"/>
<path d="M114.596 74.1924H111.37V77.4181H114.596V74.1924Z" fill="#FF6A6A"/>
<path d="M114.596 80.6436H111.37V83.8693H114.596V80.6436Z" fill="#FF6A6A"/>
<path d="M117.822 77.418H114.596V80.6437H117.822V77.418Z" fill="#FF6A6A"/>
<path d="M111.37 77.418H108.145V80.6437H111.37V77.418Z" fill="#FF6A6A"/>
<path d="M124.274 6.45117H121.048V9.67693H124.274V6.45117Z" fill="#FF6A6A"/>
<path d="M124.274 12.9028H121.048V16.1286H124.274V12.9028Z" fill="#FF6A6A"/>
<path d="M127.499 9.67725H124.273V12.903H127.499V9.67725Z" fill="#FF6A6A"/>
<path d="M121.048 9.67725H117.822V12.903H121.048V9.67725Z" fill="#FF6A6A"/>
<path d="M50.0812 77.418H46.8555V80.6437H50.0812V77.418Z" fill="#FF6A6A"/>
<path d="M50.0812 83.8696H46.8555V87.0954H50.0812V83.8696Z" fill="#FF6A6A"/>
<path d="M53.3063 80.6436H50.0806V83.8693H53.3063V80.6436Z" fill="#FF6A6A"/>
<path d="M46.8547 80.6436H43.6289V83.8693H46.8547V80.6436Z" fill="#FF6A6A"/>
<path d="M40.403 59.6763H37.1772V62.902H40.403V59.6763Z" fill="#FF6A6A"/>
<path d="M40.403 66.1279H37.1772V69.3537H40.403V66.1279Z" fill="#FF6A6A"/>
<path d="M43.6296 62.9023H40.4038V66.1281H43.6296V62.9023Z" fill="#FF6A6A"/>
<path d="M37.1779 62.9023H33.9521V66.1281H37.1779V62.9023Z" fill="#FF6A6A"/>
<path d="M12.2617 146V128.867H15.0625V146H12.2617ZM30.707 146H27.9414V138.031C27.9414 137.031 27.7383 136.285 27.332 135.793C26.9336 135.301 26.2969 135.055 25.4219 135.055C24.2578 135.055 23.4062 135.398 22.8672 136.086C22.3281 136.773 22.0586 137.926 22.0586 139.543V146H19.3047V133.039H21.4609L21.8477 134.738H21.9883C22.3789 134.121 22.9336 133.645 23.6523 133.309C24.3711 132.973 25.168 132.805 26.043 132.805C29.1523 132.805 30.707 134.387 30.707 137.551V146ZM39.3672 144.008C40.0391 144.008 40.7109 143.902 41.3828 143.691V145.766C41.0781 145.898 40.6836 146.008 40.1992 146.094C39.7227 146.188 39.2266 146.234 38.7109 146.234C36.1016 146.234 34.7969 144.859 34.7969 142.109V135.125H33.0273V133.906L34.9258 132.898L35.8633 130.156H37.5625V133.039H41.2539V135.125H37.5625V142.062C37.5625 142.727 37.7266 143.219 38.0547 143.539C38.3906 143.852 38.8281 144.008 39.3672 144.008ZM49.6445 146.234C47.6289 146.234 46.0508 145.648 44.9102 144.477C43.7773 143.297 43.2109 141.676 43.2109 139.613C43.2109 137.496 43.7383 135.832 44.793 134.621C45.8477 133.41 47.2969 132.805 49.1406 132.805C50.8516 132.805 52.2031 133.324 53.1953 134.363C54.1875 135.402 54.6836 136.832 54.6836 138.652V140.141H46.0469C46.0859 141.398 46.4258 142.367 47.0664 143.047C47.707 143.719 48.6094 144.055 49.7734 144.055C50.5391 144.055 51.25 143.984 51.9062 143.844C52.5703 143.695 53.2812 143.453 54.0391 143.117V145.355C53.3672 145.676 52.6875 145.902 52 146.035C51.3125 146.168 50.5273 146.234 49.6445 146.234ZM49.1406 134.891C48.2656 134.891 47.5625 135.168 47.0312 135.723C46.5078 136.277 46.1953 137.086 46.0938 138.148H51.9766C51.9609 137.078 51.7031 136.27 51.2031 135.723C50.7031 135.168 50.0156 134.891 49.1406 134.891ZM60.5664 146H57.8125V127.766H60.5664V146ZM67.2695 146H64.5156V127.766H67.2695V146ZM73.9727 146H71.2188V133.039H73.9727V146ZM71.0547 129.605C71.0547 129.113 71.1875 128.734 71.4531 128.469C71.7266 128.203 72.1133 128.07 72.6133 128.07C73.0977 128.07 73.4727 128.203 73.7383 128.469C74.0117 128.734 74.1484 129.113 74.1484 129.605C74.1484 130.074 74.0117 130.445 73.7383 130.719C73.4727 130.984 73.0977 131.117 72.6133 131.117C72.1133 131.117 71.7266 130.984 71.4531 130.719C71.1875 130.445 71.0547 130.074 71.0547 129.605ZM88.8672 133.039V134.551L86.6523 134.961C86.8555 135.234 87.0234 135.57 87.1562 135.969C87.2891 136.367 87.3555 136.789 87.3555 137.234C87.3555 138.57 86.8945 139.621 85.9727 140.387C85.0508 141.152 83.7812 141.535 82.1641 141.535C81.75 141.535 81.375 141.504 81.0391 141.441C80.4453 141.809 80.1484 142.238 80.1484 142.73C80.1484 143.027 80.2852 143.25 80.5586 143.398C80.8398 143.547 81.3516 143.621 82.0938 143.621H84.3555C85.7852 143.621 86.8711 143.926 87.6133 144.535C88.3555 145.145 88.7266 146.023 88.7266 147.172C88.7266 148.641 88.1211 149.773 86.9102 150.57C85.6992 151.367 83.9492 151.766 81.6602 151.766C79.8945 151.766 78.5469 151.453 77.6172 150.828C76.6875 150.203 76.2227 149.312 76.2227 148.156C76.2227 147.359 76.4727 146.688 76.9727 146.141C77.4805 145.602 78.1875 145.227 79.0938 145.016C78.7266 144.859 78.4219 144.609 78.1797 144.266C77.9453 143.914 77.8281 143.547 77.8281 143.164C77.8281 142.68 77.9648 142.27 78.2383 141.934C78.5117 141.598 78.918 141.266 79.457 140.938C78.7852 140.648 78.2383 140.18 77.8164 139.531C77.4023 138.875 77.1953 138.109 77.1953 137.234C77.1953 135.828 77.6367 134.738 78.5195 133.965C79.4102 133.191 80.6758 132.805 82.3164 132.805C82.6836 132.805 83.0664 132.832 83.4648 132.887C83.8711 132.934 84.1758 132.984 84.3789 133.039H88.8672ZM78.6836 148.016C78.6836 148.609 78.9492 149.066 79.4805 149.387C80.0195 149.707 80.7734 149.867 81.7422 149.867C83.2422 149.867 84.3594 149.652 85.0938 149.223C85.8281 148.793 86.1953 148.223 86.1953 147.512C86.1953 146.949 85.9922 146.547 85.5859 146.305C85.1875 146.07 84.4414 145.953 83.3477 145.953H81.2617C80.4727 145.953 79.8438 146.137 79.375 146.504C78.9141 146.879 78.6836 147.383 78.6836 148.016ZM79.8672 137.234C79.8672 138.047 80.0742 138.672 80.4883 139.109C80.9102 139.547 81.5117 139.766 82.293 139.766C83.8867 139.766 84.6836 138.914 84.6836 137.211C84.6836 136.367 84.4844 135.719 84.0859 135.266C83.6953 134.805 83.0977 134.574 82.293 134.574C81.4961 134.574 80.8906 134.801 80.4766 135.254C80.0703 135.707 79.8672 136.367 79.8672 137.234ZM96.9414 146.234C94.9258 146.234 93.3477 145.648 92.207 144.477C91.0742 143.297 90.5078 141.676 90.5078 139.613C90.5078 137.496 91.0352 135.832 92.0898 134.621C93.1445 133.41 94.5938 132.805 96.4375 132.805C98.1484 132.805 99.5 133.324 100.492 134.363C101.484 135.402 101.98 136.832 101.98 138.652V140.141H93.3438C93.3828 141.398 93.7227 142.367 94.3633 143.047C95.0039 143.719 95.9062 144.055 97.0703 144.055C97.8359 144.055 98.5469 143.984 99.2031 143.844C99.8672 143.695 100.578 143.453 101.336 143.117V145.355C100.664 145.676 99.9844 145.902 99.2969 146.035C98.6094 146.168 97.8242 146.234 96.9414 146.234ZM96.4375 134.891C95.5625 134.891 94.8594 135.168 94.3281 135.723C93.8047 136.277 93.4922 137.086 93.3906 138.148H99.2734C99.2578 137.078 99 136.27 98.5 135.723C98 135.168 97.3125 134.891 96.4375 134.891ZM116.512 146H113.746V138.031C113.746 137.031 113.543 136.285 113.137 135.793C112.738 135.301 112.102 135.055 111.227 135.055C110.062 135.055 109.211 135.398 108.672 136.086C108.133 136.773 107.863 137.926 107.863 139.543V146H105.109V133.039H107.266L107.652 134.738H107.793C108.184 134.121 108.738 133.645 109.457 133.309C110.176 132.973 110.973 132.805 111.848 132.805C114.957 132.805 116.512 134.387 116.512 137.551V146ZM125.57 146.234C123.609 146.234 122.117 145.664 121.094 144.523C120.078 143.375 119.57 141.73 119.57 139.59C119.57 137.41 120.102 135.734 121.164 134.562C122.234 133.391 123.777 132.805 125.793 132.805C127.16 132.805 128.391 133.059 129.484 133.566L128.652 135.781C127.488 135.328 126.527 135.102 125.77 135.102C123.527 135.102 122.406 136.59 122.406 139.566C122.406 141.02 122.684 142.113 123.238 142.848C123.801 143.574 124.621 143.938 125.699 143.938C126.926 143.938 128.086 143.633 129.18 143.023V145.426C128.688 145.715 128.16 145.922 127.598 146.047C127.043 146.172 126.367 146.234 125.57 146.234ZM137.887 146.234C135.871 146.234 134.293 145.648 133.152 144.477C132.02 143.297 131.453 141.676 131.453 139.613C131.453 137.496 131.98 135.832 133.035 134.621C134.09 133.41 135.539 132.805 137.383 132.805C139.094 132.805 140.445 133.324 141.438 134.363C142.43 135.402 142.926 136.832 142.926 138.652V140.141H134.289C134.328 141.398 134.668 142.367 135.309 143.047C135.949 143.719 136.852 144.055 138.016 144.055C138.781 144.055 139.492 143.984 140.148 143.844C140.812 143.695 141.523 143.453 142.281 143.117V145.355C141.609 145.676 140.93 145.902 140.242 146.035C139.555 146.168 138.77 146.234 137.887 146.234ZM137.383 134.891C136.508 134.891 135.805 135.168 135.273 135.723C134.75 136.277 134.438 137.086 134.336 138.148H140.219C140.203 137.078 139.945 136.27 139.445 135.723C138.945 135.168 138.258 134.891 137.383 134.891Z" fill="#FF6A6A"/>
</svg>
