<svg width="150" height="150" viewBox="0 0 150 150" fill="none" xmlns="http://www.w3.org/2000/svg">
<path d="M7.00354 100.336L26.0697 58.7076H1V51.8306H34.3493V57.2791L15.3821 100.336H7.00354Z" fill="#FF6A6A"/>
<path d="M72.8116 76.0498C72.8116 84.4884 71.4592 90.7564 68.7543 94.8538C66.0714 98.9513 61.959 101 56.4173 101C51.0515 101 46.9832 98.8848 44.2123 94.6545C41.4414 90.4241 40.056 84.2226 40.056 76.0498C40.056 67.4784 41.3975 61.1661 44.0804 57.113C46.7853 53.0377 50.8976 51 56.4173 51C61.8051 51 65.8844 53.1262 68.6553 57.3787C71.4262 61.6312 72.8116 67.8549 72.8116 76.0498ZM47.9068 76.0498C47.9068 82.6722 48.5775 87.4009 49.919 90.2359C51.2824 93.0709 53.4485 94.4884 56.4173 94.4884C59.3861 94.4884 61.5522 93.0487 62.9157 90.1694C64.3011 87.2901 64.9938 82.5836 64.9938 76.0498C64.9938 69.5382 64.3011 64.8317 62.9157 61.9302C61.5522 59.0066 59.3861 57.5449 56.4173 57.5449C53.4485 57.5449 51.2824 58.9734 49.919 61.8306C48.5775 64.6877 47.9068 69.4275 47.9068 76.0498Z" fill="#FF6A6A"/>
<path d="M111.406 76.0498C111.406 84.4884 110.053 90.7564 107.348 94.8538C104.666 98.9513 100.553 101 95.0115 101C89.6457 101 85.5774 98.8848 82.8065 94.6545C80.0356 90.4241 78.6502 84.2226 78.6502 76.0498C78.6502 67.4784 79.9917 61.1661 82.6746 57.113C85.3795 53.0377 89.4918 51 95.0115 51C100.399 51 104.479 53.1262 107.25 57.3787C110.02 61.6312 111.406 67.8549 111.406 76.0498ZM86.501 76.0498C86.501 82.6722 87.1717 87.4009 88.5132 90.2359C89.8766 93.0709 92.0427 94.4884 95.0115 94.4884C97.9803 94.4884 100.146 93.0487 101.51 90.1694C102.895 87.2901 103.588 82.5836 103.588 76.0498C103.588 69.5382 102.895 64.8317 101.51 61.9302C100.146 59.0066 97.9803 57.5449 95.0115 57.5449C92.0427 57.5449 89.8766 58.9734 88.5132 61.8306C87.1717 64.6877 86.501 69.4275 86.501 76.0498Z" fill="#FF6A6A"/>
<path d="M150 76.0498C150 84.4884 148.648 90.7564 145.943 94.8538C143.26 98.9513 139.147 101 133.606 101C128.24 101 124.172 98.8848 121.401 94.6545C118.63 90.4241 117.244 84.2226 117.244 76.0498C117.244 67.4784 118.586 61.1661 121.269 57.113C123.974 53.0377 128.086 51 133.606 51C138.994 51 143.073 53.1262 145.844 57.3787C148.615 61.6312 150 67.8549 150 76.0498ZM125.095 76.0498C125.095 82.6722 125.766 87.4009 127.107 90.2359C128.471 93.0709 130.637 94.4884 133.606 94.4884C136.574 94.4884 138.741 93.0487 140.104 90.1694C141.489 87.2901 142.182 82.5836 142.182 76.0498C142.182 69.5382 141.489 64.8317 140.104 61.9302C138.741 59.0066 136.574 57.5449 133.606 57.5449C130.637 57.5449 128.471 58.9734 127.107 61.8306C125.766 64.6877 125.095 69.4275 125.095 76.0498Z" fill="#FF6A6A"/>
</svg>
