<svg width="150" height="150" viewBox="0 0 150 150" fill="none" xmlns="http://www.w3.org/2000/svg">
<path d="M117 66.2612C117 91.0127 112.035 109.49 102.106 121.694C92.1762 133.898 77.2249 140 57.2518 140C49.662 140 44.2122 139.542 40.9023 138.625V121.694C45.9812 123.127 51.0886 123.843 56.2246 123.843C69.8063 123.843 79.9356 120.176 86.6123 112.842C93.289 105.508 96.9413 93.992 97.569 78.2931H96.5418C93.1749 83.4497 89.0947 87.1739 84.3011 89.4657C79.5646 91.7575 74.0007 92.9034 67.6093 92.9034C56.5384 92.9034 47.8359 89.437 41.5015 82.5043C35.1672 75.5716 32 66.0606 32 53.9714C32 40.8508 35.6522 30.4231 42.9567 22.6882C50.3182 14.8961 60.3333 11 73.002 11C81.9043 11 89.6653 13.1772 96.285 17.5316C102.905 21.8861 108.012 28.2172 111.607 36.525C115.202 44.7755 117 54.6875 117 66.2612ZM73.3444 27.7588C66.3823 27.7588 61.0467 30.0506 57.3374 34.6342C53.6281 39.1606 51.7734 45.549 51.7734 53.7995C51.7734 60.9614 53.4854 66.6049 56.9094 70.7302C60.3904 74.7981 65.6405 76.8321 72.6596 76.8321C79.4505 76.8321 85.1571 74.7981 89.7795 70.7302C94.4018 66.6622 96.713 61.9067 96.713 56.4637C96.713 51.3644 95.7143 46.6089 93.717 42.1972C91.7768 37.7282 89.0376 34.2045 85.4995 31.6262C81.9614 29.048 77.9097 27.7588 73.3444 27.7588Z" fill="#F672A7"/>
</svg>
