<svg width="150" height="150" viewBox="0 0 150 150" fill="none" xmlns="http://www.w3.org/2000/svg">
<path d="M74.2188 101.867H61.3942V122.694H46.4864V101.867H3V90.0493L46.4864 26.9793H61.3942V89.1352H74.2188V101.867ZM46.4864 89.1352V65.1739C46.4864 56.6427 46.7034 49.6567 47.1374 44.2159H46.6166C45.4014 47.0886 43.4919 50.5707 40.8879 54.6622L17.2568 89.1352H46.4864Z" fill="#FE5E3F"/>
<path d="M114.646 26C123.673 26 130.812 28.0893 136.063 32.2678C141.315 36.4028 143.94 41.9525 143.94 48.9167C143.94 58.7102 138.081 66.5014 126.363 72.2905C133.828 76.0338 139.123 79.9729 142.248 84.1079C145.416 88.243 147 92.8568 147 97.9494C147 105.828 144.114 112.139 138.342 116.883C132.57 121.628 124.758 124 114.906 124C104.577 124 96.5696 121.78 90.8843 117.34C85.1989 112.901 82.3562 106.611 82.3562 98.4717C82.3562 93.1614 83.8318 88.3953 86.783 84.1732C89.7776 79.9076 94.66 76.1208 101.43 72.8128C95.6148 69.3307 91.4702 65.6527 88.9964 61.7788C86.5226 57.905 85.2857 53.5523 85.2857 48.7209C85.2857 41.8001 87.9982 36.294 93.4231 32.2025C98.8481 28.0675 105.922 26 114.646 26ZM97.0036 97.9494C97.0036 102.476 98.5877 106.002 101.756 108.526C104.924 111.007 109.221 112.248 114.646 112.248C120.244 112.248 124.584 110.964 127.665 108.396C130.79 105.784 132.353 102.258 132.353 97.8188C132.353 94.2931 130.92 91.0722 128.056 88.1559C125.192 85.2396 120.852 82.541 115.036 80.06L113.148 79.2112C107.42 81.7357 103.297 84.5214 100.779 87.5683C98.2622 90.5716 97.0036 94.032 97.0036 97.9494ZM114.515 37.8175C110.175 37.8175 106.682 38.9056 104.034 41.0819C101.387 43.2147 100.063 46.131 100.063 49.8308C100.063 52.0942 100.541 54.1181 101.495 55.9027C102.45 57.6873 103.839 59.3196 105.662 60.7995C107.485 62.2358 110.566 63.9769 114.906 66.0227C120.114 63.7157 123.781 61.3 125.908 58.7755C128.078 56.2074 129.163 53.2258 129.163 49.8308C129.163 46.131 127.817 43.2147 125.127 41.0819C122.479 38.9056 118.942 37.8175 114.515 37.8175Z" fill="#FE5E3F"/>
</svg>
