<svg width="1440" height="2266" viewBox="0 0 1440 2266" fill="none" xmlns="http://www.w3.org/2000/svg">
<g clip-path="url(#clip0)">
<rect width="1440" height="2266" fill="#F5F6F8"/>
<g filter="url(#filter0_d)">
<path fill-rule="evenodd" clip-rule="evenodd" d="M860.932 -447.698L733.653 -320.419L1675.02 620.945L1802.3 493.666L860.932 -447.698ZM1673.13 649.682L1545.85 522.403L219.75 1848.5C204.129 1864.12 204.129 1889.45 219.75 1905.07L248.035 1933.35C287.087 1972.41 350.404 1972.41 389.456 1933.35L1673.13 649.682Z" fill="url(#paint0_linear)"/>
</g>
<path d="M686.407 96L687.278 96.8738L688.146 96.0001L799.298 207.531L785.81 220.856H588.54L575.258 207.529L686.407 96Z" fill="#B6B6B6" fill-opacity="0.17"/>
<path d="M621.317 253.745L654.024 286.564L670.378 302.973V366.944L688.146 384.772L705.914 366.944L706.32 302.973L720.029 287.192L752.146 253.745H621.317Z" fill="#B6B6B6" fill-opacity="0.17"/>
<path d="M688.146 442.314L860.891 268.979L832.218 240.209L688.146 384.772L567.083 263.296L544.428 240.209L515.755 268.979L538.764 292.067L688.146 442.314Z" fill="#B6B6B6" fill-opacity="0.17"/>
<path d="M413.807 594.692L391.152 617.424L280 506.248L391.152 394.718L413.807 417.45V594.692Z" fill="#B6B6B6" fill-opacity="0.17"/>
<path d="M452.037 679.228L624.428 506.248L475.046 356.002L452.037 332.914L423.364 361.685L446.373 384.772V424.28H485.926L518.703 457.169H446.373V490.058H551.294L567.257 506.076L550.444 522.947H446.373V555.836H517.832L485.055 588.724H446.374V627.369L423.364 650.457L452.037 679.228Z" fill="#B6B6B6" fill-opacity="0.17"/>
<path d="M688.146 916.142L799.298 804.611L799.02 804.328L799.231 804.118L786.088 790.93H589.425L575.258 805.146L686.732 917L688.22 915.507L688.427 915.714L688.146 916.142Z" fill="#B6B6B6" fill-opacity="0.17"/>
<path d="M687.757 692.264L753.311 758.041H622.202L687.757 692.264Z" fill="#B6B6B6" fill-opacity="0.17"/>
<path d="M688.146 569.828L538.764 720.075L511.861 748.846L538.764 776.551L567.083 748.846L688.146 627.369L832.218 771.933L860.891 743.162L688.146 569.828Z" fill="#B6B6B6" fill-opacity="0.17"/>
<path d="M952.928 650.457L924.255 679.228L901.6 656.14L751.864 506.248L901.6 356.002L924.255 332.914L952.928 361.685L930.273 384.772V627.369L930.261 627.358L930.084 627.536L952.928 650.457Z" fill="#B6B6B6" fill-opacity="0.17"/>
<path d="M985.848 617.424L963.193 594.692V506.248V462.027V450.971V439.916H929.762V417.862L963.193 417.805L985.848 394.718L1097 506.248L985.848 617.424Z" fill="#B6B6B6" fill-opacity="0.17"/>
</g>
<defs>
<filter id="filter0_d" x="195.035" y="-447.698" width="1634.26" height="2450.34" filterUnits="userSpaceOnUse" color-interpolation-filters="sRGB">
<feFlood flood-opacity="0" result="BackgroundImageFix"/>
<feColorMatrix in="SourceAlpha" type="matrix" values="0 0 0 0 0 0 0 0 0 0 0 0 0 0 0 0 0 0 127 0"/>
<feOffset dx="7" dy="20"/>
<feGaussianBlur stdDeviation="10"/>
<feColorMatrix type="matrix" values="0 0 0 0 0 0 0 0 0 0 0 0 0 0 0 0 0 0 0.25 0"/>
<feBlend mode="normal" in2="BackgroundImageFix" result="effect1_dropShadow"/>
<feBlend mode="normal" in="SourceGraphic" in2="effect1_dropShadow" result="shape"/>
</filter>
<linearGradient id="paint0_linear" x1="1404.14" y1="-22.8028" x2="364.009" y2="714.668" gradientUnits="userSpaceOnUse">
<stop stop-color="#6559CC"/>
<stop offset="1" stop-color="#F672A7"/>
</linearGradient>
<clipPath id="clip0">
<rect width="1440" height="2266" fill="white"/>
</clipPath>
</defs>
</svg>
