<svg width="33" height="33" viewBox="0 0 33 33" fill="none" xmlns="http://www.w3.org/2000/svg">
<path d="M2.01629 18.0301L3.02444 17.8271V25L1.81466 24.797L0.672098 23.782L0 22.6316V20.1278L1.14257 18.7068L2.01629 18.0301Z" fill="white"/>
<path d="M3.76375 25V17.8271H6.11609L6.72098 17.218L9.54379 19.2481L8.9389 20.1278V22.8346L8.06517 24.1203L6.72098 25H3.76375Z" fill="white"/>
<path d="M10.3503 18.7068L5.84725 15.4586L7.25866 13.0226L9.34216 9.90977L12.3666 8.01504L15.1894 7H21.776L24.3299 8.21805L26.7495 9.36842L26.8839 11.4662V14.4436L25.6069 17.1504L24.3971 19.8571L28.9674 20.0602V25H19.4236L18.2138 23.4436L20.6334 20.3308L20.2974 18.0301L16.0631 13.9023L12.7699 17.4211L13.5764 18.7068H10.3503Z" fill="white"/>
<path d="M13.8452 17.4211L16.0631 15.1203L19.4236 18.4361L19.6925 20.6015L15.7943 24.594L13.3075 22.1579L15.7943 19.6541L13.8452 17.4211Z" fill="white"/>
<path d="M14.7189 25L12.4338 22.8346L10.7536 23.1053L9.87984 24.391V25H14.7189Z" fill="white"/>
<path d="M29.7067 22.9699V20.6015H33V25H31.2525L30.3116 22.9699H29.7067Z" fill="white"/>
</svg>
