<svg width="39" height="38" viewBox="0 0 39 38" fill="none" xmlns="http://www.w3.org/2000/svg">
<path d="M10.2849 31.6665C12.1912 31.6665 13.7366 30.1212 13.7366 28.2148C13.7366 26.3085 12.1912 24.7632 10.2849 24.7632C8.37862 24.7632 6.83325 26.3085 6.83325 28.2148C6.83325 30.1212 8.37862 31.6665 10.2849 31.6665Z" fill="#F672A7"/>
<path d="M6.83325 7.03003V11.5109C17.9641 11.5109 26.9891 20.5359 26.9891 31.6667H31.4699C31.4699 18.0659 20.4341 7.03003 6.83325 7.03003ZM6.83325 15.9917V20.4725C13.0083 20.4725 18.0274 25.4917 18.0274 31.6667H22.5083C22.5083 23.0059 15.4941 15.9917 6.83325 15.9917Z" fill="#F672A7"/>
</svg>
