<svg width="33" height="33" viewBox="0 0 33 33" fill="none" xmlns="http://www.w3.org/2000/svg">
<path d="M7.98579 25.5944L5 29H13.071L13.7708 26.5741L7.98579 25.5944Z" fill="white"/>
<path d="M13.7706 26.2008L8.35889 25.3144L10.085 15.9371L11.5779 12.4848L13.6307 6.93306L14.4704 6H15.7767L16.0566 6.93306L15.4501 9.17241L14.0506 12.858L13.6307 14.1643L13.1175 17.3833L12.4177 20.9756L13.6307 17.7099L14.0506 14.5375L14.8903 13.9777L15.9167 14.5375L15.6834 23.1217L13.7706 26.2008Z" fill="white"/>
<path d="M24.7816 25.5944L27.717 29H19.7823L19.0943 26.5741L24.7816 25.5944Z" fill="white"/>
<path d="M19.0944 26.2008L24.4148 25.3144L22.7178 15.9371L21.2501 12.4848L19.232 6.93306L18.4064 6H17.1222L16.847 6.93306L17.4432 9.17241L18.8192 12.858L19.232 14.1643L19.7365 17.3833L20.4245 20.9756L19.232 17.7099L18.8192 14.5375L17.9936 13.9777L16.9846 14.5375L17.2139 23.1217L19.0944 26.2008Z" fill="white"/>
</svg>
