<svg width="939" height="262" viewBox="0 0 939 262" fill="none" xmlns="http://www.w3.org/2000/svg">
<g clip-path="url(#clip0)">
<path d="M0 262L82.7894 132.218L3.47855 10.4382H46.2647L108.879 106.47L165.927 10.4382H206.626L127.315 134.653L210.104 262H166.97L101.574 161.445L41.7426 262H0Z" fill="#B6B6B6" fill-opacity="0.19"/>
<path d="M258.404 10.4382H421.896V42.7968H292.146V119.344H407.982V151.703H292.146V229.293H426.766V262H258.404V10.4382Z" fill="#B6B6B6" fill-opacity="0.19"/>
<path d="M467.229 10.4382H634.199V42.7968H566.715V262H532.973V42.7968H467.229V10.4382Z" fill="#B6B6B6" fill-opacity="0.19"/>
<path d="M688.127 10.4382H721.869V262H688.127V10.4382Z" fill="#B6B6B6" fill-opacity="0.19"/>
<path d="M769.069 262L878.991 0H881.078L991 262H952.04L925.951 195.891H829.248L802.463 262H769.069ZM841.075 166.664H914.472L878.643 75.1554L841.075 166.664Z" fill="#B6B6B6" fill-opacity="0.19"/>
</g>
<defs>
<clipPath id="clip0">
<rect width="939" height="262" fill="white"/>
</clipPath>
</defs>
</svg>
