<svg width="1150" height="276" viewBox="0 0 1150 276" fill="none" xmlns="http://www.w3.org/2000/svg">
<path d="M103.219 165.062C103.219 158.292 100.406 153.135 94.7812 149.594C89.2604 146.052 80.0417 142.927 67.125 140.219C54.2083 137.51 43.4271 134.073 34.7812 129.906C15.8229 120.74 6.34375 107.458 6.34375 90.0625C6.34375 75.4792 12.4896 63.2917 24.7812 53.5C37.0729 43.7083 52.6979 38.8125 71.6562 38.8125C91.8646 38.8125 108.167 43.8125 120.562 53.8125C133.062 63.8125 139.312 76.7812 139.312 92.7188H101.344C101.344 85.4271 98.6354 79.3854 93.2188 74.5938C87.8021 69.6979 80.6146 67.25 71.6562 67.25C63.3229 67.25 56.5 69.1771 51.1875 73.0312C45.9792 76.8854 43.375 82.0417 43.375 88.5C43.375 94.3333 45.8229 98.8646 50.7188 102.094C55.6146 105.323 65.5104 108.604 80.4062 111.938C95.3021 115.167 106.969 119.073 115.406 123.656C123.948 128.135 130.25 133.552 134.312 139.906C138.479 146.26 140.562 153.969 140.562 163.031C140.562 178.24 134.26 190.583 121.656 200.062C109.052 209.438 92.5417 214.125 72.125 214.125C58.2708 214.125 45.9271 211.625 35.0938 206.625C24.2604 201.625 15.8229 194.75 9.78125 186C3.73958 177.25 0.71875 167.823 0.71875 157.719H37.5938C38.1146 166.677 41.5 173.604 47.75 178.5C54 183.292 62.2812 185.688 72.5938 185.688C82.5938 185.688 90.1979 183.812 95.4062 180.062C100.615 176.208 103.219 171.208 103.219 165.062ZM261.344 0.84375V41.9375H291.188V70.0625H261.344V164.438C261.344 170.896 262.594 175.583 265.094 178.5C267.698 181.312 272.281 182.719 278.844 182.719C283.219 182.719 287.646 182.198 292.125 181.156V210.531C283.479 212.927 275.146 214.125 267.125 214.125C237.958 214.125 223.375 198.031 223.375 165.844V70.0625H195.562V41.9375H223.375V0.84375H261.344ZM461.344 211C459.677 207.771 458.219 202.51 456.969 195.219C444.885 207.823 430.094 214.125 412.594 214.125C395.615 214.125 381.76 209.281 371.031 199.594C360.302 189.906 354.938 177.927 354.938 163.656C354.938 145.635 361.604 131.833 374.938 122.25C388.375 112.562 407.542 107.719 432.438 107.719H455.719V96.625C455.719 87.875 453.271 80.8958 448.375 75.6875C443.479 70.375 436.031 67.7188 426.031 67.7188C417.385 67.7188 410.302 69.9062 404.781 74.2812C399.26 78.5521 396.5 84.0208 396.5 90.6875H358.531C358.531 81.4167 361.604 72.7708 367.75 64.75C373.896 56.625 382.229 50.2708 392.75 45.6875C403.375 41.1042 415.198 38.8125 428.219 38.8125C448.01 38.8125 463.792 43.8125 475.562 53.8125C487.333 63.7083 493.375 77.6667 493.688 95.6875V171.938C493.688 187.146 495.823 199.281 500.094 208.344V211H461.344ZM419.625 183.656C427.125 183.656 434.156 181.833 440.719 178.188C447.385 174.542 452.385 169.646 455.719 163.5V131.625H435.25C421.188 131.625 410.615 134.073 403.531 138.969C396.448 143.865 392.906 150.792 392.906 159.75C392.906 167.042 395.302 172.875 400.094 177.25C404.99 181.521 411.5 183.656 419.625 183.656ZM661.969 76.625C656.969 75.7917 651.812 75.375 646.5 75.375C629.104 75.375 617.385 82.0417 611.344 95.375V211H573.375V41.9375H609.625L610.562 60.8438C619.729 46.1562 632.438 38.8125 648.688 38.8125C654.104 38.8125 658.583 39.5417 662.125 41L661.969 76.625ZM781.344 0.84375V41.9375H811.188V70.0625H781.344V164.438C781.344 170.896 782.594 175.583 785.094 178.5C787.698 181.312 792.281 182.719 798.844 182.719C803.219 182.719 807.646 182.198 812.125 181.156V210.531C803.479 212.927 795.146 214.125 787.125 214.125C757.958 214.125 743.375 198.031 743.375 165.844V70.0625H715.562V41.9375H743.375V0.84375H781.344ZM982.75 194.438C971.604 207.562 955.771 214.125 935.25 214.125C916.917 214.125 903.01 208.76 893.531 198.031C884.156 187.302 879.469 171.781 879.469 151.469V41.9375H917.438V151C917.438 172.458 926.344 183.188 944.156 183.188C962.594 183.188 975.042 176.573 981.5 163.344V41.9375H1019.47V211H983.688L982.75 194.438ZM1246.19 128.188C1246.19 154.333 1240.25 175.219 1228.38 190.844C1216.5 206.365 1200.56 214.125 1180.56 214.125C1162.02 214.125 1147.18 208.031 1136.03 195.844V276H1098.06V41.9375H1133.06L1134.62 59.125C1145.77 45.5833 1160.93 38.8125 1180.09 38.8125C1200.72 38.8125 1216.86 46.5208 1228.53 61.9375C1240.3 77.25 1246.19 98.5521 1246.19 125.844V128.188ZM1208.38 124.906C1208.38 108.031 1204.99 94.6458 1198.22 84.75C1191.55 74.8542 1181.97 69.9062 1169.47 69.9062C1153.95 69.9062 1142.8 76.3125 1136.03 89.125V164.125C1142.91 177.25 1154.16 183.812 1169.78 183.812C1181.86 183.812 1191.29 178.969 1198.06 169.281C1204.94 159.49 1208.38 144.698 1208.38 124.906Z" fill="#C2C2C2" fill-opacity="0.19"/>
</svg>
